version 1
nodes
0 "blender_implicit" -1
1 "tag_origin" -1
2 "tag_sync" 1
3 "tag_view" 1
4 "tag_ads" 3
5 "tag_torso" 4
6 "j_mainroot" 5
7 "j_hip_le" 6
8 "j_hiptwist_le" 7
9 "j_knee_le" 7
10 "j_ankle_le" 9
11 "j_ball_le" 10
12 "j_kneedq_le" 9
13 "j_hip_proc_le" 7
14 "j_hip_ri" 6
15 "j_hiptwist_ri" 14
16 "tag_stowed_thigh" 15
17 "j_knee_ri" 14
18 "j_ankle_ri" 17
19 "j_ball_ri" 18
20 "j_kneedq_ri" 17
21 "j_hip_proc_ri" 14
22 "j_spinelower" 6
23 "j_spineupper" 22
24 "j_clavicle_le" 23
25 "j_shoulder_le" 24
26 "j_shouldertwist_le" 25
27 "j_elbow_le" 25
28 "j_wristfronttwist1_le" 27
29 "j_proc_wristfronttwist1_le" 28
30 "tag_wrist_attach_le" 29
31 "j_shield_le" 27
32 "j_elbowdq_le" 27
33 "j_wrist_le" 27
34 "j_metaindex_le_1" 33
35 "j_index_le_1" 34
36 "j_index_le_2" 35
37 "j_index_le_3" 36
38 "j_index_le_4" 37
39 "j_indexbulge_le_1" 35
40 "j_proc_index_le_1" 35
41 "j_metamid_le_1" 33
42 "j_mid_le_1" 41
43 "j_mid_le_2" 42
44 "j_mid_le_3" 43
45 "j_proc_mid_le_1" 42
46 "j_metapinky_le_1" 33
47 "j_pinky_le_1" 46
48 "j_pinky_le_2" 47
49 "j_pinky_le_3" 48
50 "j_proc_pinky_le_1" 47
51 "j_webbing_le_3" 46
52 "j_metaring_le_1" 33
53 "j_ring_le_1" 52
54 "j_ring_le_2" 53
55 "j_ring_le_3" 54
56 "j_proc_ring_le_1" 53
57 "j_thumb_le_1" 33
58 "j_thumb_le_2" 57
59 "j_thumb_le_3" 58
60 "j_thumb_le_4" 59
61 "j_webbing_le_2" 57
62 "j_webbing_le_1" 33
63 "tag_weapon_left" 33
64 "tag_accessory_left" 33
65 "j_proc_metaindex_le_1" 33
66 "j_proc_metaindex_le_2" 65
67 "j_proc_metaknuckle_le_1" 33
68 "j_proc_knuckle_le_1" 67
69 "j_proc_idle_knuckle_le_1" 67
70 "j_proc_orient_knuckle_le_1" 67
71 "j_proc_metapinky_le_1" 33
72 "j_proc_metapinky_le_2" 71
73 "tag_carry_attach" 24
74 "j_teres_le" 24
75 "j_clavicle_ri" 23
76 "j_shoulder_ri" 75
77 "j_shouldertwist_ri" 76
78 "j_elbow_ri" 76
79 "j_wristfronttwist1_ri" 78
80 "j_shield_ri" 78
81 "j_elbowdq_ri" 78
82 "j_wrist_ri" 78
83 "j_gun" 82
84 "tag_sling" 83
85 "j_trigger" 84
86 "tag_acog_2" 84
87 "tag_align_gun" 84
88 "tag_barrel_attach" 84
89 "tag_bipod_attach" 88
90 "tag_folding_grip" 88
91 "tag_ik_loc_le_foregrip" 90
92 "tag_grip_attach" 88
93 "tag_ik_loc_le" 88
94 "tag_ik_target_left_mover" 88
95 "tag_laser_attach" 88
96 "tag_laser_show" 88
97 "tag_sight_off2" 88
98 "tag_sight_on2" 88
99 "tag_silencer" 88
100 "tag_tip" 88
101 "tag_flash" 100
102 "tag_weapon_focus" 88
103 "tag_brass" 84
104 "tag_cosdisplay" 84
105 "tag_cosmetic" 84
106 "tag_holo" 84
107 "tag_hybrid" 84
108 "j_hybrid_scope" 107
109 "tag_front_lens" 108
110 "tag_lense" 108
111 "tag_lense_hide" 108
112 "tag_reticle_attach" 108
113 "j_magnifier_lever" 107
114 "tag_glass_ads2" 107
115 "tag_glass_hip2" 107
116 "tag_reticle_attach2" 107
117 "tag_ik_loc_ri" 84
118 "tag_mag_attach" 84
119 "j_mag1" 118
120 "j_ammo_02" 119
121 "j_ammo_03" 119
122 "j_ammo_04" 119
123 "j_ammo_05" 119
124 "j_ammo_06" 119
125 "j_ammo_07" 119
126 "j_ammo_08" 119
127 "j_ammo_09" 119
128 "j_ammo_10" 119
129 "j_ammo_11" 119
130 "j_ammo_12" 119
131 "j_ammo_13" 119
132 "j_ammo_14" 119
133 "j_ammo_15" 119
134 "j_ammo_16" 119
135 "j_ammo_17" 119
136 "j_ammo_18" 119
137 "j_ammo_19" 119
138 "j_ammo_20" 119
139 "j_ammo_21" 119
140 "j_mag_follower" 119
141 "j_mag2" 118
142 "j_ammo_22" 141
143 "j_ammo_23" 141
144 "j_ammo_24" 141
145 "j_ammo_25" 141
146 "j_ammo_26" 141
147 "j_ammo_27" 141
148 "j_ammo_28" 141
149 "j_ammo_29" 141
150 "j_ammo_30" 141
151 "j_ammo_31" 141
152 "j_ammo_32" 141
153 "j_ammo_33" 141
154 "j_ammo_34" 141
155 "j_ammo_35" 141
156 "j_ammo_36" 141
157 "j_ammo_37" 141
158 "j_ammo_38" 141
159 "j_ammo_39" 141
160 "j_ammo_40" 141
161 "j_ammo_41" 141
162 "j_ammo_01" 118
163 "tag_pistolgrip_attach" 84
164 "tag_reflex" 84
165 "tag_scope" 84
166 "tag_sight_off" 84
167 "tag_sight_on" 84
168 "tag_stock_attach" 84
169 "tag_stock_hide" 84
170 "j_bolt" 84
171 "j_boltrel" 84
172 "j_charginghandle" 84
173 "j_charginghandleassistright" 84
174 "j_ejectioncover" 84
175 "j_firesel" 84
176 "j_magrel" 84
177 "bone_e2696c27" 84
178 "tag_menu" 84
179 "j_metaindex_ri_1" 82
180 "j_index_ri_1" 179
181 "j_index_ri_2" 180
182 "j_index_ri_3" 181
183 "j_index_ri_4" 182
184 "j_indexbulge_ri_1" 180
185 "j_proc_index_ri_1" 180
186 "j_metamid_ri_1" 82
187 "j_mid_ri_1" 186
188 "j_mid_ri_2" 187
189 "j_mid_ri_3" 188
190 "j_proc_mid_ri_1" 187
191 "j_metapinky_ri_1" 82
192 "j_pinky_ri_1" 191
193 "j_pinky_ri_2" 192
194 "j_pinky_ri_3" 193
195 "j_proc_pinky_ri_1" 192
196 "j_webbing_ri_3" 191
197 "j_metaring_ri_1" 82
198 "j_ring_ri_1" 197
199 "j_ring_ri_2" 198
200 "j_ring_ri_3" 199
201 "j_proc_ring_ri_1" 198
202 "j_thumb_ri_1" 82
203 "j_thumb_ri_2" 202
204 "j_thumb_ri_3" 203
205 "j_thumb_ri_4" 204
206 "j_webbing_ri_2" 202
207 "j_webbing_ri_1" 82
208 "tag_weapon_right" 82
209 "tag_knife_attach2" 82
210 "tag_accessory_right" 82
211 "j_proc_metaindex_ri_1" 82
212 "j_proc_metaindex_ri_2" 211
213 "j_proc_metaknuckle_ri_1" 82
214 "j_proc_knuckle_ri_1" 213
215 "j_proc_idle_knuckle_ri_1" 213
216 "j_proc_orient_knuckle_ri_1" 213
217 "j_proc_metapinky_ri_1" 82
218 "j_proc_metapinky_ri_2" 217
219 "j_teres_ri" 75
220 "j_neck" 23
221 "j_head" 220
222 "j_eyeball_le" 221
223 "j_eyeball_ri" 221
224 "j_head_end" 221
225 "j_helmet" 224
226 "j_visor" 225
227 "j_visor_inner" 225
228 "j_jaw" 221
229 "j_nvg" 221
230 "j_spine4" 23
231 "j_chest" 230
232 "j_proc_spineupper" 23
233 "j_proc_spinelower" 22
234 "j_groinprotector" 6
235 "j_crotch" 6
236 "tag_weapon" 5
237 "tag_cambone" 3
238 "tag_camera" 237
239 "tag_player" 238
240 "tag_playerhelmet" 238
241 "tag_ik_foot_loc_le" 1
242 "tag_ik_foot_loc_ri" 1
243 "tag_camera_scripted" 1
end
skeleton
time 0
0  0 0 0  0 0 0
1  0.000000 0.000000 0.000000  0.000000 -0.000000 -1.570796
2  0.000000 0.000000 0.000000  0.000000 -0.000000 0.000000
3  -0.106401 0.000000 0.000168  0.000000 -0.000000 0.000000
4  0.000000 -0.000000 0.000000  0.000000 -0.000000 0.000000
5  -0.904005 0.000000 -11.806068  0.000000 0.000000 0.000000
6  0.000000 0.000000 -14.314083  0.785054 -1.570775 0.785116
7  -0.000000 0.000000 -4.867027  -0.000000 -3.141593 0.013001
8  1.000094 -0.000004 -0.000004  0.000000 -0.000000 -0.000010
9  17.162611 0.000021 -0.000074  -0.000000 -0.000000 0.119216
10  17.749464 0.296171 0.000026  0.000000 -0.000000 -1.158977
11  5.413618 0.000323 0.000007  -0.000000 -0.000000 -0.518058
12  0.017883 0.299794 0.000001  -0.000001 0.000000 -0.059527
13  9.999944 -0.000055 -0.000043  0.000000 -0.000000 -0.000010
14  -0.000000 -0.000000 4.867027  -0.000000 -3.141593 0.013001
15  1.000093 -0.000005 -0.000005  0.000001 -0.000000 -0.000000
16  12.283586 1.581749 -4.696087  1.462278 -0.086716 0.090211
17  17.162615 0.000022 -0.000075  -0.000000 -0.000000 0.119216
18  17.749466 0.295914 0.000026  0.000001 -0.000000 -1.158978
19  5.413618 0.000328 0.000009  -0.000000 -0.000000 -0.518060
20  0.017881 0.299794 0.000001  -0.000002 -0.000000 -0.059546
21  9.499887 0.000447 -0.000042  0.000001 -0.000000 0.000002
22  3.533024 0.000000 0.000000  0.000000 0.000000 -0.000000
23  6.250034 0.000000 0.000000  0.000000 -0.000000 -0.000000
24  9.568155 2.329008 -1.942810  -1.526256 1.357191 -1.527255
25  5.784558 -0.000030 0.000177  -0.920179 0.339755 -1.469300
26  0.500226 0.000088 -0.000060  -0.000003 0.000001 0.000003
27  11.530225 -0.001400 0.000132  0.000050 0.000035 -1.221177
28  10.600073 -0.000006 -0.000626  -1.463581 0.000000 -0.000000
29  -1.145532 0.000104 0.000678  0.000000 0.000002 -0.000000
30  0.259933 -0.045215 0.109299  0.023276 0.042363 0.010826
31  3.999447 -0.000405 -0.000331  -0.731823 -0.000057 0.000022
32  0.119217 -0.275756 -0.000157  0.000004 -0.000020 0.409876
33  11.041295 -0.000005 -0.000640  -1.364486 0.043626 0.838419
34  0.610343 -0.939518 0.070246  -1.659840 -0.162230 -0.143479
35  2.619622 0.000198 0.000403  -0.239318 -0.608909 0.669023
36  1.856095 -0.004781 -0.005311  0.000000 -0.000000 0.939121
37  0.920014 -0.000306 -0.000411  0.000000 -0.000000 0.902004
38  0.599515 0.400686 0.000245  0.000000 0.000000 -0.000000
39  1.200447 0.398944 -0.000759  -0.009502 0.016094 0.007159
40  0.000108 0.099683 -0.000890  -0.120042 -0.021920 -0.209553
41  0.639958 -0.199138 0.060166  -1.670006 -0.168988 -0.036089
42  2.659573 0.000070 -0.000824  -0.547589 -0.359487 1.190181
43  2.008789 -0.000222 -0.000226  0.000038 0.000048 1.362620
44  1.099689 -0.000368 0.000142  -0.000000 0.000000 0.246110
45  0.000226 0.098995 0.000208  -0.018794 0.010832 -0.239299
46  0.600150 1.080289 -0.339432  -1.767169 0.116827 -0.008263
47  2.045288 0.197966 0.054568  -0.625196 0.156034 1.447546
48  1.179318 0.000276 -0.000711  -0.000056 0.000025 0.843943
49  0.680125 -0.001253 0.000447  -0.000000 0.000000 -0.053352
50  -0.000203 0.099623 -0.000037  -0.000040 0.000003 -0.314042
51  0.599395 0.958695 -0.300715  -0.174558 -0.000002 0.000011
52  0.609746 0.400183 -0.009381  -1.760061 -0.015756 0.060640
53  2.560418 -0.000127 0.000025  -0.529988 -0.156016 1.305779
54  1.708753 0.000751 -0.000178  -0.000051 0.000034 1.164086
55  1.020016 -0.000762 -0.000215  -0.000000 -0.000000 0.156780
56  0.000134 0.100439 0.000325  -0.010912 0.023137 -0.260793
57  0.597093 -0.602851 -0.033353  0.284792 0.454078 -0.882139
58  2.099458 0.000475 -0.000411  -0.219564 -0.132135 0.792326
59  1.290017 -0.000248 0.000598  -0.006463 -0.064282 -0.263028
60  0.599872 0.400223 -0.000033  -0.000000 -0.000000 0.000000
61  0.999552 0.000364 -1.210202  -0.000000 -0.000000 0.000000
62  2.299760 -2.499889 -0.599584  0.892089 0.221524 -0.527226
63  1.490282 -0.530349 -1.803599  2.260885 -0.234633 -0.301488
64  -9.579995 -27.860641 -37.185722  0.812952 -0.123458 -0.568431
65  0.649954 -0.548281 0.093625  -1.665880 -0.131380 -0.112048
66  1.899127 0.000393 -0.000434  0.027372 -0.033315 0.477854
67  0.657077 0.008415 0.040370  -1.665944 -0.131351 -0.000001
68  1.799665 -0.000336 0.000231  0.027403 -0.033320 0.477844
69  1.799665 -0.000336 0.000231  0.027403 -0.033320 0.477844
70  1.799665 -0.000336 0.000231  0.027403 -0.033320 0.477844
71  0.665756 0.747237 -0.029160  -1.665856 -0.131441 0.094997
72  1.900313 -0.000080 -0.000519  0.027386 -0.033290 0.477846
73  4.661995 -5.365794 4.825728  -1.564998 1.580234 0.027239
74  5.999701 -0.000878 -4.000021  0.000013 -0.000000 -0.000017
75  11.124654 10.512424 2.466312  1.152667 -1.547371 -1.152753
76  5.784557 -0.000013 -0.000273  0.845372 -0.725805 -1.359329
77  0.500225 0.000083 0.000060  -0.000001 -0.000000 -0.000001
78  11.529486 -0.001522 -0.000932  0.000045 -0.000042 -1.633439
79  10.600057 -0.000051 0.000605  0.000004 0.000004 0.000002
80  3.999898 0.000144 0.001001  0.051399 -0.000059 -0.000063
81  0.119675 -0.275193 0.000832  -0.000027 0.000008 0.409850
82  11.041278 -0.000048 0.000623  0.071854 0.317471 0.867942
83  12.301414 -3.135071 -0.007034  1.948271 -0.016448 0.068365
84  -10.524064 -0.701073 -0.521051  -0.000000 0.000000 0.000000
85  3.193001 0.701160 -1.254582  -0.000000 -0.000000 0.000000
86  1.645854 0.701073 1.852770  -0.000000 -0.000000 -0.000002
87  2.006027 0.700865 2.994858  -0.000000 -0.000000 -0.000002
88  7.259144 0.701129 0.735780  -0.000000 0.000000 -0.000002
89  2.443858 0.000041 -0.896182  -0.000000 0.000000 0.000011
90  1.682486 0.000036 -0.897117  -0.000000 0.000000 0.000011
91  -1.414002 2.039071 -3.052920  -1.508761 -0.228143 -0.252721
92  0.703519 0.000030 -0.896949  -0.000000 -0.000000 0.000001
93  2.146830 1.593651 -1.614782  -2.241442 0.087930 -0.369952
94  3.263895 1.753042 -1.226679  -1.926394 0.285192 -0.394113
95  3.639715 -1.008986 0.034572  1.570835 -0.000001 0.000006
96  5.032293 -1.008976 0.034573  1.570835 -0.000000 0.000008
97  8.696169 0.000027 1.283898  -0.000000 0.000000 -0.000000
98  8.696169 0.000027 1.283898  -0.000000 0.000000 -0.000000
99  10.392460 -0.000026 -0.093967  -0.000000 0.000000 -0.000000
100  10.392460 -0.000026 -0.093967  -0.000000 0.000000 -0.000000
101  1.203458 0.000008 0.000512  -0.000000 -0.000000 0.000001
102  8.426608 -0.000103 2.259499  -0.000000 0.000000 -0.000000
103  5.883065 0.081212 0.926991  -0.000005 -0.258097 -1.570797
104  6.513066 1.393490 0.708348  -0.000000 -0.000000 -0.000001
105  6.513066 1.393490 0.708348  -0.000000 -0.000000 -0.000001
106  2.804783 0.701079 1.852769  -0.000000 -0.000000 -0.000002
107  2.255213 0.701075 1.852771  -0.000000 -0.000000 -0.000002
108  1.086010 -0.660984 -0.149014  -0.000000 0.000000 0.000000
109  -2.112015 0.641942 1.495001  -0.000000 0.000000 0.000000
110  -2.112015 0.641942 1.495001  -0.000000 0.000000 0.000000
111  -2.112015 0.641942 1.495001  -0.000000 0.000000 0.000000
112  -2.112015 0.641942 1.495001  -0.000000 0.000000 0.000000
113  1.066997 0.589001 0.076015  -0.000000 0.000000 0.000000
114  -0.000000 -0.018999 -0.000000  -0.000000 0.000000 0.000000
115  -0.000000 -0.018999 -0.000000  -0.000000 0.000000 0.000000
116  3.300011 -0.019015 1.345993  -0.000000 0.000000 0.000000
117  -1.532000 -0.568494 -3.243711  -1.949180 -0.069607 0.009948
118  6.153621 0.701199 -2.047168  -0.000000 0.000000 -0.000002
119  -0.558628 -0.000119 0.946533  -0.000000 0.000000 0.000000
120  0.215623 -0.000046 1.415003  0.000000 -0.071612 0.000000
121  0.167190 0.092003 1.117431  -0.000000 -0.071612 0.000000
122  0.118561 -0.100436 0.855705  0.000000 -0.071612 -0.000000
123  0.077615 0.122695 0.637298  0.000000 -0.071612 0.000000
124  0.092015 -0.131106 0.436477  0.000000 -0.071612 -0.000000
125  0.003281 0.142046 0.256783  -0.000000 -0.071612 -0.000000
126  -0.029925 -0.132905 0.083271  0.000000 -0.071612 -0.000000
127  -0.052485 0.142054 -0.063858  0.000000 -0.071612 0.000000
128  -0.093055 -0.132897 -0.238246  -0.000000 -0.071612 0.000000
129  -0.112278 0.142063 -0.385646  -0.000000 -0.071612 -0.000000
130  -0.148588 -0.132888 -0.559855  -0.000000 -0.071612 -0.000000
131  -0.189957 0.142073 -0.706519  -0.000000 -0.071612 0.000000
132  -0.211962 -0.132878 -0.881186  -0.000000 -0.071612 -0.000000
133  -0.248653 0.142081 -1.028471  0.000000 -0.071612 -0.000000
134  -0.274849 -0.132870 -1.202109  0.000000 -0.071612 -0.000000
135  -0.316169 0.142089 -1.349439  0.000000 -0.071612 -0.000000
136  -0.352939 -0.132862 -1.523740  0.000000 -0.071612 0.000000
137  -0.386291 0.142097 -1.670598  -0.000000 -0.071612 -0.000000
138  -0.419607 -0.132854 -1.844793  -0.000000 -0.071612 -0.000000
139  -0.445621 0.142105 -1.991552  -0.000000 -0.071612 0.000000
140  -0.904150 0.000426 -4.267797  -0.000000 -0.000000 0.000000
141  -1195.976562 -0.000105 0.946529  -0.000000 0.000000 0.000000
142  0.215692 -0.000046 1.415003  -0.000000 -0.071612 -0.000000
143  0.180545 0.092017 0.732031  -0.000000 -0.071612 -0.000000
144  0.118528 -0.100436 0.855704  -0.000000 -0.071612 -0.000000
145  0.077642 0.122694 0.637298  -0.000000 -0.071612 -0.000000
146  0.092043 -0.131106 0.436477  0.000000 -0.071612 -0.000000
147  0.003305 0.142046 0.256782  -0.000000 -0.071612 -0.000000
148  -0.029901 -0.132905 0.083271  0.000000 -0.071612 -0.000000
149  -0.052477 0.142054 -0.063858  -0.000000 -0.071612 -0.000000
150  -0.093008 -0.132897 -0.238247  -0.000000 -0.071612 -0.000000
151  -0.112288 0.142063 -0.385646  -0.000000 -0.071612 -0.000000
152  -0.148547 -0.132889 -0.559856  -0.000000 -0.071549 0.000000
153  -0.189922 0.142073 -0.706519  -0.000000 -0.071549 0.000000
154  -0.211898 -0.132878 -0.881186  -0.000000 -0.071549 0.000000
155  -0.248634 0.142081 -1.028471  -0.000000 -0.071549 0.000000
156  -0.274883 -0.132870 -1.202109  -0.000000 -0.071549 0.000000
157  -0.316135 0.142089 -1.349440  -0.000000 -0.071549 0.000000
158  -0.352882 -0.132862 -1.523740  -0.000000 -0.071549 0.000000
159  -0.386322 0.142097 -1.670599  -0.000000 -0.071549 0.000000
160  -0.419651 -0.132854 -1.844792  -0.000000 -0.071549 0.000000
161  -0.445645 0.142105 -1.991552  -0.000000 -0.071549 0.000000
162  -3.524757 -0.158732 2.253374  -0.000000 0.000000 -0.000000
163  2.334003 0.707038 -1.270973  -0.000000 -0.000000 -0.000002
164  1.863304 0.701074 1.852769  -0.000000 -0.000000 -0.000002
165  4.231739 0.701085 1.852773  -0.000000 0.000000 -0.000002
166  2.150998 0.701061 2.418449  -0.000000 -0.000000 -0.000002
167  2.150998 0.701061 2.418449  -0.000000 -0.000000 -0.000002
168  -0.330753 0.701102 0.679132  -0.000000 -0.000000 -0.000002
169  -0.088877 0.701098 0.628247  -0.000000 -0.000000 -0.000002
170  2.652809 0.701126 0.734565  -0.000000 0.000000 -0.000000
171  4.284690 1.256399 -0.335097  -0.246172 -0.000000 0.000000
172  0.537231 0.701077 1.449574  -0.000000 -0.000000 -0.000000
173  0.710313 -0.115726 1.631550  -0.000000 -0.000000 0.000000
174  5.406079 -0.069377 0.559535  -0.000000 0.000000 0.000000
175  2.003448 0.701140 -0.705946  0.001500 1.570816 0.001453
176  4.305311 0.631732 -1.075828  -0.000000 0.000000 -0.000000
177  -1.608977 -0.240795 -3.314951  -1.889055 -0.173617 -0.153946
178  7.882398 0.701139 0.483236  -0.000000 0.000000 -0.000002
179  0.610350 -0.939514 -0.070240  1.655396 0.140075 -0.175669
180  2.619621 0.000243 -0.000397  0.353105 0.390999 0.195781
181  1.867869 -0.000000 0.000523  -0.000048 0.000038 1.344606
182  0.919392 0.000395 0.000084  0.000059 -0.000015 0.500587
183  0.600420 0.399612 -0.000464  0.000000 -0.000000 -3.141593
184  1.200055 0.399975 -0.000161  0.009503 -0.016085 0.007159
185  0.000593 0.100351 0.000320  0.120023 0.021919 -0.209555
186  0.639955 -0.199135 -0.060172  1.665961 0.131392 -0.066411
187  2.659907 0.000768 0.000164  0.415603 0.005334 1.379213
188  2.008775 -0.000988 -0.000384  -0.000000 0.000000 1.230290
189  1.100363 0.000031 0.000476  0.000000 -0.000000 0.986026
190  0.000223 0.098997 -0.000206  0.018775 -0.010835 -0.239312
191  0.600130 1.080296 0.339423  1.755371 -0.191828 0.006533
192  2.199737 0.000578 -0.000119  0.397558 -0.127357 1.106815
193  1.180090 0.000413 0.000074  -0.000033 0.000080 0.786296
194  0.679451 -0.000834 0.000177  0.000055 -0.000027 0.908303
195  -0.000199 0.099623 0.000036  0.000061 0.000017 -0.314050
196  0.599941 0.959263 0.300105  0.174563 0.000003 0.000005
197  0.610202 0.400753 0.010061  1.761941 -0.015442 0.028092
198  2.560419 -0.000157 -0.000030  0.326545 -0.057014 1.327034
199  1.708752 0.000794 0.000204  0.000030 0.000053 1.029030
200  1.019824 0.000031 -0.000393  0.000055 -0.000026 0.862913
201  -0.000588 0.100140 0.000314  0.010946 -0.023140 -0.260782
202  0.630219 -0.689444 0.230485  -0.412986 -0.527555 -0.960812
203  2.099356 -0.000078 -0.000405  0.305300 -0.303302 0.910700
204  1.290619 0.000320 -0.000049  -0.012099 -0.070817 0.621360
205  0.599884 0.400210 0.000013  -0.000000 0.000000 3.141593
206  0.999455 -0.000206 1.209377  -0.000000 -0.000000 -0.000000
207  2.300245 -2.499297 0.600281  -0.892093 -0.221580 -0.527196
208  12.301414 -3.135071 -0.007034  1.948271 -0.016448 0.068365
209  2.762343 0.117121 1.523978  1.629508 0.064220 1.743864
210  7.228027 7.928248 -3.925966  2.328649 0.123431 -0.568436
211  0.650418 -0.547712 -0.092947  1.665878 0.131388 -0.112033
212  1.899441 -0.000328 -0.000151  -0.027334 0.033310 0.477851
213  0.657072 0.008417 -0.040376  1.665946 0.131363 0.000012
214  1.799664 -0.000310 -0.000228  -0.027418 0.033338 0.477840
215  1.799664 -0.000310 -0.000228  -0.027418 0.033338 0.477840
216  1.799664 -0.000310 -0.000228  -0.027418 0.033338 0.477840
217  0.665746 0.747242 0.029156  1.665859 0.131448 0.095008
218  1.900730 0.000627 -0.000072  -0.027396 0.033296 0.477832
219  5.999763 -0.000872 3.999917  -0.000013 -0.000000 -0.000008
220  13.354076 0.000033 0.000001  0.000000 -0.000000 -0.294094
221  3.116987 -0.000321 0.000001  -0.000000 0.000000 0.294094
222  3.512001 -3.547028 -1.066007  0.000000 1.570817 -0.000004
223  3.456001 -3.517028 1.169007  0.000000 1.570817 -0.000004
224  6.233023 -0.000025 0.000000  -0.000000 -0.000000 -0.000004
225  1.598007 -0.000000 0.000000  -0.000000 0.000000 -0.000000
226  -4.481018 -0.202001 -0.000001  -0.000000 0.000000 -0.000000
227  -5.517021 -0.291001 -0.001001  -0.000000 0.000000 0.000000
228  -0.171999 -0.105999 -0.902006  -1.570889 2.112368 0.007015
229  6.242146 -6.381061 -0.000212  -0.000000 -0.000000 -0.000000
230  4.531026 0.000011 0.000000  0.000000 0.000000 -0.000000
231  0.000000 -0.000000 0.000000  -0.000000 -0.000000 -0.000000
232  0.000001 0.000000 0.000000  0.000000 -0.000000 0.000006
233  -0.000002 -0.000000 0.000000  -0.000000 0.000000 -0.000002
234  4.000027 -6.500037 -0.000001  0.000000 -0.000003 0.000910
235  -6.500034 -0.000000 -0.000000  -0.001149 1.570817 -0.001149
236  16.380552 -2.065080 9.226234  -0.083889 -0.000000 0.000000
237  0.000000 -0.000000 0.000000  0.000000 -0.000000 0.000000
238  0.000000 0.000000 0.000000  0.000000 -0.000000 0.000000
239  0.106001 0.000000 -64.320366  0.000000 -0.000000 0.000000
240  0.000000 0.000000 0.000000  0.000000 -0.000000 0.000000
241  -2.963017 4.867027 3.421019  -1.570818 0.518071 -0.000003
242  -2.963017 -4.867027 3.421019  -1.570818 0.518071 -0.000003
243  -0.106001 0.000000 64.320366  0.000000 -0.000000 0.000000
time 1
0  0 0 0  0 0 0
1  0.000000 0.000000 0.000000  0.000000 -0.000000 -1.570796
2  0.000000 0.000000 0.000000  0.000000 -0.000000 0.000000
3  -0.106401 0.000000 0.000168  0.000000 -0.000000 0.000000
4  0.000000 -0.000000 0.000000  0.000000 -0.000000 0.000000
5  -0.904005 0.000000 -11.806068  0.000000 0.000000 0.000000
6  0.000000 0.000000 -14.314083  0.785054 -1.570775 0.785116
7  -0.000000 0.000000 -4.867027  -0.000000 -3.141593 0.013001
8  1.000094 -0.000004 -0.000004  0.000000 -0.000000 -0.000010
9  17.162611 0.000021 -0.000074  -0.000000 -0.000000 0.119216
10  17.749464 0.296171 0.000026  0.000000 -0.000000 -1.158977
11  5.413618 0.000323 0.000007  -0.000000 -0.000000 -0.518058
12  0.017883 0.299794 0.000001  -0.000001 0.000000 -0.059527
13  9.999944 -0.000055 -0.000043  0.000000 -0.000000 -0.000010
14  -0.000000 -0.000000 4.867027  -0.000000 -3.141593 0.013001
15  1.000093 -0.000005 -0.000005  0.000001 -0.000000 -0.000000
16  12.283586 1.581749 -4.696087  1.462278 -0.086716 0.090211
17  17.162615 0.000022 -0.000075  -0.000000 -0.000000 0.119216
18  17.749466 0.295914 0.000026  0.000001 -0.000000 -1.158978
19  5.413618 0.000328 0.000009  -0.000000 -0.000000 -0.518060
20  0.017881 0.299794 0.000001  -0.000002 -0.000000 -0.059546
21  9.499887 0.000447 -0.000042  0.000001 -0.000000 0.000002
22  3.533024 0.000000 0.000000  0.000000 0.000000 -0.000000
23  6.250034 0.000000 0.000000  0.000000 -0.000000 -0.000000
24  9.568155 2.329008 -1.942810  -1.526256 1.357191 -1.527255
25  5.784558 -0.000030 0.000177  -0.920179 0.339755 -1.469300
26  0.500226 0.000088 -0.000060  -0.000003 0.000001 0.000003
27  11.530225 -0.001400 0.000132  0.000050 0.000035 -1.221177
28  10.600073 -0.000006 -0.000626  -1.463581 0.000000 -0.000000
29  -1.145532 0.000104 0.000678  0.000000 0.000002 -0.000000
30  0.259933 -0.045215 0.109299  0.023276 0.042363 0.010826
31  3.999447 -0.000405 -0.000331  -0.731823 -0.000057 0.000022
32  0.119217 -0.275756 -0.000157  0.000004 -0.000020 0.409876
33  11.041295 -0.000005 -0.000640  -1.364486 0.043626 0.838419
34  0.610343 -0.939518 0.070246  -1.659840 -0.162230 -0.143479
35  2.619622 0.000198 0.000403  -0.239318 -0.608909 0.669023
36  1.856095 -0.004781 -0.005311  0.000000 -0.000000 0.939121
37  0.920014 -0.000306 -0.000411  0.000000 -0.000000 0.902004
38  0.599515 0.400686 0.000245  0.000000 0.000000 -0.000000
39  1.200447 0.398944 -0.000759  -0.009502 0.016094 0.007159
40  0.000108 0.099683 -0.000890  -0.120042 -0.021920 -0.209553
41  0.639958 -0.199138 0.060166  -1.670006 -0.168988 -0.036089
42  2.659573 0.000070 -0.000824  -0.547589 -0.359487 1.190181
43  2.008789 -0.000222 -0.000226  0.000038 0.000048 1.362620
44  1.099689 -0.000368 0.000142  -0.000000 0.000000 0.246110
45  0.000226 0.098995 0.000208  -0.018794 0.010832 -0.239299
46  0.600150 1.080289 -0.339432  -1.767169 0.116827 -0.008263
47  2.045288 0.197966 0.054568  -0.625196 0.156034 1.447546
48  1.179318 0.000276 -0.000711  -0.000056 0.000025 0.843943
49  0.680125 -0.001253 0.000447  -0.000000 0.000000 -0.053352
50  -0.000203 0.099623 -0.000037  -0.000040 0.000003 -0.314042
51  0.599395 0.958695 -0.300715  -0.174558 -0.000002 0.000011
52  0.609746 0.400183 -0.009381  -1.760061 -0.015756 0.060640
53  2.560418 -0.000127 0.000025  -0.529988 -0.156016 1.305779
54  1.708753 0.000751 -0.000178  -0.000051 0.000034 1.164086
55  1.020016 -0.000762 -0.000215  -0.000000 -0.000000 0.156780
56  0.000134 0.100439 0.000325  -0.010912 0.023137 -0.260793
57  0.597093 -0.602851 -0.033353  0.284792 0.454078 -0.882139
58  2.099458 0.000475 -0.000411  -0.219564 -0.132135 0.792326
59  1.290017 -0.000248 0.000598  -0.006463 -0.064282 -0.263028
60  0.599872 0.400223 -0.000033  -0.000000 -0.000000 0.000000
61  0.999552 0.000364 -1.210202  -0.000000 -0.000000 0.000000
62  2.299760 -2.499889 -0.599584  0.892089 0.221524 -0.527226
63  1.490282 -0.530349 -1.803599  2.260885 -0.234633 -0.301488
64  -9.579995 -27.860641 -37.185722  0.812952 -0.123458 -0.568431
65  0.649954 -0.548281 0.093625  -1.665880 -0.131380 -0.112048
66  1.899127 0.000393 -0.000434  0.027372 -0.033315 0.477854
67  0.657077 0.008415 0.040370  -1.665944 -0.131351 -0.000001
68  1.799665 -0.000336 0.000231  0.027403 -0.033320 0.477844
69  1.799665 -0.000336 0.000231  0.027403 -0.033320 0.477844
70  1.799665 -0.000336 0.000231  0.027403 -0.033320 0.477844
71  0.665756 0.747237 -0.029160  -1.665856 -0.131441 0.094997
72  1.900313 -0.000080 -0.000519  0.027386 -0.033290 0.477846
73  4.661995 -5.365794 4.825728  -1.564998 1.580234 0.027239
74  5.999701 -0.000878 -4.000021  0.000013 -0.000000 -0.000017
75  11.124654 10.512424 2.466312  1.152667 -1.547371 -1.152753
76  5.784557 -0.000013 -0.000273  0.845372 -0.725805 -1.359329
77  0.500225 0.000083 0.000060  -0.000001 -0.000000 -0.000001
78  11.529486 -0.001522 -0.000932  0.000045 -0.000042 -1.633439
79  10.600057 -0.000051 0.000605  0.000004 0.000004 0.000002
80  3.999898 0.000144 0.001001  0.051399 -0.000059 -0.000063
81  0.119675 -0.275193 0.000832  -0.000027 0.000008 0.409850
82  11.041278 -0.000048 0.000623  0.071854 0.317471 0.867942
83  12.301414 -3.135071 -0.007034  1.948271 -0.016448 0.068365
84  -10.524064 -0.701073 -0.521051  -0.000000 0.000000 0.000000
85  3.193001 0.701160 -1.254582  -0.000000 -0.000000 0.000000
86  1.645854 0.701073 1.852770  -0.000000 -0.000000 -0.000002
87  2.006027 0.700865 2.994858  -0.000000 -0.000000 -0.000002
88  7.259144 0.701129 0.735780  -0.000000 0.000000 -0.000002
89  2.443858 0.000041 -0.896182  -0.000000 0.000000 0.000011
90  1.682486 0.000036 -0.897117  -0.000000 0.000000 0.000011
91  -1.414002 2.039071 -3.052920  -1.508761 -0.228143 -0.252721
92  0.703519 0.000030 -0.896949  -0.000000 -0.000000 0.000001
93  2.146830 1.593651 -1.614782  -2.241442 0.087930 -0.369952
94  3.263895 1.753042 -1.226679  -1.926394 0.285192 -0.394113
95  3.639715 -1.008986 0.034572  1.570835 -0.000001 0.000006
96  5.032293 -1.008976 0.034573  1.570835 -0.000000 0.000008
97  8.696169 0.000027 1.283898  -0.000000 0.000000 -0.000000
98  8.696169 0.000027 1.283898  -0.000000 0.000000 -0.000000
99  10.392460 -0.000026 -0.093967  -0.000000 0.000000 -0.000000
100  10.392460 -0.000026 -0.093967  -0.000000 0.000000 -0.000000
101  1.203458 0.000008 0.000512  -0.000000 -0.000000 0.000001
102  8.426608 -0.000103 2.259499  -0.000000 0.000000 -0.000000
103  5.883065 0.081212 0.926991  -0.000005 -0.258097 -1.570797
104  6.513066 1.393490 0.708348  -0.000000 -0.000000 -0.000001
105  6.513066 1.393490 0.708348  -0.000000 -0.000000 -0.000001
106  2.804783 0.701079 1.852769  -0.000000 -0.000000 -0.000002
107  2.255213 0.701075 1.852771  -0.000000 -0.000000 -0.000002
108  1.086010 -0.660984 -0.149014  -0.000000 0.000000 0.000000
109  -2.112015 0.641942 1.495001  -0.000000 0.000000 0.000000
110  -2.112015 0.641942 1.495001  -0.000000 0.000000 0.000000
111  -2.112015 0.641942 1.495001  -0.000000 0.000000 0.000000
112  -2.112015 0.641942 1.495001  -0.000000 0.000000 0.000000
113  1.066997 0.589001 0.076015  -0.000000 0.000000 0.000000
114  -0.000000 -0.018999 -0.000000  -0.000000 0.000000 0.000000
115  -0.000000 -0.018999 -0.000000  -0.000000 0.000000 0.000000
116  3.300011 -0.019015 1.345993  -0.000000 0.000000 0.000000
117  -1.532000 -0.568494 -3.243711  -1.949180 -0.069607 0.009948
118  6.153621 0.701199 -2.047168  -0.000000 0.000000 -0.000002
119  -0.558628 -0.000119 0.946533  -0.000000 0.000000 0.000000
120  0.215623 -0.000046 1.415003  0.000000 -0.071612 0.000000
121  0.167190 0.092003 1.117431  -0.000000 -0.071612 0.000000
122  0.118561 -0.100436 0.855705  0.000000 -0.071612 -0.000000
123  0.077615 0.122695 0.637298  0.000000 -0.071612 0.000000
124  0.092015 -0.131106 0.436477  0.000000 -0.071612 -0.000000
125  0.003281 0.142046 0.256783  -0.000000 -0.071612 -0.000000
126  -0.029925 -0.132905 0.083271  0.000000 -0.071612 -0.000000
127  -0.052485 0.142054 -0.063858  0.000000 -0.071612 0.000000
128  -0.093055 -0.132897 -0.238246  -0.000000 -0.071612 0.000000
129  -0.112278 0.142063 -0.385646  -0.000000 -0.071612 -0.000000
130  -0.148588 -0.132888 -0.559855  -0.000000 -0.071612 -0.000000
131  -0.189957 0.142073 -0.706519  -0.000000 -0.071612 0.000000
132  -0.211962 -0.132878 -0.881186  -0.000000 -0.071612 -0.000000
133  -0.248653 0.142081 -1.028471  0.000000 -0.071612 -0.000000
134  -0.274849 -0.132870 -1.202109  0.000000 -0.071612 -0.000000
135  -0.316169 0.142089 -1.349439  0.000000 -0.071612 -0.000000
136  -0.352939 -0.132862 -1.523740  0.000000 -0.071612 0.000000
137  -0.386291 0.142097 -1.670598  -0.000000 -0.071612 -0.000000
138  -0.419607 -0.132854 -1.844793  -0.000000 -0.071612 -0.000000
139  -0.445621 0.142105 -1.991552  -0.000000 -0.071612 0.000000
140  -0.904150 0.000426 -4.267797  -0.000000 -0.000000 0.000000
141  -1195.976562 -0.000105 0.946529  -0.000000 0.000000 0.000000
142  0.215692 -0.000046 1.415003  -0.000000 -0.071612 -0.000000
143  0.180545 0.092017 0.732031  -0.000000 -0.071612 -0.000000
144  0.118528 -0.100436 0.855704  -0.000000 -0.071612 -0.000000
145  0.077642 0.122694 0.637298  -0.000000 -0.071612 -0.000000
146  0.092043 -0.131106 0.436477  0.000000 -0.071612 -0.000000
147  0.003305 0.142046 0.256782  -0.000000 -0.071612 -0.000000
148  -0.029901 -0.132905 0.083271  0.000000 -0.071612 -0.000000
149  -0.052477 0.142054 -0.063858  -0.000000 -0.071612 -0.000000
150  -0.093008 -0.132897 -0.238247  -0.000000 -0.071612 -0.000000
151  -0.112288 0.142063 -0.385646  -0.000000 -0.071612 -0.000000
152  -0.148547 -0.132889 -0.559856  -0.000000 -0.071549 0.000000
153  -0.189922 0.142073 -0.706519  -0.000000 -0.071549 0.000000
154  -0.211898 -0.132878 -0.881186  -0.000000 -0.071549 0.000000
155  -0.248634 0.142081 -1.028471  -0.000000 -0.071549 0.000000
156  -0.274883 -0.132870 -1.202109  -0.000000 -0.071549 0.000000
157  -0.316135 0.142089 -1.349440  -0.000000 -0.071549 0.000000
158  -0.352882 -0.132862 -1.523740  -0.000000 -0.071549 0.000000
159  -0.386322 0.142097 -1.670599  -0.000000 -0.071549 0.000000
160  -0.419651 -0.132854 -1.844792  -0.000000 -0.071549 0.000000
161  -0.445645 0.142105 -1.991552  -0.000000 -0.071549 0.000000
162  -3.524757 -0.158732 2.253374  -0.000000 0.000000 -0.000000
163  2.334003 0.707038 -1.270973  -0.000000 -0.000000 -0.000002
164  1.863304 0.701074 1.852769  -0.000000 -0.000000 -0.000002
165  4.231739 0.701085 1.852773  -0.000000 0.000000 -0.000002
166  2.150998 0.701061 2.418449  -0.000000 -0.000000 -0.000002
167  2.150998 0.701061 2.418449  -0.000000 -0.000000 -0.000002
168  -0.330753 0.701102 0.679132  -0.000000 -0.000000 -0.000002
169  -0.088877 0.701098 0.628247  -0.000000 -0.000000 -0.000002
170  2.652809 0.701126 0.734565  -0.000000 0.000000 -0.000000
171  4.284690 1.256399 -0.335097  -0.246172 -0.000000 0.000000
172  0.537231 0.701077 1.449574  -0.000000 -0.000000 -0.000000
173  0.710313 -0.115726 1.631550  -0.000000 -0.000000 0.000000
174  5.406079 -0.069377 0.559535  -0.000000 0.000000 0.000000
175  2.003448 0.701140 -0.705946  0.001500 1.570816 0.001453
176  4.305311 0.631732 -1.075828  -0.000000 0.000000 -0.000000
177  -1.608977 -0.240795 -3.314951  -1.889055 -0.173617 -0.153946
178  7.882398 0.701139 0.483236  -0.000000 0.000000 -0.000002
179  0.610350 -0.939514 -0.070240  1.655396 0.140075 -0.175669
180  2.619621 0.000243 -0.000397  0.353105 0.390999 0.195781
181  1.867869 -0.000000 0.000523  -0.000048 0.000038 1.344606
182  0.919392 0.000395 0.000084  0.000059 -0.000015 0.500587
183  0.600420 0.399612 -0.000464  0.000000 -0.000000 -3.141593
184  1.200055 0.399975 -0.000161  0.009503 -0.016085 0.007159
185  0.000593 0.100351 0.000320  0.120023 0.021919 -0.209555
186  0.639955 -0.199135 -0.060172  1.665961 0.131392 -0.066411
187  2.659907 0.000768 0.000164  0.415603 0.005334 1.379213
188  2.008775 -0.000988 -0.000384  -0.000000 0.000000 1.230290
189  1.100363 0.000031 0.000476  0.000000 -0.000000 0.986026
190  0.000223 0.098997 -0.000206  0.018775 -0.010835 -0.239312
191  0.600130 1.080296 0.339423  1.755371 -0.191828 0.006533
192  2.199737 0.000578 -0.000119  0.397558 -0.127357 1.106815
193  1.180090 0.000413 0.000074  -0.000033 0.000080 0.786296
194  0.679451 -0.000834 0.000177  0.000055 -0.000027 0.908303
195  -0.000199 0.099623 0.000036  0.000061 0.000017 -0.314050
196  0.599941 0.959263 0.300105  0.174563 0.000003 0.000005
197  0.610202 0.400753 0.010061  1.761941 -0.015442 0.028092
198  2.560419 -0.000157 -0.000030  0.326545 -0.057014 1.327034
199  1.708752 0.000794 0.000204  0.000030 0.000053 1.029030
200  1.019824 0.000031 -0.000393  0.000055 -0.000026 0.862913
201  -0.000588 0.100140 0.000314  0.010946 -0.023140 -0.260782
202  0.630219 -0.689444 0.230485  -0.412986 -0.527555 -0.960812
203  2.099356 -0.000078 -0.000405  0.305300 -0.303302 0.910700
204  1.290619 0.000320 -0.000049  -0.012099 -0.070817 0.621360
205  0.599884 0.400210 0.000013  -0.000000 0.000000 3.141593
206  0.999455 -0.000206 1.209377  -0.000000 -0.000000 -0.000000
207  2.300245 -2.499297 0.600281  -0.892093 -0.221580 -0.527196
208  12.301414 -3.135071 -0.007034  1.948271 -0.016448 0.068365
209  2.762343 0.117121 1.523978  1.629508 0.064220 1.743864
210  7.228027 7.928248 -3.925966  2.328649 0.123431 -0.568436
211  0.650418 -0.547712 -0.092947  1.665878 0.131388 -0.112033
212  1.899441 -0.000328 -0.000151  -0.027334 0.033310 0.477851
213  0.657072 0.008417 -0.040376  1.665946 0.131363 0.000012
214  1.799664 -0.000310 -0.000228  -0.027418 0.033338 0.477840
215  1.799664 -0.000310 -0.000228  -0.027418 0.033338 0.477840
216  1.799664 -0.000310 -0.000228  -0.027418 0.033338 0.477840
217  0.665746 0.747242 0.029156  1.665859 0.131448 0.095008
218  1.900730 0.000627 -0.000072  -0.027396 0.033296 0.477832
219  5.999763 -0.000872 3.999917  -0.000013 -0.000000 -0.000008
220  13.354076 0.000033 0.000001  0.000000 -0.000000 -0.294094
221  3.116987 -0.000321 0.000001  -0.000000 0.000000 0.294094
222  3.512001 -3.547028 -1.066007  0.000000 1.570817 -0.000004
223  3.456001 -3.517028 1.169007  0.000000 1.570817 -0.000004
224  6.233023 -0.000025 0.000000  -0.000000 -0.000000 -0.000004
225  1.598007 -0.000000 0.000000  -0.000000 0.000000 -0.000000
226  -4.481018 -0.202001 -0.000001  -0.000000 0.000000 -0.000000
227  -5.517021 -0.291001 -0.001001  -0.000000 0.000000 0.000000
228  -0.171999 -0.105999 -0.902006  -1.570889 2.112368 0.007015
229  6.242146 -6.381061 -0.000212  -0.000000 -0.000000 -0.000000
230  4.531026 0.000011 0.000000  0.000000 0.000000 -0.000000
231  0.000000 -0.000000 0.000000  -0.000000 -0.000000 -0.000000
232  0.000001 0.000000 0.000000  0.000000 -0.000000 0.000006
233  -0.000002 -0.000000 0.000000  -0.000000 0.000000 -0.000002
234  4.000027 -6.500037 -0.000001  0.000000 -0.000003 0.000910
235  -6.500034 -0.000000 -0.000000  -0.001149 1.570817 -0.001149
236  16.380552 -2.065080 9.226234  -0.083889 -0.000000 0.000000
237  0.000000 -0.000000 0.000000  0.000000 -0.000000 0.000000
238  0.000000 0.000000 0.000000  0.000000 -0.000000 0.000000
239  0.106001 0.000000 -64.320366  0.000000 -0.000000 0.000000
240  0.000000 0.000000 0.000000  0.000000 -0.000000 0.000000
241  -2.963017 4.867027 3.421019  -1.570818 0.518071 -0.000003
242  -2.963017 -4.867027 3.421019  -1.570818 0.518071 -0.000003
243  -0.106001 0.000000 64.320366  0.000000 -0.000000 0.000000
end
