// Created by Crowbar 0.74
version 1
nodes
  0 "tag_origin" -1
  1 "tag_view" 0
  2 "tag_ads" 1
  3 "tag_torso" 2
  4 "j_mainroot" 3
  5 "j_spinelower" 4
  6 "j_spineupper" 5
  7 "j_clavicle_le" 6
  8 "j_clavicle_ri" 6
  9 "j_shoulder_le" 7
  10 "j_teres_le" 7
  11 "j_shoulder_ri" 8
  12 "j_teres_ri" 8
  13 "j_shouldertwist_le" 9
  14 "j_elbow_le" 9
  15 "ValveBiped.Bip01_L_UpperArm" 9
  16 "j_shouldertwist_ri" 11
  17 "j_elbow_ri" 11
  18 "ValveBiped.Bip01_R_UpperArm" 11
  19 "j_wristfronttwist1_le" 14
  20 "j_elbowdq_le" 14
  21 "j_wrist_le" 14
  22 "ValveBiped.Bip01_L_Forearm" 14
  23 "j_wristfronttwist1_ri" 17
  24 "j_elbowdq_ri" 17
  25 "j_wrist_ri" 17
  26 "ValveBiped.Bip01_R_Forearm" 17
  27 "j_metaindex_le_1" 21
  28 "j_metamid_le_1" 21
  29 "j_metapinky_le_1" 21
  30 "j_metaring_le_1" 21
  31 "j_thumb_le_1" 21
  32 "ValveBiped.Bip01_L_Hand" 21
  33 "j_metaindex_ri_1" 25
  34 "j_metamid_ri_1" 25
  35 "j_metapinky_ri_1" 25
  36 "j_metaring_ri_1" 25
  37 "j_thumb_ri_1" 25
  38 "ValveBiped.Bip01_R_Hand" 25
  39 "j_index_le_1" 27
  40 "j_mid_le_1" 28
  41 "j_pinky_le_1" 29
  42 "j_webbing_le_3" 29
  43 "j_ring_le_1" 30
  44 "j_thumb_le_2" 31
  45 "j_webbing_le_2" 31
  46 "ValveBiped.Bip01_L_Finger0" 31
  47 "j_index_ri_1" 33
  48 "j_mid_ri_1" 34
  49 "j_pinky_ri_1" 35
  50 "j_webbing_ri_3" 35
  51 "j_ring_ri_1" 36
  52 "j_thumb_ri_2" 37
  53 "j_webbing_ri_2" 37
  54 "ValveBiped.Bip01_R_Finger0" 37
  55 "j_index_le_2" 39
  56 "j_indexbulge_le_1" 39
  57 "j_proc_index_le_1" 39
  58 "ValveBiped.Bip01_L_Finger1" 39
  59 "j_mid_le_2" 40
  60 "j_proc_mid_le_1" 40
  61 "ValveBiped.Bip01_L_Finger2" 40
  62 "j_pinky_le_2" 41
  63 "j_proc_pinky_le_1" 41
  64 "ValveBiped.Bip01_L_Finger4" 41
  65 "j_ring_le_2" 43
  66 "j_proc_ring_le_1" 43
  67 "ValveBiped.Bip01_L_Finger3" 43
  68 "j_thumb_le_3" 44
  69 "ValveBiped.Bip01_L_Finger01" 44
  70 "j_index_ri_2" 47
  71 "j_indexbulge_ri_1" 47
  72 "j_proc_index_ri_1" 47
  73 "ValveBiped.Bip01_R_Finger1" 47
  74 "j_mid_ri_2" 48
  75 "j_proc_mid_ri_1" 48
  76 "ValveBiped.Bip01_R_Finger2" 48
  77 "j_pinky_ri_2" 49
  78 "j_proc_pinky_ri_1" 49
  79 "ValveBiped.Bip01_R_Finger4" 49
  80 "j_ring_ri_2" 51
  81 "j_proc_ring_ri_1" 51
  82 "ValveBiped.Bip01_R_Finger3" 51
  83 "j_thumb_ri_3" 52
  84 "ValveBiped.Bip01_R_Finger01" 52
  85 "j_index_le_3" 55
  86 "ValveBiped.Bip01_L_Finger11" 55
  87 "j_mid_le_3" 59
  88 "ValveBiped.Bip01_L_Finger21" 59
  89 "j_pinky_le_3" 62
  90 "ValveBiped.Bip01_L_Finger41" 62
  91 "j_ring_le_3" 65
  92 "ValveBiped.Bip01_L_Finger31" 65
  93 "ValveBiped.Bip01_L_Finger02" 68
  94 "j_index_ri_3" 70
  95 "ValveBiped.Bip01_R_Finger11" 70
  96 "j_mid_ri_3" 74
  97 "ValveBiped.Bip01_R_Finger21" 74
  98 "j_pinky_ri_3" 77
  99 "ValveBiped.Bip01_R_Finger41" 77
  100 "j_ring_ri_3" 80
  101 "ValveBiped.Bip01_R_Finger31" 80
  102 "ValveBiped.Bip01_R_Finger02" 83
  103 "ValveBiped.Bip01_L_Finger12" 85
  104 "ValveBiped.Bip01_L_Finger22" 87
  105 "ValveBiped.Bip01_L_Finger42" 89
  106 "ValveBiped.Bip01_L_Finger32" 91
  107 "ValveBiped.Bip01_R_Finger12" 94
  108 "ValveBiped.Bip01_R_Finger22" 96
  109 "ValveBiped.Bip01_R_Finger42" 98
  110 "ValveBiped.Bip01_R_Finger32" 100
  111 "ValveBiped.Anim_Attachment_RH" -1
  112 "tag_sling" 111
  113 "j_gun" -1
  114 "j_trigger" 112
  115 "tag_acog_2" 112
  116 "tag_barrel_attach" 112
  117 "tag_brass" 112
  118 "tag_cosmetic" 112
  119 "tag_holo" 112
  120 "tag_hybrid" 112
  121 "tag_ik_loc_ri" 112
  122 "tag_mag_attach" 112
  123 "tag_pistolgrip_attach" 112
  124 "tag_reflex" 112
  125 "tag_scope" 112
  126 "tag_sight_on" 112
  127 "tag_stock_attach" 112
  128 "tag_reticle_attach2" 120
  129 "tag_glass_hip2" 120
  130 "tag_glass_ads2" 120
  131 "j_magnifier_lever" 120
  132 "j_hybrid_scope" 120
  133 "tag_grip_hide" 116
  134 "j_magrel" 112
  135 "tag_folding_grip" 116
  136 "tag_grip_attach" 116
  137 "tag_ik_loc_le" 116
  138 "tag_laser_attach" 116
  139 "tag_silencer" 116
  140 "tag_tip" 116
  141 "tag_flash" 140
  142 "j_mag1" 122
  143 "tag_camera_scripted" 0
  144 "j_mag_follower" 142
  145 "j_mag2" 122
  146 "tag_cambone" -1
  147 "tag_camera" 146
  148 "tag_playerhelmet" 147
  149 "tag_attachments" 112
  150 "tag_weapon" -1
  151 "j_bullet2" 142
  152 "j_safety" 149
  153 "tag_sync" 0
  154 "j_hip_le" 4
  155 "j_hiptwist_le" 154
  156 "j_knee_le" 154
  157 "j_ankle_le" 156
  158 "j_ball_le" 157
  159 "j_kneedq_le" 156
  160 "j_hip_proc_le" 154
  161 "j_hip_ri" 4
  162 "j_hiptwist_ri" 161
  163 "tag_stowed_thigh" 162
  164 "j_knee_ri" 161
  165 "j_ankle_ri" 164
  166 "j_ball_ri" 165
  167 "j_kneedq_ri" 164
  168 "j_hip_proc_ri" 161
  169 "j_proc_wristfronttwist1_le" 19
  170 "tag_wrist_attach_le" 169
  171 "j_shield_le" 14
  172 "j_index_le_4" 85
  173 "j_thumb_le_4" 68
  174 "j_webbing_le_1" 21
  175 "tag_weapon_left" 21
  176 "tag_accessory_left" 21
  177 "j_proc_metaindex_le_1" 21
  178 "j_proc_metaindex_le_2" 177
  179 "j_proc_metaknuckle_le_1" 21
  180 "j_proc_knuckle_le_1" 179
  181 "j_proc_idle_knuckle_le_1" 179
  182 "j_proc_orient_knuckle_le_1" 179
  183 "j_proc_metapinky_le_1" 21
  184 "j_proc_metapinky_le_2" 183
  185 "tag_carry_attach" 7
  186 "j_shield_ri" 17
  187 "j_index_ri_4" 94
  188 "j_thumb_ri_4" 83
  189 "j_webbing_ri_1" 25
  190 "tag_weapon_right" 25
  191 "tag_knife_attach2" 25
  192 "tag_accessory_right" 25
  193 "j_proc_metaindex_ri_1" 25
  194 "j_proc_metaindex_ri_2" 193
  195 "j_proc_metaknuckle_ri_1" 25
  196 "j_proc_knuckle_ri_1" 195
  197 "j_proc_idle_knuckle_ri_1" 195
  198 "j_proc_orient_knuckle_ri_1" 195
  199 "j_proc_metapinky_ri_1" 25
  200 "j_proc_metapinky_ri_2" 199
  201 "j_neck" 6
  202 "j_head" 201
  203 "j_eyeball_le" 202
  204 "j_eyeball_ri" 202
  205 "j_head_end" 202
  206 "j_helmet" 205
  207 "j_visor" 206
  208 "j_visor_inner" 206
  209 "j_jaw" 202
  210 "j_nvg" 202
  211 "j_spine4" 6
  212 "j_chest" 211
  213 "j_proc_spineupper" 6
  214 "j_proc_spinelower" 5
  215 "j_groinprotector" 4
  216 "j_crotch" 4
  217 "tag_player" 147
  218 "j_barrel" 112
  219 "j_firesel" 112
  220 "j_ejectioncover" 112
  221 "j_charginghandleassistright" 112
  222 "j_charginghandle" 112
  223 "j_boltrel" 112
  224 "j_bolt" 112
  225 "j_ammo_02" 142
  226 "j_ammo_03" 142
  227 "j_ammo_04" 142
  228 "j_ammo_05" 142
  229 "j_ammo_06" 142
  230 "j_ammo_07" 142
  231 "j_ammo_08" 142
  232 "j_ammo_09" 142
  233 "j_ammo_10" 142
  234 "j_ammo_11" 142
  235 "j_ammo_12" 142
  236 "j_ammo_13" 142
  237 "j_ammo_14" 142
  238 "j_ammo_15" 142
  239 "j_ammo_16" 142
  240 "j_ammo_17" 142
  241 "j_ammo_18" 142
  242 "j_ammo_19" 142
  243 "j_ammo_20" 142
  244 "j_ammo_21" 142
  245 "j_ammo_22" 142
  246 "j_ammo_23" 142
  247 "j_ammo_24" 142
  248 "j_ammo_25" 142
  249 "j_ammo_26" 142
  250 "j_ammo_27" 142
  251 "j_ammo_28" 142
  252 "j_ammo_29" 142
  253 "j_ammo_30" 142
  254 "j_ammo_01" 122
end
skeleton
  time 0
    0 0.000000 0.000000 0.000000 0.000000 0.000000 -1.570796
    1 -0.106689 -0.000001 -0.000351 0.000000 0.000000 0.000000
    2 0.000000 0.000000 0.000000 0.000000 0.000000 0.000000
    3 -0.904000 0.000000 -11.806000 0.000000 0.000000 0.000000
    4 0.000000 0.000000 -14.313999 1.570790 -1.570787 0.000000
    5 3.533001 0.000000 0.000000 0.000046 0.000000 0.000000
    6 6.250000 0.000000 0.000000 0.000000 0.000000 0.000000
    7 9.562500 1.947266 -1.984375 -0.161230 1.437156 -0.160063
    8 9.562500 1.947266 1.984375 0.098327 -1.350387 -0.096200
    9 5.777344 -0.000004 0.000010 0.592098 1.011001 0.204648
    10 5.999492 -0.000592 -4.000343 0.000000 0.000000 0.000000
    11 5.781250 0.000003 -0.000020 1.004066 -1.170687 -0.991558
    12 5.999492 -0.000592 4.000332 0.000000 0.000000 0.000000
    13 0.500225 0.000133 -0.000092 0.000000 0.000000 0.000000
    14 11.523438 0.000000 0.000012 -0.000046 0.000037 -1.771552
    15 -0.829338 0.893824 0.079659 -0.148839 0.047645 0.087266
    16 0.500225 0.000132 0.000076 0.000000 0.000000 0.000000
    17 11.523438 0.000010 -0.000030 -0.000037 -0.000046 -1.776095
    18 -0.829586 0.894698 -0.079464 0.045377 -0.019621 0.087266
    19 10.599890 0.000105 -0.000549 0.523598 0.000000 0.000000
    20 0.119667 -0.275181 -0.000805 0.000000 0.000000 0.409860
    21 11.039063 0.000008 -0.000008 0.613914 -0.212642 -0.358973
    22 -1.213867 0.424561 -0.298096 0.247996 -0.066119 -0.042693
    23 10.599880 0.000105 0.000549 0.000000 0.000000 0.000000
    24 0.119663 -0.275181 0.000805 0.000000 0.000000 0.409858
    25 11.039063 -0.000006 0.000034 0.125874 0.117621 -0.543797
    26 -1.062500 0.094788 0.141113 -0.068590 0.018526 -0.015099
    27 0.610304 -0.939470 0.070339 -1.655303 -0.140108 -0.175627
    28 0.639942 -0.199121 0.060184 -1.666050 -0.131433 -0.066359
    29 0.600155 1.080260 -0.339535 -1.738085 0.020770 0.107417
    30 0.610209 0.400743 -0.010105 -1.762380 -0.061627 0.042970
    31 0.629883 -0.689941 -0.229980 0.562813 0.491667 -0.748656
    32 -0.792123 0.203735 0.461300 1.439074 -0.003453 -0.018305
    33 0.610299 -0.939469 -0.070354 1.655295 0.140103 -0.175544
    34 0.639938 -0.199121 -0.060200 1.665864 0.131386 -0.066416
    35 0.600156 1.080259 0.339531 1.741497 -0.204015 0.076003
    36 0.610205 0.400743 0.010086 1.761926 -0.015441 0.028091
    37 0.629883 -0.689453 0.229980 -1.014620 -0.861510 -0.665849
    38 -0.626031 -0.069983 -0.080517 -1.447153 0.086151 0.021559
    39 2.619141 0.000073 -0.000002 -0.115103 -0.159829 1.246683
    40 2.658203 0.000003 0.000002 -0.121158 -0.047914 1.400155
    41 2.199219 0.000000 -0.000006 -0.093310 0.106594 1.536109
    42 0.599950 0.959240 -0.300102 -0.174544 0.000000 0.000000
    43 2.556641 0.000000 -0.000002 -0.090602 -0.013394 1.443577
    44 2.099609 0.000041 -0.000002 -0.259655 0.312330 0.494574
    45 0.999378 -0.000234 -1.209370 -0.000001 0.000000 0.000000
    46 -0.122639 -0.721856 0.661690 -0.486645 0.223964 0.243056
    47 2.619141 0.000072 0.000012 -0.053000 0.086821 -0.048140
    48 2.656250 0.000004 0.000002 0.200358 0.214735 1.264827
    49 2.199219 -0.000005 0.000003 0.236802 0.017718 1.474219
    50 0.599951 0.959244 0.300102 0.174544 0.000000 0.000000
    51 2.558594 0.000010 0.000002 0.236734 0.177130 1.399555
    52 2.097656 0.000039 0.000004 0.124814 -0.418731 0.877105
    53 0.999374 -0.000237 1.209366 0.000000 0.000000 0.000001
    54 0.310844 -0.606444 -0.498005 0.308107 -0.197598 0.313976
    55 1.867188 0.000006 0.000002 0.000165 -0.000041 2.058791
    56 1.200941 0.399582 -0.000237 -0.009465 0.016087 0.007127
    57 0.000584 0.100342 -0.000319 -0.120035 -0.021926 -0.209617
    58 -0.161663 0.051712 0.194808 -2.941982 0.122408 -0.060194
    59 2.007813 0.000000 0.000000 0.000082 -0.000018 1.999814
    60 0.000244 0.099804 -0.000395 -0.018823 0.010833 -0.239219
    61 -0.203197 0.048607 0.069150 -3.093332 0.033217 -0.046723
    62 1.179688 0.000006 0.000006 0.000039 0.000045 1.422042
    63 -0.000195 0.099621 -0.000034 0.000000 0.000000 -0.314102
    64 -0.088739 -0.688438 -0.145203 2.930407 -0.136130 0.513012
    65 1.708984 0.000000 -0.000004 -0.000084 0.000001 1.594255
    66 -0.000584 0.100147 -0.000311 -0.010912 0.023131 -0.260841
    67 -0.146030 -0.232424 -0.014225 3.028455 -0.094299 0.113019
    68 1.290630 0.000362 -0.000031 -0.014903 0.077179 0.498015
    69 -0.658121 -0.003575 0.072643 -0.142711 0.027792 -0.077299
    70 1.867188 0.000002 0.000002 0.000000 0.000000 0.085658
    71 1.200081 0.399944 -0.000093 0.009465 -0.016087 0.007127
    72 0.000595 0.100342 0.000319 0.120035 0.021926 -0.209617
    73 0.068083 0.002285 -0.080050 3.111376 -0.069366 -0.060847
    74 2.007813 0.000003 0.000004 -0.000085 -0.000007 1.379093
    75 0.000229 0.099804 0.000395 0.018823 -0.010833 -0.239219
    76 -0.018669 -0.001009 0.047544 3.109244 0.002635 -0.106673
    77 1.178663 0.001591 0.000845 0.000000 0.000000 0.743918
    78 -0.000202 0.099625 0.000034 0.000000 0.000000 -0.314101
    79 0.036892 -0.634453 0.266284 -2.801062 0.174301 0.490914
    80 1.708984 0.000002 0.000000 0.000000 0.000000 1.160721
    81 -0.000572 0.100136 0.000311 0.010908 -0.023132 -0.260843
    82 -0.003948 -0.281811 0.115047 -3.059162 0.089004 0.167963
    83 1.289063 0.000000 -0.000002 0.000000 0.000000 0.672730
    84 -0.171528 -0.018148 -0.099876 0.013484 -0.062184 -0.011780
    85 0.919922 0.000073 -0.000029 0.000017 -0.000085 1.177776
    86 -0.342617 0.053406 -0.025571 -2.909301 -0.017248 0.075276
    87 1.098633 0.000019 -0.000013 -0.000083 -0.000025 0.987467
    88 -0.384983 0.330997 0.006848 -3.087207 -0.018765 -0.184279
    89 0.679199 -0.000002 -0.000004 -0.000018 -0.000082 1.996342
    90 -0.123848 0.072738 0.029507 2.898184 -0.060627 0.094834
    91 1.017162 -0.000154 -0.000252 -0.000005 0.000083 1.458580
    92 -0.344990 0.123127 0.143151 2.994981 0.012396 0.059140
    93 -0.730986 0.177045 0.039143 -0.123731 0.076518 -0.084310
    94 0.919434 0.000066 0.000026 0.000000 0.000000 0.056829
    95 -0.124031 -0.052092 0.038495 3.077813 -0.008519 0.039229
    96 1.098633 0.000017 0.000012 0.000016 0.000059 0.545757
    97 -0.330078 0.160644 0.042780 3.128073 0.034033 -0.171237
    98 0.679688 0.000005 0.000001 0.000000 0.000000 0.674856
    99 -0.019520 -0.016532 0.038578 -2.763781 0.050305 0.076828
    100 1.019531 -0.000002 0.000000 0.000000 0.000000 0.497056
    101 -0.155312 0.130642 -0.021921 -3.022466 0.022433 -0.024903
    102 -0.252205 0.061937 -0.024914 -0.007671 -0.063171 -0.044392
    103 -0.085991 0.185201 -0.015180 -2.937063 -0.113970 -0.138992
    104 -0.286541 0.179852 0.024264 -3.109353 -0.049645 -0.029915
    105 -0.019489 0.147084 0.079203 2.893815 0.038585 -0.060594
    106 -0.046482 0.251900 0.129548 3.016165 0.077112 -0.042864
    107 0.039116 -0.040298 0.047738 3.084219 0.030470 -0.037413
    108 -0.233757 0.066630 0.001753 -3.133087 0.040141 -0.065413
    109 0.044262 0.020131 0.001683 -2.778763 -0.118872 -0.040489
    110 0.071491 0.074128 -0.048302 -3.035917 -0.059482 0.104366
    111 0.000000 0.000000 0.000000 0.000000 0.000000 -1.570796
    112 7.281250 -8.421875 -6.542969 -0.022391 -1.052330 0.089467
    113 -14.000000 5.660156 -22.406250 -1.339794 -1.403021 0.574595
    114 3.095703 0.000002 -1.995117 0.000005 -0.159230 -0.000062
    115 3.039063 -0.000002 1.201172 0.000000 0.000000 0.000000
    116 7.851563 -0.000001 -0.041992 0.000000 0.000000 0.000000
    117 5.687500 -0.364990 0.067993 -0.000001 -0.349024 -1.570791
    118 6.394531 0.613770 0.427979 0.000000 0.000000 0.000000
    119 3.039063 -0.000002 1.201172 0.000000 0.000000 0.000000
    120 3.718750 -0.000001 1.201172 0.000000 0.000000 0.000000
    121 -1.522461 -1.858398 -4.363281 -1.730301 -0.014917 0.208087
    122 7.281250 0.000002 -2.193359 0.000000 0.000000 0.000000
    123 0.477783 0.000003 -4.535156 0.000000 0.000000 0.000000
    124 3.435547 -0.000002 1.201172 0.000000 0.000000 0.000000
    125 3.039063 -0.000002 1.201172 0.000000 0.000000 0.000000
    126 4.656250 -0.000002 1.544922 0.000000 0.000000 0.000000
    127 -0.402832 0.000001 -0.011002 0.000000 0.000000 0.000000
    128 3.298828 -0.018997 1.345703 0.000000 0.000000 0.000000
    129 0.000000 -0.018997 0.000000 0.000000 0.000000 0.000000
    130 0.000000 -0.018997 0.000000 0.000000 0.000000 0.000000
    131 1.066406 0.588867 0.075989 0.000000 0.000000 0.000000
    132 1.085938 -0.660645 -0.148926 0.000000 0.000000 0.000000
    133 6.070313 -0.000001 -1.237305 0.000000 0.000000 0.000000
    134 4.433594 0.594727 -0.953613 0.000000 0.000000 0.000000
    135 3.455078 -0.000134 -1.083984 0.000000 0.000000 0.000000
    136 7.097656 -0.000273 -1.083984 0.000000 0.000000 0.000000
    137 -16.515625 19.218750 -5.019531 -0.960691 0.677787 -0.634730
    138 3.738281 -0.000144 1.272461 0.000000 0.000000 0.000000
    139 11.953125 -0.000458 -0.006008 0.000000 0.000000 0.000000
    140 11.953125 -0.000033 -0.006001 0.000000 0.000000 0.000000
    141 1.148438 -0.000465 -0.000006 0.000000 0.000000 0.000000
    142 -1.322266 -0.000001 0.183960 0.000000 0.000000 0.000000
    143 -0.105957 0.000000 64.312500 0.000000 0.000000 0.000000
    144 0.081970 -0.000003 1.001953 0.000000 0.000000 0.000000
    145 -19.531250 5.875000 -60.687500 0.043644 0.000000 0.000000
    146 -0.000001 0.106689 -0.000351 0.000000 0.000000 -1.570796
    147 0.000000 0.000000 0.000000 0.000000 0.001221 0.000000
    148 0.000000 0.000000 0.000000 0.000000 0.000000 0.000000
    149 0.000000 0.000000 0.000000 0.000000 0.000000 0.000000
    150 -7.945313 -12.750000 2.291016 -0.022391 -1.052330 -1.481330
    151 -0.091980 0.204956 0.703613 -3.139640 0.000000 0.000000
    152 1.692383 -0.556641 -1.407227 0.000000 0.000000 0.000000
    153 0.000000 0.000000 0.000000 0.000000 0.000000 0.000000
    154 0.000000 0.000000 -4.863281 3.141576 0.004237 -3.128594
    155 1.000000 -0.000029 0.000000 0.000000 0.000000 0.000000
    156 17.156250 -0.000404 0.000000 0.000000 0.000000 0.119213
    157 17.734375 0.295410 0.000000 0.000000 0.000000 -1.158974
    158 5.410156 0.000347 0.000000 0.000000 0.000000 -0.518055
    159 0.017883 0.299561 0.000000 0.000000 0.000000 -0.059583
    160 9.992188 -0.000303 0.000000 0.000000 0.000000 0.000000
    161 0.000000 0.000000 4.863281 3.141519 -0.004237 -3.128594
    162 1.000000 -0.000029 0.000000 0.000000 0.000000 0.000000
    163 12.281250 1.581055 -4.695313 1.462267 -0.086725 0.090185
    164 17.156250 -0.000404 0.000000 0.000000 0.000000 0.119213
    165 17.734375 0.295410 0.000000 0.000000 0.000000 -1.158974
    166 5.410156 0.000343 0.000000 0.000000 0.000000 -0.518055
    167 0.017883 0.299561 0.000000 0.000000 0.000000 -0.059577
    168 9.492188 0.000212 0.000000 0.000000 0.000000 0.000000
    169 -1.145508 0.000448 0.000517 -0.523599 0.000000 0.000000
    170 -0.857422 0.104065 0.104675 0.023535 0.163924 0.013631
    171 3.998047 -0.000530 -0.000331 0.304284 0.000000 0.000000
    172 0.599121 0.400635 0.000237 0.000000 0.000000 0.000000
    173 0.599609 0.400146 -0.000029 0.000000 0.000000 0.000000
    174 2.298828 -2.498047 -0.599121 0.891951 0.221435 -0.527255
    175 17.906250 -19.125000 8.273438 0.785988 -0.887192 -0.117433
    176 -9.578125 -27.859375 -37.156250 0.812878 -0.123459 -0.568475
    177 0.649902 -0.547852 0.093628 -1.665911 -0.131397 -0.112061
    178 1.898438 0.000428 -0.000439 0.027385 -0.033309 0.477846
    179 0.656738 0.008400 0.040375 -1.665943 -0.131405 -0.000014
    180 1.798828 -0.000240 0.000231 0.027385 -0.033309 0.477846
    181 1.798828 -0.000240 0.000231 0.027385 -0.033309 0.477846
    182 1.798828 -0.000240 0.000231 0.027385 -0.033309 0.477846
    183 0.665527 0.747070 -0.029175 -1.665933 -0.131406 0.094976
    184 1.899414 -0.000136 -0.000517 0.027385 -0.033309 0.477846
    185 5.214844 -7.328125 4.214844 1.551198 1.438888 -3.139787
    186 3.998047 0.000040 0.001007 0.073505 -0.000002 0.000061
    187 0.600098 0.399414 -0.000469 0.000000 0.000000 -3.138210
    188 0.599609 0.400146 0.000031 0.000000 0.000000 3.137225
    189 2.298828 -2.498047 0.600098 -0.891998 -0.221561 -0.527203
    190 12.101563 -3.646484 -1.237305 1.733560 0.203050 0.048221
    191 2.761719 0.116943 1.523438 1.629480 0.064158 1.743797
    192 7.226563 7.925781 -3.923828 2.328708 0.123457 -0.568475
    193 0.650391 -0.547363 -0.092957 1.665911 0.131399 -0.112062
    194 1.899414 -0.000320 -0.000150 -0.027385 0.033309 0.477846
    195 0.656738 0.008392 -0.040375 1.665943 0.131405 -0.000014
    196 1.798828 -0.000233 -0.000234 -0.027385 0.033309 0.477846
    197 1.798828 -0.000233 -0.000234 -0.027385 0.033309 0.477846
    198 1.798828 -0.000233 -0.000234 -0.027385 0.033309 0.477846
    199 0.665527 0.747070 0.029175 1.665933 0.131406 0.094976
    200 1.900391 0.000549 -0.000072 -0.027385 0.033309 0.477846
    201 13.351563 0.000000 0.000000 0.000000 0.000000 -0.294092
    202 3.115234 -0.000443 0.000000 0.000000 0.000000 0.294090
    203 3.511719 -3.546875 -1.065430 0.000000 1.570795 0.000000
    204 3.455078 -3.515625 1.168945 0.000000 1.570795 0.000000
    205 6.230469 0.000000 0.000000 0.000000 0.000000 0.000000
    206 1.597656 0.000000 0.000000 0.000000 0.000000 0.000000
    207 -4.480469 -0.201904 0.000000 0.000000 0.000000 0.000000
    208 -5.515625 -0.290771 -0.000998 0.000000 0.000000 0.000000
    209 -0.171875 -0.105957 -0.901855 1.570708 1.029180 -3.134558
    210 6.230469 -6.386719 -0.001555 0.000000 0.000000 -0.001221
    211 4.527344 0.000000 0.000000 0.000000 0.000000 0.000000
    212 4.527344 -0.000001 0.000000 0.000000 0.000000 0.000000
    213 0.000000 0.000000 0.000000 0.000000 0.000000 0.000000
    214 0.000000 0.000000 0.000000 0.000000 0.000000 0.000000
    215 4.000000 -6.500000 0.000000 0.000046 0.000000 0.000977
    216 -6.500000 0.000000 0.000000 0.000000 1.570792 0.000000
    217 0.105957 0.000000 -64.312500 0.000000 0.000000 0.000000
    218 1.687500 -0.000999 -1.453125 0.000000 0.000000 0.000000
    219 1.794922 0.532715 -1.549805 0.000000 0.000000 0.000000
    220 5.687500 -0.784668 -0.378906 2.132092 -0.000029 -0.000052
    221 0.710311 -0.115685 1.631563 0.000000 0.000000 0.000000
    222 1.780273 0.000000 0.872559 0.000000 0.000000 0.000000
    223 4.284685 1.256381 -0.335131 0.000000 0.000000 0.000000
    224 5.780050 0.701122 0.734652 0.000000 0.000000 0.000000
    225 0.215623 -0.000008 1.415013 0.000000 -0.071551 0.000000
    226 0.167190 0.092033 1.117434 0.000000 -0.071551 0.000000
    227 0.118559 -0.100415 0.855716 0.000000 -0.071551 0.000000
    228 0.077615 0.122713 0.637300 0.000000 -0.071551 0.000000
    229 0.092014 -0.131096 0.436484 0.000000 -0.071551 0.000000
    230 0.003281 0.142054 0.256779 0.000000 -0.071551 0.000000
    231 -0.029927 -0.132904 0.083272 0.000000 -0.071551 0.000000
    232 -0.052484 0.142054 -0.063862 0.000000 -0.071551 0.000000
    233 -0.093058 -0.132904 -0.238245 0.000000 -0.071551 0.000000
    234 -0.112278 0.142054 -0.385651 0.000000 -0.071551 0.000000
    235 -0.148590 -0.132904 -0.559857 0.000000 -0.071551 0.000000
    236 -0.189956 0.142054 -0.706532 0.000000 -0.071551 0.000000
    237 -0.211964 -0.132904 -0.881189 0.000000 -0.071551 0.000000
    238 -0.248653 0.142054 -1.028480 0.000000 -0.071551 0.000000
    239 -0.274851 -0.132904 -1.202113 0.000000 -0.071551 0.000000
    240 -0.316169 0.142054 -1.349454 0.000000 -0.071551 0.000000
    241 -0.352941 -0.132904 -1.523750 0.000000 -0.071551 0.000000
    242 -0.386291 0.142054 -1.670617 0.000000 -0.071551 0.000000
    243 -0.419608 -0.132904 -1.844807 0.000000 -0.071551 0.000000
    244 -0.445620 0.142054 -1.991569 0.000000 -0.071551 0.000000
    245 -0.475047 -0.132904 -2.165854 0.000000 -0.071551 0.000000
    246 -0.495213 0.142054 -2.698733 0.000000 -0.071551 0.000000
    247 -0.534745 -0.132904 -2.487533 0.000000 -0.071551 0.000000
    248 -0.568263 0.142054 -2.634692 0.000000 -0.071551 0.000000
    249 -0.590430 -0.132904 -2.808412 0.000000 -0.071551 0.000000
    250 -0.644097 0.142054 -2.956448 0.000000 -0.071551 0.000000
    251 -0.661686 -0.132904 -3.130074 0.000000 -0.071551 0.000000
    252 -0.693129 0.142054 -3.277458 0.000000 -0.071551 0.000000
    253 -0.728404 -0.132904 -3.451084 0.000000 -0.071551 0.000000
    254 -3.524744 -0.158648 2.253395 0.000000 0.000000 0.000000
  time 1
    0 0.000000 0.000000 0.000000 0.000000 0.000000 -1.570796
    1 -0.106689 -0.000001 -0.000351 0.000000 0.000000 0.000000
    2 0.000000 0.000000 0.000000 0.000000 0.000000 0.000000
    3 -0.904000 0.000000 -11.806000 0.000000 0.000000 0.000000
    4 0.000000 0.000000 -14.313999 1.570790 -1.570787 0.000000
    5 3.533001 0.000000 0.000000 0.000046 0.000000 0.000000
    6 6.250000 0.000000 0.000000 0.000000 0.000000 0.000000
    7 9.562500 1.947266 -1.984375 -0.161230 1.437156 -0.160063
    8 9.562500 1.947266 1.984375 0.098327 -1.350387 -0.096200
    9 5.777344 -0.000004 0.000010 0.592098 1.011001 0.204648
    10 5.999492 -0.000592 -4.000343 0.000000 0.000000 0.000000
    11 5.781250 0.000003 -0.000020 1.004066 -1.170687 -0.991558
    12 5.999492 -0.000592 4.000332 0.000000 0.000000 0.000000
    13 0.500225 0.000133 -0.000092 0.000000 0.000000 0.000000
    14 11.523438 0.000000 0.000012 -0.000046 0.000037 -1.771552
    15 -0.829338 0.893824 0.079659 -0.148839 0.047645 0.087266
    16 0.500225 0.000132 0.000076 0.000000 0.000000 0.000000
    17 11.523438 0.000010 -0.000030 -0.000037 -0.000046 -1.776095
    18 -0.829586 0.894698 -0.079464 0.045377 -0.019621 0.087266
    19 10.599890 0.000105 -0.000549 0.523598 0.000000 0.000000
    20 0.119667 -0.275181 -0.000805 0.000000 0.000000 0.409860
    21 11.039063 0.000008 -0.000008 0.613914 -0.212642 -0.358973
    22 -1.213867 0.424561 -0.298096 0.247996 -0.066119 -0.042693
    23 10.599880 0.000105 0.000549 0.000000 0.000000 0.000000
    24 0.119663 -0.275181 0.000805 0.000000 0.000000 0.409858
    25 11.039063 -0.000006 0.000034 0.125874 0.117621 -0.543797
    26 -1.062500 0.094788 0.141113 -0.068590 0.018526 -0.015099
    27 0.610304 -0.939470 0.070339 -1.655303 -0.140108 -0.175627
    28 0.639942 -0.199121 0.060184 -1.666050 -0.131433 -0.066359
    29 0.600155 1.080260 -0.339535 -1.738085 0.020770 0.107417
    30 0.610209 0.400743 -0.010105 -1.762380 -0.061627 0.042970
    31 0.629883 -0.689941 -0.229980 0.562813 0.491667 -0.748656
    32 -0.792123 0.203735 0.461300 1.439074 -0.003453 -0.018305
    33 0.610299 -0.939469 -0.070354 1.655295 0.140103 -0.175544
    34 0.639938 -0.199121 -0.060200 1.665864 0.131386 -0.066416
    35 0.600156 1.080259 0.339531 1.741497 -0.204015 0.076003
    36 0.610205 0.400743 0.010086 1.761926 -0.015441 0.028091
    37 0.629883 -0.689453 0.229980 -1.014620 -0.861510 -0.665849
    38 -0.626031 -0.069983 -0.080517 -1.447153 0.086151 0.021559
    39 2.619141 0.000073 -0.000002 -0.115103 -0.159829 1.246683
    40 2.658203 0.000003 0.000002 -0.121158 -0.047914 1.400155
    41 2.199219 0.000000 -0.000006 -0.093310 0.106594 1.536109
    42 0.599950 0.959240 -0.300102 -0.174544 0.000000 0.000000
    43 2.556641 0.000000 -0.000002 -0.090602 -0.013394 1.443577
    44 2.099609 0.000041 -0.000002 -0.259655 0.312330 0.494574
    45 0.999378 -0.000234 -1.209370 -0.000001 0.000000 0.000000
    46 -0.122639 -0.721856 0.661690 -0.486645 0.223964 0.243056
    47 2.619141 0.000072 0.000012 -0.053000 0.086821 -0.048140
    48 2.656250 0.000004 0.000002 0.200358 0.214735 1.264827
    49 2.199219 -0.000005 0.000003 0.236802 0.017718 1.474219
    50 0.599951 0.959244 0.300102 0.174544 0.000000 0.000000
    51 2.558594 0.000010 0.000002 0.236734 0.177130 1.399555
    52 2.097656 0.000039 0.000004 0.124814 -0.418731 0.877105
    53 0.999374 -0.000237 1.209366 0.000000 0.000000 0.000001
    54 0.310844 -0.606444 -0.498005 0.308107 -0.197598 0.313976
    55 1.867188 0.000006 0.000002 0.000165 -0.000041 2.058791
    56 1.200941 0.399582 -0.000237 -0.009465 0.016087 0.007127
    57 0.000584 0.100342 -0.000319 -0.120035 -0.021926 -0.209617
    58 -0.161663 0.051712 0.194808 -2.941982 0.122408 -0.060194
    59 2.007813 0.000000 0.000000 0.000082 -0.000018 1.999814
    60 0.000244 0.099804 -0.000395 -0.018823 0.010833 -0.239219
    61 -0.203197 0.048607 0.069150 -3.093332 0.033217 -0.046723
    62 1.179688 0.000006 0.000006 0.000039 0.000045 1.422042
    63 -0.000195 0.099621 -0.000034 0.000000 0.000000 -0.314102
    64 -0.088739 -0.688438 -0.145203 2.930407 -0.136130 0.513012
    65 1.708984 0.000000 -0.000004 -0.000084 0.000001 1.594255
    66 -0.000584 0.100147 -0.000311 -0.010912 0.023131 -0.260841
    67 -0.146030 -0.232424 -0.014225 3.028455 -0.094299 0.113019
    68 1.290630 0.000362 -0.000031 -0.014903 0.077179 0.498015
    69 -0.658121 -0.003575 0.072643 -0.142711 0.027792 -0.077299
    70 1.867188 0.000002 0.000002 0.000000 0.000000 0.085658
    71 1.200081 0.399944 -0.000093 0.009465 -0.016087 0.007127
    72 0.000595 0.100342 0.000319 0.120035 0.021926 -0.209617
    73 0.068083 0.002285 -0.080050 3.111376 -0.069366 -0.060847
    74 2.007813 0.000003 0.000004 -0.000085 -0.000007 1.379093
    75 0.000229 0.099804 0.000395 0.018823 -0.010833 -0.239219
    76 -0.018669 -0.001009 0.047544 3.109244 0.002635 -0.106673
    77 1.178663 0.001591 0.000845 0.000000 0.000000 0.743918
    78 -0.000202 0.099625 0.000034 0.000000 0.000000 -0.314101
    79 0.036892 -0.634453 0.266284 -2.801062 0.174301 0.490914
    80 1.708984 0.000002 0.000000 0.000000 0.000000 1.160721
    81 -0.000572 0.100136 0.000311 0.010908 -0.023132 -0.260843
    82 -0.003948 -0.281811 0.115047 -3.059162 0.089004 0.167963
    83 1.289063 0.000000 -0.000002 0.000000 0.000000 0.672730
    84 -0.171528 -0.018148 -0.099876 0.013484 -0.062184 -0.011780
    85 0.919922 0.000073 -0.000029 0.000017 -0.000085 1.177776
    86 -0.342617 0.053406 -0.025571 -2.909301 -0.017248 0.075276
    87 1.098633 0.000019 -0.000013 -0.000083 -0.000025 0.987467
    88 -0.384983 0.330997 0.006848 -3.087207 -0.018765 -0.184279
    89 0.679199 -0.000002 -0.000004 -0.000018 -0.000082 1.996342
    90 -0.123848 0.072738 0.029507 2.898184 -0.060627 0.094834
    91 1.017162 -0.000154 -0.000252 -0.000005 0.000083 1.458580
    92 -0.344990 0.123127 0.143151 2.994981 0.012396 0.059140
    93 -0.730986 0.177045 0.039143 -0.123731 0.076518 -0.084310
    94 0.919434 0.000066 0.000026 0.000000 0.000000 0.056829
    95 -0.124031 -0.052092 0.038495 3.077813 -0.008519 0.039229
    96 1.098633 0.000017 0.000012 0.000016 0.000059 0.545757
    97 -0.330078 0.160644 0.042780 3.128073 0.034033 -0.171237
    98 0.679688 0.000005 0.000001 0.000000 0.000000 0.674856
    99 -0.019520 -0.016532 0.038578 -2.763781 0.050305 0.076828
    100 1.019531 -0.000002 0.000000 0.000000 0.000000 0.497056
    101 -0.155312 0.130642 -0.021921 -3.022466 0.022433 -0.024903
    102 -0.252205 0.061937 -0.024914 -0.007671 -0.063171 -0.044392
    103 -0.085991 0.185201 -0.015180 -2.937063 -0.113970 -0.138992
    104 -0.286541 0.179852 0.024264 -3.109353 -0.049645 -0.029915
    105 -0.019489 0.147084 0.079203 2.893815 0.038585 -0.060594
    106 -0.046482 0.251900 0.129548 3.016165 0.077112 -0.042864
    107 0.039116 -0.040298 0.047738 3.084219 0.030470 -0.037413
    108 -0.233757 0.066630 0.001753 -3.133087 0.040141 -0.065413
    109 0.044262 0.020131 0.001683 -2.778763 -0.118872 -0.040489
    110 0.071491 0.074128 -0.048302 -3.035917 -0.059482 0.104366
    111 0.000000 0.000000 0.000000 0.000000 0.000000 -1.570796
    112 7.281250 -8.421875 -6.542969 -0.022391 -1.052330 0.089467
    113 -14.000000 5.660156 -22.406250 -1.339794 -1.403021 0.574595
    114 3.095703 0.000002 -1.995117 0.000005 -0.159230 -0.000062
    115 3.039063 -0.000002 1.201172 0.000000 0.000000 0.000000
    116 7.851563 -0.000001 -0.041992 0.000000 0.000000 0.000000
    117 5.687500 -0.364990 0.067993 -0.000001 -0.349024 -1.570791
    118 6.394531 0.613770 0.427979 0.000000 0.000000 0.000000
    119 3.039063 -0.000002 1.201172 0.000000 0.000000 0.000000
    120 3.718750 -0.000001 1.201172 0.000000 0.000000 0.000000
    121 -1.522461 -1.858398 -4.363281 -1.730301 -0.014917 0.208087
    122 7.281250 0.000002 -2.193359 0.000000 0.000000 0.000000
    123 0.477783 0.000003 -4.535156 0.000000 0.000000 0.000000
    124 3.435547 -0.000002 1.201172 0.000000 0.000000 0.000000
    125 3.039063 -0.000002 1.201172 0.000000 0.000000 0.000000
    126 4.656250 -0.000002 1.544922 0.000000 0.000000 0.000000
    127 -0.402832 0.000001 -0.011002 0.000000 0.000000 0.000000
    128 3.298828 -0.018997 1.345703 0.000000 0.000000 0.000000
    129 0.000000 -0.018997 0.000000 0.000000 0.000000 0.000000
    130 0.000000 -0.018997 0.000000 0.000000 0.000000 0.000000
    131 1.066406 0.588867 0.075989 0.000000 0.000000 0.000000
    132 1.085938 -0.660645 -0.148926 0.000000 0.000000 0.000000
    133 6.070313 -0.000001 -1.237305 0.000000 0.000000 0.000000
    134 4.433594 0.594727 -0.953613 0.000000 0.000000 0.000000
    135 3.455078 -0.000134 -1.083984 0.000000 0.000000 0.000000
    136 7.097656 -0.000273 -1.083984 0.000000 0.000000 0.000000
    137 -16.515625 19.218750 -5.019531 -0.960691 0.677787 -0.634730
    138 3.738281 -0.000144 1.272461 0.000000 0.000000 0.000000
    139 11.953125 -0.000458 -0.006008 0.000000 0.000000 0.000000
    140 11.953125 -0.000033 -0.006001 0.000000 0.000000 0.000000
    141 1.148438 -0.000465 -0.000006 0.000000 0.000000 0.000000
    142 -1.322266 -0.000001 0.183960 0.000000 0.000000 0.000000
    143 -0.105957 0.000000 64.312500 0.000000 0.000000 0.000000
    144 0.081970 -0.000003 1.001953 0.000000 0.000000 0.000000
    145 -19.531250 5.875000 -60.687500 0.043644 0.000000 0.000000
    146 -0.000001 0.106689 -0.000351 0.000000 0.000000 -1.570796
    147 0.000000 0.000000 0.000000 0.000000 0.001221 0.000000
    148 0.000000 0.000000 0.000000 0.000000 0.000000 0.000000
    149 0.000000 0.000000 0.000000 0.000000 0.000000 0.000000
    150 -7.945313 -12.750000 2.291016 -0.022391 -1.052330 -1.481330
    151 -0.091980 0.204956 0.703613 -3.139640 0.000000 0.000000
    152 1.692383 -0.556641 -1.407227 0.000000 0.000000 0.000000
    153 0.000000 0.000000 0.000000 0.000000 0.000000 0.000000
    154 0.000000 0.000000 -4.863281 3.141576 0.004237 -3.128594
    155 1.000000 -0.000029 0.000000 0.000000 0.000000 0.000000
    156 17.156250 -0.000404 0.000000 0.000000 0.000000 0.119213
    157 17.734375 0.295410 0.000000 0.000000 0.000000 -1.158974
    158 5.410156 0.000347 0.000000 0.000000 0.000000 -0.518055
    159 0.017883 0.299561 0.000000 0.000000 0.000000 -0.059583
    160 9.992188 -0.000303 0.000000 0.000000 0.000000 0.000000
    161 0.000000 0.000000 4.863281 3.141519 -0.004237 -3.128594
    162 1.000000 -0.000029 0.000000 0.000000 0.000000 0.000000
    163 12.281250 1.581055 -4.695313 1.462267 -0.086725 0.090185
    164 17.156250 -0.000404 0.000000 0.000000 0.000000 0.119213
    165 17.734375 0.295410 0.000000 0.000000 0.000000 -1.158974
    166 5.410156 0.000343 0.000000 0.000000 0.000000 -0.518055
    167 0.017883 0.299561 0.000000 0.000000 0.000000 -0.059577
    168 9.492188 0.000212 0.000000 0.000000 0.000000 0.000000
    169 -1.145508 0.000448 0.000517 -0.523599 0.000000 0.000000
    170 -0.857422 0.104065 0.104675 0.023535 0.163924 0.013631
    171 3.998047 -0.000530 -0.000331 0.304284 0.000000 0.000000
    172 0.599121 0.400635 0.000237 0.000000 0.000000 0.000000
    173 0.599609 0.400146 -0.000029 0.000000 0.000000 0.000000
    174 2.298828 -2.498047 -0.599121 0.891951 0.221435 -0.527255
    175 17.906250 -19.125000 8.273438 0.785988 -0.887192 -0.117433
    176 -9.578125 -27.859375 -37.156250 0.812878 -0.123459 -0.568475
    177 0.649902 -0.547852 0.093628 -1.665911 -0.131397 -0.112061
    178 1.898438 0.000428 -0.000439 0.027385 -0.033309 0.477846
    179 0.656738 0.008400 0.040375 -1.665943 -0.131405 -0.000014
    180 1.798828 -0.000240 0.000231 0.027385 -0.033309 0.477846
    181 1.798828 -0.000240 0.000231 0.027385 -0.033309 0.477846
    182 1.798828 -0.000240 0.000231 0.027385 -0.033309 0.477846
    183 0.665527 0.747070 -0.029175 -1.665933 -0.131406 0.094976
    184 1.899414 -0.000136 -0.000517 0.027385 -0.033309 0.477846
    185 5.214844 -7.328125 4.214844 1.551198 1.438888 -3.139787
    186 3.998047 0.000040 0.001007 0.073505 -0.000002 0.000061
    187 0.600098 0.399414 -0.000469 0.000000 0.000000 -3.138210
    188 0.599609 0.400146 0.000031 0.000000 0.000000 3.137225
    189 2.298828 -2.498047 0.600098 -0.891998 -0.221561 -0.527203
    190 12.101563 -3.646484 -1.237305 1.733560 0.203050 0.048221
    191 2.761719 0.116943 1.523438 1.629480 0.064158 1.743797
    192 7.226563 7.925781 -3.923828 2.328708 0.123457 -0.568475
    193 0.650391 -0.547363 -0.092957 1.665911 0.131399 -0.112062
    194 1.899414 -0.000320 -0.000150 -0.027385 0.033309 0.477846
    195 0.656738 0.008392 -0.040375 1.665943 0.131405 -0.000014
    196 1.798828 -0.000233 -0.000234 -0.027385 0.033309 0.477846
    197 1.798828 -0.000233 -0.000234 -0.027385 0.033309 0.477846
    198 1.798828 -0.000233 -0.000234 -0.027385 0.033309 0.477846
    199 0.665527 0.747070 0.029175 1.665933 0.131406 0.094976
    200 1.900391 0.000549 -0.000072 -0.027385 0.033309 0.477846
    201 13.351563 0.000000 0.000000 0.000000 0.000000 -0.294092
    202 3.115234 -0.000443 0.000000 0.000000 0.000000 0.294090
    203 3.511719 -3.546875 -1.065430 0.000000 1.570795 0.000000
    204 3.455078 -3.515625 1.168945 0.000000 1.570795 0.000000
    205 6.230469 0.000000 0.000000 0.000000 0.000000 0.000000
    206 1.597656 0.000000 0.000000 0.000000 0.000000 0.000000
    207 -4.480469 -0.201904 0.000000 0.000000 0.000000 0.000000
    208 -5.515625 -0.290771 -0.000998 0.000000 0.000000 0.000000
    209 -0.171875 -0.105957 -0.901855 1.570708 1.029180 -3.134558
    210 6.230469 -6.386719 -0.001555 0.000000 0.000000 -0.001221
    211 4.527344 0.000000 0.000000 0.000000 0.000000 0.000000
    212 4.527344 -0.000001 0.000000 0.000000 0.000000 0.000000
    213 0.000000 0.000000 0.000000 0.000000 0.000000 0.000000
    214 0.000000 0.000000 0.000000 0.000000 0.000000 0.000000
    215 4.000000 -6.500000 0.000000 0.000046 0.000000 0.000977
    216 -6.500000 0.000000 0.000000 0.000000 1.570792 0.000000
    217 0.105957 0.000000 -64.312500 0.000000 0.000000 0.000000
    218 1.687500 -0.000999 -1.453125 0.000000 0.000000 0.000000
    219 1.794922 0.532715 -1.549805 0.000000 0.000000 0.000000
    220 5.687500 -0.784668 -0.378906 2.132092 -0.000029 -0.000052
    221 0.710311 -0.115685 1.631563 0.000000 0.000000 0.000000
    222 1.780273 0.000000 0.872559 0.000000 0.000000 0.000000
    223 4.284685 1.256381 -0.335131 0.000000 0.000000 0.000000
    224 5.780050 0.701122 0.734652 0.000000 0.000000 0.000000
    225 0.215623 -0.000008 1.415013 0.000000 -0.071551 0.000000
    226 0.167190 0.092033 1.117434 0.000000 -0.071551 0.000000
    227 0.118559 -0.100415 0.855716 0.000000 -0.071551 0.000000
    228 0.077615 0.122713 0.637300 0.000000 -0.071551 0.000000
    229 0.092014 -0.131096 0.436484 0.000000 -0.071551 0.000000
    230 0.003281 0.142054 0.256779 0.000000 -0.071551 0.000000
    231 -0.029927 -0.132904 0.083272 0.000000 -0.071551 0.000000
    232 -0.052484 0.142054 -0.063862 0.000000 -0.071551 0.000000
    233 -0.093058 -0.132904 -0.238245 0.000000 -0.071551 0.000000
    234 -0.112278 0.142054 -0.385651 0.000000 -0.071551 0.000000
    235 -0.148590 -0.132904 -0.559857 0.000000 -0.071551 0.000000
    236 -0.189956 0.142054 -0.706532 0.000000 -0.071551 0.000000
    237 -0.211964 -0.132904 -0.881189 0.000000 -0.071551 0.000000
    238 -0.248653 0.142054 -1.028480 0.000000 -0.071551 0.000000
    239 -0.274851 -0.132904 -1.202113 0.000000 -0.071551 0.000000
    240 -0.316169 0.142054 -1.349454 0.000000 -0.071551 0.000000
    241 -0.352941 -0.132904 -1.523750 0.000000 -0.071551 0.000000
    242 -0.386291 0.142054 -1.670617 0.000000 -0.071551 0.000000
    243 -0.419608 -0.132904 -1.844807 0.000000 -0.071551 0.000000
    244 -0.445620 0.142054 -1.991569 0.000000 -0.071551 0.000000
    245 -0.475047 -0.132904 -2.165854 0.000000 -0.071551 0.000000
    246 -0.495213 0.142054 -2.698733 0.000000 -0.071551 0.000000
    247 -0.534745 -0.132904 -2.487533 0.000000 -0.071551 0.000000
    248 -0.568263 0.142054 -2.634692 0.000000 -0.071551 0.000000
    249 -0.590430 -0.132904 -2.808412 0.000000 -0.071551 0.000000
    250 -0.644097 0.142054 -2.956448 0.000000 -0.071551 0.000000
    251 -0.661686 -0.132904 -3.130074 0.000000 -0.071551 0.000000
    252 -0.693129 0.142054 -3.277458 0.000000 -0.071551 0.000000
    253 -0.728404 -0.132904 -3.451084 0.000000 -0.071551 0.000000
    254 -3.524744 -0.158648 2.253395 0.000000 0.000000 0.000000
end
