// Created by Crowbar 0.74
version 1
nodes
  0 "tag_origin" -1
  1 "tag_view" 0
  2 "tag_ads" 1
  3 "tag_torso" 2
  4 "j_mainroot" 3
  5 "j_spinelower" 4
  6 "j_spineupper" 5
  7 "j_clavicle_le" 6
  8 "j_clavicle_ri" 6
  9 "j_shoulder_le" 7
  10 "j_teres_le" 7
  11 "j_shoulder_ri" 8
  12 "j_teres_ri" 8
  13 "j_shouldertwist_le" 9
  14 "j_elbow_le" 9
  15 "ValveBiped.Bip01_L_UpperArm" 9
  16 "j_shouldertwist_ri" 11
  17 "j_elbow_ri" 11
  18 "ValveBiped.Bip01_R_UpperArm" 11
  19 "j_wristfronttwist1_le" 14
  20 "j_elbowdq_le" 14
  21 "j_wrist_le" 14
  22 "ValveBiped.Bip01_L_Forearm" 14
  23 "j_wristfronttwist1_ri" 17
  24 "j_elbowdq_ri" 17
  25 "j_wrist_ri" 17
  26 "ValveBiped.Bip01_R_Forearm" 17
  27 "j_metaindex_le_1" 21
  28 "j_metamid_le_1" 21
  29 "j_metapinky_le_1" 21
  30 "j_metaring_le_1" 21
  31 "j_thumb_le_1" 21
  32 "ValveBiped.Bip01_L_Hand" 21
  33 "j_metaindex_ri_1" 25
  34 "j_metamid_ri_1" 25
  35 "j_metapinky_ri_1" 25
  36 "j_metaring_ri_1" 25
  37 "j_thumb_ri_1" 25
  38 "ValveBiped.Bip01_R_Hand" 25
  39 "j_index_le_1" 27
  40 "j_mid_le_1" 28
  41 "j_pinky_le_1" 29
  42 "j_webbing_le_3" 29
  43 "j_ring_le_1" 30
  44 "j_thumb_le_2" 31
  45 "j_webbing_le_2" 31
  46 "ValveBiped.Bip01_L_Finger0" 31
  47 "j_index_ri_1" 33
  48 "j_mid_ri_1" 34
  49 "j_pinky_ri_1" 35
  50 "j_webbing_ri_3" 35
  51 "j_ring_ri_1" 36
  52 "j_thumb_ri_2" 37
  53 "j_webbing_ri_2" 37
  54 "ValveBiped.Bip01_R_Finger0" 37
  55 "j_index_le_2" 39
  56 "j_indexbulge_le_1" 39
  57 "j_proc_index_le_1" 39
  58 "ValveBiped.Bip01_L_Finger1" 39
  59 "j_mid_le_2" 40
  60 "j_proc_mid_le_1" 40
  61 "ValveBiped.Bip01_L_Finger2" 40
  62 "j_pinky_le_2" 41
  63 "j_proc_pinky_le_1" 41
  64 "ValveBiped.Bip01_L_Finger4" 41
  65 "j_ring_le_2" 43
  66 "j_proc_ring_le_1" 43
  67 "ValveBiped.Bip01_L_Finger3" 43
  68 "j_thumb_le_3" 44
  69 "ValveBiped.Bip01_L_Finger01" 44
  70 "j_index_ri_2" 47
  71 "j_indexbulge_ri_1" 47
  72 "j_proc_index_ri_1" 47
  73 "ValveBiped.Bip01_R_Finger1" 47
  74 "j_mid_ri_2" 48
  75 "j_proc_mid_ri_1" 48
  76 "ValveBiped.Bip01_R_Finger2" 48
  77 "j_pinky_ri_2" 49
  78 "j_proc_pinky_ri_1" 49
  79 "ValveBiped.Bip01_R_Finger4" 49
  80 "j_ring_ri_2" 51
  81 "j_proc_ring_ri_1" 51
  82 "ValveBiped.Bip01_R_Finger3" 51
  83 "j_thumb_ri_3" 52
  84 "ValveBiped.Bip01_R_Finger01" 52
  85 "j_index_le_3" 55
  86 "ValveBiped.Bip01_L_Finger11" 55
  87 "j_mid_le_3" 59
  88 "ValveBiped.Bip01_L_Finger21" 59
  89 "j_pinky_le_3" 62
  90 "ValveBiped.Bip01_L_Finger41" 62
  91 "j_ring_le_3" 65
  92 "ValveBiped.Bip01_L_Finger31" 65
  93 "ValveBiped.Bip01_L_Finger02" 68
  94 "j_index_ri_3" 70
  95 "ValveBiped.Bip01_R_Finger11" 70
  96 "j_mid_ri_3" 74
  97 "ValveBiped.Bip01_R_Finger21" 74
  98 "j_pinky_ri_3" 77
  99 "ValveBiped.Bip01_R_Finger41" 77
  100 "j_ring_ri_3" 80
  101 "ValveBiped.Bip01_R_Finger31" 80
  102 "ValveBiped.Bip01_R_Finger02" 83
  103 "ValveBiped.Bip01_L_Finger12" 85
  104 "ValveBiped.Bip01_L_Finger22" 87
  105 "ValveBiped.Bip01_L_Finger42" 89
  106 "ValveBiped.Bip01_L_Finger32" 91
  107 "ValveBiped.Bip01_R_Finger12" 94
  108 "ValveBiped.Bip01_R_Finger22" 96
  109 "ValveBiped.Bip01_R_Finger42" 98
  110 "ValveBiped.Bip01_R_Finger32" 100
  111 "ValveBiped.Anim_Attachment_RH" -1
  112 "tag_sling" 111
  113 "j_gun" -1
  114 "j_ejectioncover" 112
  115 "j_trigger" 112
  116 "tag_align_gun" 112
  117 "tag_barrel_attach" 112
  118 "tag_brass" 112
  119 "tag_ik_loc_ri" 112
  120 "tag_mag_attach" 112
  121 "tag_mag_show2" 112
  122 "tag_acog_2" 112
  123 "tag_holo" 112
  124 "tag_hybrid" 112
  125 "tag_reflex" 112
  126 "tag_scope" 112
  127 "tag_thermal" 112
  128 "j_hybrid_scope" 124
  129 "j_magnifier_lever" 124
  130 "tag_sight_off" 112
  131 "tag_sight_on" 112
  132 "tag_stock_attach" 112
  133 "tag_stock_hide" 112
  134 "j_charginghandle" 112
  135 "j_charginghandleassist" 112
  136 "j_firesel" 112
  137 "j_magrel" 112
  138 "j_magrel_right" 112
  139 "j_mike4_bolt" 112
  140 "tag_mag_hide" 114
  141 "tag_mag_show" 114
  142 "tag_flash" 117
  143 "tag_ik_loc_le" 117
  144 "tag_grip_hide" 117
  145 "j_mag1" 120
  146 "j_mag2" 120
  147 "j_b_014" 145
  148 "j_b_015" 145
  149 "j_b_016" 145
  150 "j_b_01" 145
  151 "j_b_010" 145
  152 "j_b_011" 145
  153 "j_b_012" 145
  154 "j_b_013" 145
  155 "j_b_02" 145
  156 "j_b_03" 145
  157 "j_b_04" 145
  158 "j_b_05" 145
  159 "j_b_06" 145
  160 "j_b_07" 145
  161 "j_b_08" 145
  162 "j_b_09" 145
  163 "tag_sync" 0
  164 "tag_camera_scripted" 0
  165 "tag_cambone" 1
  166 "tag_camera" 165
  167 "tag_weapon" 3
  168 "tag_player" 166
  169 "tag_playerhelmet" 166
  170 "j_hip_le" 4
  171 "j_hip_ri" 4
  172 "j_groinprotector" 4
  173 "j_crotch" 4
  174 "j_hiptwist_le" 170
  175 "j_knee_le" 170
  176 "j_hip_proc_le" 170
  177 "j_hiptwist_ri" 171
  178 "j_knee_ri" 171
  179 "j_hip_proc_ri" 171
  180 "j_proc_spinelower" 5
  181 "j_ankle_le" 175
  182 "j_kneedq_le" 175
  183 "tag_stowed_thigh" 177
  184 "j_ankle_ri" 178
  185 "j_kneedq_ri" 178
  186 "j_neck" 6
  187 "j_spine4" 6
  188 "j_proc_spineupper" 6
  189 "j_ball_le" 181
  190 "j_ball_ri" 184
  191 "tag_carry_attach" 7
  192 "j_head" 186
  193 "j_chest" 187
  194 "j_eyeball_le" 192
  195 "j_eyeball_ri" 192
  196 "j_head_end" 192
  197 "j_jaw" 192
  198 "j_nvg" 192
  199 "j_shield_le" 14
  200 "j_shield_ri" 17
  201 "j_helmet" 196
  202 "j_proc_wristfronttwist1_le" 19
  203 "j_webbing_le_1" 21
  204 "tag_weapon_left" 21
  205 "tag_accessory_left" 21
  206 "j_proc_metaindex_le_1" 21
  207 "j_proc_metaknuckle_le_1" 21
  208 "j_proc_metapinky_le_1" 21
  209 "j_webbing_ri_1" 25
  210 "tag_weapon_right" 25
  211 "tag_knife_attach2" 25
  212 "tag_accessory_right" 25
  213 "j_proc_metaindex_ri_1" 25
  214 "j_proc_metaknuckle_ri_1" 25
  215 "j_proc_metapinky_ri_1" 25
  216 "j_visor" 201
  217 "j_visor_inner" 201
  218 "tag_wrist_attach_le" 202
  219 "j_proc_metaindex_le_2" 206
  220 "j_proc_knuckle_le_1" 207
  221 "j_proc_idle_knuckle_le_1" 207
  222 "j_proc_orient_knuckle_le_1" 207
  223 "j_proc_metapinky_le_2" 208
  224 "j_proc_metaindex_ri_2" 213
  225 "j_proc_knuckle_ri_1" 214
  226 "j_proc_idle_knuckle_ri_1" 214
  227 "j_proc_orient_knuckle_ri_1" 214
  228 "j_proc_metapinky_ri_2" 215
  229 "j_thumb_le_4" 68
  230 "j_thumb_ri_4" 83
  231 "j_index_le_4" 85
  232 "j_index_ri_4" 94
  233 "j_bullet2" 145
end
skeleton
  time 0
    0 0.000000 0.000000 0.000000 0.000000 0.000000 -1.570796
    1 -0.106323 0.000000 -0.000198 0.000000 0.000000 0.000000
    2 0.000000 0.000000 0.000000 0.000000 0.000000 0.000000
    3 -0.904000 0.000000 -11.806000 0.000000 0.000000 0.000000
    4 0.000000 0.000000 -14.313999 0.000000 -1.570796 1.570857
    5 3.533001 0.000000 0.000000 0.000000 0.000000 0.000000
    6 6.250000 0.000000 0.000000 0.000000 0.000000 0.000000
    7 9.562500 -0.020981 -1.942383 -1.545388 1.187806 -1.547191
    8 9.562500 5.304688 2.056641 -1.552269 -1.032964 1.554867
    9 5.781250 -0.000031 0.000234 -1.108472 0.432525 -1.426395
    10 5.999492 -0.000592 -4.000343 0.000000 0.000000 0.000000
    11 5.781250 -0.000032 -0.000236 0.998609 -0.721336 -1.835883
    12 5.999492 -0.000592 4.000336 0.000000 0.000000 0.000000
    13 0.500225 0.000133 -0.000088 0.239836 0.000000 0.000000
    14 11.523438 -0.000292 0.000187 0.000000 0.000000 -1.200548
    15 -0.829338 0.893824 0.079659 -0.148839 0.047645 0.087266
    16 0.500225 0.000132 0.000076 0.016173 0.000000 0.000000
    17 11.523438 -0.000340 -0.000863 0.000041 0.000043 -1.605465
    18 -0.829586 0.894698 -0.079464 0.045377 -0.019621 0.087266
    19 10.599884 0.000105 -0.000553 -0.556198 0.000000 0.000000
    20 0.232178 -0.338867 -0.000028 0.000055 -0.000017 0.600356
    21 11.039063 -0.000341 -0.000647 -1.112614 0.001632 0.678769
    22 -1.214832 0.203470 -0.477489 -0.135025 -0.078677 -0.001289
    23 10.599880 0.000105 0.000549 0.113693 -0.000070 0.000050
    24 0.513672 -0.495361 0.000707 0.000000 0.000000 0.802656
    25 11.039063 -0.000338 0.000648 0.227428 -0.068909 0.758183
    26 -1.063377 0.077663 0.150230 0.045121 0.020046 -0.012850
    27 0.610302 -0.939470 0.070343 -1.656033 -0.192284 -0.171170
    28 0.639940 -0.199121 0.060188 -1.665952 -0.131350 -0.066457
    29 0.600155 1.080261 -0.339535 -1.765606 0.208716 -0.048243
    30 0.610207 0.400743 -0.010101 -1.762205 0.054477 0.020011
    31 0.629395 -0.689453 -0.229736 0.180982 0.137418 -0.862213
    32 -0.792125 0.203736 0.461300 1.439074 -0.003453 -0.018305
    33 0.610300 -0.939469 -0.070351 1.655382 0.140066 -0.175493
    34 0.639937 -0.199121 -0.060200 1.666006 0.131431 -0.066278
    35 0.600157 1.080259 0.339531 1.741680 -0.204067 0.076024
    36 0.610205 0.400743 0.010086 1.762001 -0.015356 0.028096
    37 0.629395 -0.689453 0.230347 -1.014702 -0.861529 -0.665915
    38 -0.626031 -0.069983 -0.080517 -1.447153 0.086151 0.021559
    39 2.617188 0.000145 0.000407 -0.449911 -0.624488 0.445352
    40 2.658203 0.000109 -0.000830 -0.713537 -0.442799 0.749238
    41 2.199219 0.000517 0.000117 -0.778347 0.179182 1.020052
    42 0.599952 0.959240 -0.300102 -0.174544 0.000000 0.000000
    43 2.558594 -0.000157 0.000028 -0.639349 -0.152177 0.802027
    44 2.095703 0.000480 -0.000412 -0.601494 -0.137739 0.591364
    45 0.999512 0.000031 -1.182617 -0.000001 0.000000 0.000000
    46 -0.122639 -0.721856 0.661690 -0.486644 0.223964 0.243056
    47 2.619141 0.000141 -0.000401 -0.053005 0.086820 -0.048204
    48 2.658203 0.000781 0.000162 0.200438 0.214755 1.264769
    49 2.199219 0.000516 -0.000123 0.236758 0.017676 1.474188
    50 0.599951 0.959244 0.300102 0.174544 0.000000 0.000000
    51 2.558594 -0.000149 -0.000029 0.236781 0.177166 1.399641
    52 2.097656 -0.000095 -0.000401 0.124872 -0.418758 0.877099
    53 0.999512 -0.000602 1.492188 0.000000 0.000000 0.946946
    54 0.310846 -0.606445 -0.498005 0.308107 -0.197598 0.313976
    55 1.867188 -0.000057 -0.000521 0.000000 0.000000 0.624427
    56 1.200941 0.399582 -0.000237 -0.009465 0.016087 0.007127
    57 0.000586 0.100342 -0.000319 -0.120035 -0.021926 -0.209617
    58 -0.161663 0.051712 0.194808 -2.941982 0.122408 -0.060194
    59 2.007813 -0.000088 -0.000221 -0.000049 0.000037 1.286058
    60 0.000240 0.099802 -0.000395 -0.018823 0.010833 -0.239219
    61 -0.203197 0.048607 0.069150 -3.093332 0.033217 -0.046722
    62 1.178711 0.000216 -0.000695 0.000014 0.000056 0.478939
    63 -0.000196 0.099625 -0.000034 0.000000 0.000000 -0.314102
    64 -0.088736 -0.688435 -0.145203 2.930407 -0.136130 0.513013
    65 1.708008 0.000723 -0.000198 -0.000031 0.000079 0.864800
    66 -0.000580 0.100145 -0.000311 -0.010912 0.023129 -0.260841
    67 -0.146030 -0.232426 -0.014225 3.028455 -0.094299 0.113020
    68 1.290632 0.000362 -0.000032 0.000000 0.000000 -0.008665
    69 -0.658121 -0.003575 0.072645 -0.142711 0.027792 -0.077299
    70 1.867188 -0.000057 0.000523 0.000000 0.000000 1.450173
    71 1.200079 0.399944 -0.000093 0.009465 -0.016087 0.007127
    72 0.000591 0.100342 0.000319 0.120035 0.021926 -0.209617
    73 0.068077 0.002285 -0.080050 3.111376 -0.069366 -0.060847
    74 2.007813 -0.000882 -0.000381 0.000046 -0.000038 1.379085
    75 0.000229 0.099802 0.000395 0.018823 -0.010833 -0.239219
    76 -0.018673 -0.001009 0.047544 3.109244 0.002635 -0.106673
    77 1.178665 0.001595 0.000845 0.000000 0.000000 0.743986
    78 -0.000198 0.099628 0.000034 0.000000 0.000000 -0.314102
    79 0.036892 -0.634449 0.266284 -2.801062 0.174301 0.490914
    80 1.708008 0.000723 0.000200 0.000000 0.000000 1.160579
    81 -0.000576 0.100136 0.000311 0.010912 -0.023129 -0.260841
    82 -0.003952 -0.281811 0.115047 -3.059162 0.089004 0.167964
    83 1.290039 0.000364 -0.000046 -0.000058 0.000020 0.672663
    84 -0.171528 -0.018148 -0.099873 0.013484 -0.062184 -0.011780
    85 0.919922 -0.000298 -0.000419 0.004554 0.002980 0.506586
    86 -0.342617 0.053404 -0.025571 -2.909301 -0.017248 0.075276
    87 1.099609 -0.000424 0.000134 0.000000 0.000000 0.154454
    88 -0.384983 0.330998 0.006848 -3.087207 -0.018765 -0.184279
    89 0.679688 -0.001227 0.000443 0.000000 0.000000 0.196305
    90 -0.123848 0.072737 0.029507 2.898184 -0.060627 0.094834
    91 1.017166 -0.000154 -0.000252 0.000000 0.000000 0.752180
    92 -0.344986 0.123129 0.143151 2.994981 0.012396 0.059140
    93 -0.730988 0.177046 0.039141 -0.123731 0.076518 -0.084310
    94 0.918457 0.000401 0.000086 0.000000 0.000000 0.471848
    95 -0.124027 -0.052092 0.038496 3.077813 -0.008519 0.039229
    96 1.098633 0.000008 0.000469 0.000016 0.000059 0.545759
    97 -0.330082 0.160641 0.042780 3.128073 0.034033 -0.171236
    98 0.679199 -0.000815 0.000175 0.000000 0.000000 0.674787
    99 -0.019516 -0.016531 0.038578 -2.763781 0.050305 0.076828
    100 1.019531 -0.000026 -0.000397 0.000014 0.000055 0.497121
    101 -0.155312 0.130643 -0.021921 -3.022466 0.022433 -0.024903
    102 -0.252209 0.061937 -0.024914 -0.007671 -0.063171 -0.044392
    103 -0.085991 0.185203 -0.015180 -2.937063 -0.113970 -0.138991
    104 -0.286537 0.179852 0.024264 -3.109353 -0.049645 -0.029915
    105 -0.019489 0.147084 0.079203 2.893815 0.038585 -0.060594
    106 -0.046482 0.251898 0.129548 3.016165 0.077112 -0.042864
    107 0.039120 -0.040298 0.047739 3.084219 0.030470 -0.037414
    108 -0.233757 0.066630 0.001754 -3.133087 0.040141 -0.065413
    109 0.044266 0.020128 0.001684 -2.778763 -0.118872 -0.040488
    110 0.071495 0.074127 -0.048302 -3.035917 -0.059482 0.104366
    111 0.000000 0.000000 0.000000 0.000000 0.000000 -1.570796
    112 7.812500 -3.126953 -2.847656 -0.043644 0.000000 0.000000
    113 -7.445313 12.601563 1.011719 0.596685 -0.585970 -1.378268
    114 5.690000 -0.785000 -0.379000 2.131911 0.000000 0.000000
    115 3.096000 0.000000 -1.996000 0.000000 0.000000 0.000000
    116 2.026000 0.000000 2.576000 0.000000 0.000000 0.000000
    117 7.854000 0.000000 -0.042000 0.000000 0.000000 0.000000
    118 5.690000 -0.365000 0.068000 0.000000 -0.349029 -1.570796
    119 -1.524000 -1.859000 -4.367000 -1.730304 -0.014913 0.208095
    120 7.284000 0.000000 -2.195000 0.000000 0.000000 0.000000
    121 4.587000 -0.785000 0.022000 0.000000 0.000000 0.000000
    122 3.039063 0.000000 0.961914 0.000000 0.000000 0.000000
    123 3.039063 0.000000 0.961914 0.000000 0.000000 0.000000
    124 3.718750 0.000000 0.961914 0.000000 0.000000 0.000000
    125 3.435547 0.000000 0.961914 0.000000 0.000000 0.000000
    126 3.039063 0.000000 0.961914 0.000000 0.000000 0.000000
    127 3.039063 0.000000 0.961914 0.000000 0.000000 0.000000
    128 1.086000 -0.661000 -0.149000 0.000000 0.000000 0.000000
    129 1.067000 0.589000 0.076000 0.000000 0.000000 0.000000
    130 5.136000 0.000000 1.534000 0.000000 0.000000 0.000000
    131 4.657000 0.000000 1.545000 0.000000 0.000000 0.000000
    132 -0.403000 0.000000 -0.011000 0.000000 0.000000 0.000000
    133 -0.598000 0.000000 -0.011000 0.000000 0.000000 0.000000
    134 1.781000 0.000000 0.873000 0.000000 0.000000 0.000000
    135 0.384000 0.715000 0.801000 0.000000 0.000000 0.000000
    136 1.795000 0.533000 -1.550000 0.000000 0.000000 0.000000
    137 4.436000 0.595000 -0.954000 0.000000 0.000000 0.000000
    138 4.402000 -0.614000 -1.630000 0.000000 0.000000 0.000000
    139 4.203000 -0.003000 -0.048000 0.000000 0.000000 0.000000
    140 0.000000 0.000000 0.000000 0.000000 0.000000 0.000000
    141 0.000000 0.000000 0.000000 0.000000 0.000000 0.000000
    142 13.105999 0.000000 -0.006000 0.000000 0.000000 0.000000
    143 1.868000 1.809000 -1.975000 -2.218558 -0.017169 -0.465709
    144 6.072001 0.000000 -1.238000 0.000000 0.000000 0.000000
    145 -1.323000 0.000000 0.184000 0.000000 0.000000 0.000000
    146 -19.531250 5.875000 -60.687500 0.043644 0.000000 0.000000
    147 0.146000 0.184000 1.067000 0.000000 0.000000 0.000000
    148 0.148000 0.184000 1.414000 0.000000 0.000000 0.000000
    149 0.148000 -0.074000 1.640000 0.000000 0.000000 0.000000
    150 0.496000 0.184000 -3.523000 0.000000 0.000000 0.000000
    151 0.147000 0.184000 -0.328000 0.000000 0.000000 0.000000
    152 0.147000 0.184000 0.023000 0.000000 0.000000 0.000000
    153 0.147000 0.184000 0.368000 0.000000 0.000000 0.000000
    154 0.147000 0.184000 0.717000 0.000000 0.000000 0.000000
    155 0.435000 0.184000 -3.179000 0.000000 0.000000 0.000000
    156 0.378000 0.184000 -2.826000 0.000000 0.000000 0.000000
    157 0.329000 0.184000 -2.477000 0.000000 0.000000 0.000000
    158 0.286000 0.184000 -2.127000 0.000000 0.000000 0.000000
    159 0.252000 0.184000 -1.775000 0.000000 0.000000 0.000000
    160 0.215000 0.184000 -1.417000 0.000000 0.000000 0.000000
    161 0.190000 0.184000 -1.064000 0.000000 0.000000 0.000000
    162 0.166000 0.184000 -0.714000 0.000000 0.000000 0.000000
    163 0.000000 0.000000 0.000000 0.000000 0.000000 0.000000
    164 -0.106000 0.000000 64.320000 0.000000 0.000000 0.000000
    165 0.000000 0.000000 0.000000 0.000000 0.000000 0.000000
    166 0.000000 0.000000 0.000000 0.000000 0.000000 0.000000
    167 19.220901 -3.147400 8.567799 -0.043645 0.000000 0.000000
    168 0.106000 0.000000 -64.320000 0.000000 0.000000 0.000000
    169 0.000000 0.000000 0.000000 0.000000 0.000000 0.000000
    170 0.000000 0.000000 -4.867002 -3.141593 0.000000 -3.128592
    171 0.000000 0.000000 4.867000 -3.141593 0.000000 -3.128592
    172 4.000000 -6.500000 0.000000 0.000000 0.000000 0.000977
    173 -6.500000 0.000000 0.000000 0.000000 1.570796 0.000000
    174 1.000088 -0.000029 0.000000 0.000000 0.000000 0.000000
    175 17.162516 -0.000404 0.000000 0.000000 0.000000 0.119214
    176 9.999891 -0.000302 0.000000 0.000000 0.000000 0.000000
    177 1.000088 -0.000029 0.000000 0.000000 0.000000 0.000000
    178 17.162516 -0.000404 0.000000 0.000000 0.000000 0.119214
    179 9.499836 0.000212 0.000000 0.000000 0.000000 0.000000
    180 0.000000 0.000000 0.000000 0.000000 0.000000 0.000000
    181 17.749374 0.295515 0.000000 0.000000 0.000000 -1.158958
    182 0.017889 0.299792 0.000000 0.000000 0.000000 -0.059582
    183 12.283573 1.581456 -4.696000 1.462269 -0.086726 0.090185
    184 17.749376 0.295515 0.000000 0.000000 0.000000 -1.158958
    185 0.017889 0.299792 0.000000 0.000000 0.000000 -0.059582
    186 13.354000 0.000000 0.000000 0.000000 0.000000 -0.294101
    187 4.530998 0.000000 0.000000 0.000000 0.000000 0.000000
    188 0.000000 0.000000 0.000000 0.000000 0.000000 0.000000
    189 5.413524 0.000347 0.000000 0.000000 0.000000 -0.518055
    190 5.413524 0.000347 0.000000 0.000000 0.000000 -0.518055
    191 4.662001 -5.366331 4.825191 1.569715 1.561304 -3.121219
    192 3.116966 -0.000443 0.000000 0.000000 0.000000 0.294101
    193 4.531197 0.000000 0.000000 0.000000 0.000000 0.000000
    194 3.512001 -3.547000 -1.066000 0.000000 1.570796 0.000000
    195 3.456001 -3.517000 1.169000 0.000000 1.570796 0.000000
    196 6.233002 0.000000 0.000000 0.000000 0.000000 0.000000
    197 -0.171997 -0.106000 -0.902000 1.570713 1.029175 -3.134550
    198 6.241997 -6.380000 0.000000 0.000000 0.000000 0.000000
    199 3.999434 -0.000528 -0.000328 -0.602482 -0.000058 0.000018
    200 3.999901 0.000041 0.001011 0.156170 0.000000 0.000000
    201 1.598000 0.000000 0.000000 0.000000 0.000000 0.000000
    202 -1.145525 0.000130 0.000668 0.000000 0.000000 0.000000
    203 2.299679 -2.499979 -0.599480 0.891929 0.221512 -0.527290
    204 1.442675 -0.486605 -2.015224 2.276485 -0.376178 -0.281870
    205 -9.580666 -27.862103 -37.184673 0.812879 -0.123459 -0.568477
    206 0.649933 -0.548295 0.093651 -1.665913 -0.131399 -0.112062
    207 0.657073 0.008401 0.040371 -1.665945 -0.131407 -0.000013
    208 0.665776 0.747221 -0.029190 -1.665935 -0.131408 0.094976
    209 2.300138 -2.499414 0.600155 -0.892021 -0.221512 -0.527234
    210 12.104934 -3.647287 -1.238483 1.733667 0.203088 0.048277
    211 2.762354 0.116951 1.523975 1.629481 0.064153 1.743800
    212 7.228323 7.928201 -3.925648 2.328714 0.123459 -0.568477
    213 0.650394 -0.547731 -0.092979 1.665913 0.131399 -0.112062
    214 0.657068 0.008396 -0.040379 1.665945 0.131407 -0.000013
    215 0.665772 0.747218 0.029182 1.665935 0.131408 0.094976
    216 -4.481003 -0.202000 0.000000 0.000000 0.000000 0.000000
    217 -5.516998 -0.291000 -0.001000 0.000000 0.000000 0.000000
    218 -0.857693 0.104070 0.104687 0.023536 0.163924 0.013632
    219 1.899117 0.000423 -0.000439 0.027386 -0.033311 0.477848
    220 1.799659 -0.000237 0.000231 0.027386 -0.033311 0.477848
    221 1.799659 -0.000237 0.000231 0.027386 -0.033311 0.477848
    222 1.799659 -0.000237 0.000231 0.027386 -0.033311 0.477848
    223 1.900310 -0.000141 -0.000519 0.027386 -0.033311 0.477848
    224 1.899431 -0.000324 -0.000151 -0.027386 0.033311 0.477848
    225 1.799661 -0.000237 -0.000233 -0.027386 0.033311 0.477848
    226 1.799661 -0.000237 -0.000233 -0.027386 0.033311 0.477848
    227 1.799661 -0.000237 -0.000233 -0.027386 0.033311 0.477848
    228 1.900727 0.000549 -0.000072 -0.027386 0.033311 0.477848
    229 0.599888 0.400187 -0.000029 0.000000 0.000000 0.000000
    230 0.599886 0.400185 0.000034 0.000000 0.000000 3.141593
    231 0.599503 0.400696 0.000233 0.000000 0.000000 0.000000
    232 0.600403 0.399634 -0.000466 0.000000 0.000000 -3.141592
    233 0.280000 -0.135000 2.197000 1.570796 0.000000 -1.570735
  time 1
    0 0.000000 0.000000 0.000000 0.000000 0.000000 -1.570796
    1 -0.106323 0.000000 -0.000198 0.000000 0.000000 0.000000
    2 0.000000 0.000000 0.000000 0.000000 0.000000 0.000000
    3 -0.904000 0.000000 -11.806000 0.000000 0.000000 0.000000
    4 0.000000 0.000000 -14.313999 0.000000 -1.570796 1.570857
    5 3.533001 0.000000 0.000000 0.000000 0.000000 0.000000
    6 6.250000 0.000000 0.000000 0.000000 0.000000 0.000000
    7 9.562500 -0.020981 -1.942383 -1.545388 1.187806 -1.547191
    8 9.562500 5.304688 2.056641 -1.552269 -1.032964 1.554867
    9 5.781250 -0.000031 0.000234 -1.108472 0.432525 -1.426395
    10 5.999492 -0.000592 -4.000343 0.000000 0.000000 0.000000
    11 5.781250 -0.000032 -0.000236 0.998609 -0.721336 -1.835883
    12 5.999492 -0.000592 4.000336 0.000000 0.000000 0.000000
    13 0.500225 0.000133 -0.000088 0.239836 0.000000 0.000000
    14 11.523438 -0.000292 0.000187 0.000000 0.000000 -1.200548
    15 -0.829338 0.893824 0.079659 -0.148839 0.047645 0.087266
    16 0.500225 0.000132 0.000076 0.016173 0.000000 0.000000
    17 11.523438 -0.000340 -0.000863 0.000041 0.000043 -1.605465
    18 -0.829586 0.894698 -0.079464 0.045377 -0.019621 0.087266
    19 10.599884 0.000105 -0.000553 -0.556198 0.000000 0.000000
    20 0.232178 -0.338867 -0.000028 0.000055 -0.000017 0.600356
    21 11.039063 -0.000341 -0.000647 -1.112614 0.001632 0.678769
    22 -1.214832 0.203470 -0.477489 -0.135025 -0.078677 -0.001289
    23 10.599880 0.000105 0.000549 0.113693 -0.000070 0.000050
    24 0.513672 -0.495361 0.000707 0.000000 0.000000 0.802656
    25 11.039063 -0.000338 0.000648 0.227428 -0.068909 0.758183
    26 -1.063377 0.077663 0.150230 0.045121 0.020046 -0.012850
    27 0.610302 -0.939470 0.070343 -1.656033 -0.192284 -0.171170
    28 0.639940 -0.199121 0.060188 -1.665952 -0.131350 -0.066457
    29 0.600155 1.080261 -0.339535 -1.765606 0.208716 -0.048243
    30 0.610207 0.400743 -0.010101 -1.762205 0.054477 0.020011
    31 0.629395 -0.689453 -0.229736 0.180982 0.137418 -0.862213
    32 -0.792125 0.203736 0.461300 1.439074 -0.003453 -0.018305
    33 0.610300 -0.939469 -0.070351 1.655382 0.140066 -0.175493
    34 0.639937 -0.199121 -0.060200 1.666006 0.131431 -0.066278
    35 0.600157 1.080259 0.339531 1.741680 -0.204067 0.076024
    36 0.610205 0.400743 0.010086 1.762001 -0.015356 0.028096
    37 0.629395 -0.689453 0.230347 -1.014702 -0.861529 -0.665915
    38 -0.626031 -0.069983 -0.080517 -1.447153 0.086151 0.021559
    39 2.617188 0.000145 0.000407 -0.449911 -0.624488 0.445352
    40 2.658203 0.000109 -0.000830 -0.713537 -0.442799 0.749238
    41 2.199219 0.000517 0.000117 -0.778347 0.179182 1.020052
    42 0.599952 0.959240 -0.300102 -0.174544 0.000000 0.000000
    43 2.558594 -0.000157 0.000028 -0.639349 -0.152177 0.802027
    44 2.095703 0.000480 -0.000412 -0.601494 -0.137739 0.591364
    45 0.999512 0.000031 -1.182617 -0.000001 0.000000 0.000000
    46 -0.122639 -0.721856 0.661690 -0.486644 0.223964 0.243056
    47 2.619141 0.000141 -0.000401 -0.053005 0.086820 -0.048204
    48 2.658203 0.000781 0.000162 0.200438 0.214755 1.264769
    49 2.199219 0.000516 -0.000123 0.236758 0.017676 1.474188
    50 0.599951 0.959244 0.300102 0.174544 0.000000 0.000000
    51 2.558594 -0.000149 -0.000029 0.236781 0.177166 1.399641
    52 2.097656 -0.000095 -0.000401 0.124872 -0.418758 0.877099
    53 0.999512 -0.000602 1.492188 0.000000 0.000000 0.946946
    54 0.310846 -0.606445 -0.498005 0.308107 -0.197598 0.313976
    55 1.867188 -0.000057 -0.000521 0.000000 0.000000 0.624427
    56 1.200941 0.399582 -0.000237 -0.009465 0.016087 0.007127
    57 0.000586 0.100342 -0.000319 -0.120035 -0.021926 -0.209617
    58 -0.161663 0.051712 0.194808 -2.941982 0.122408 -0.060194
    59 2.007813 -0.000088 -0.000221 -0.000049 0.000037 1.286058
    60 0.000240 0.099802 -0.000395 -0.018823 0.010833 -0.239219
    61 -0.203197 0.048607 0.069150 -3.093332 0.033217 -0.046722
    62 1.178711 0.000216 -0.000695 0.000014 0.000056 0.478939
    63 -0.000196 0.099625 -0.000034 0.000000 0.000000 -0.314102
    64 -0.088736 -0.688435 -0.145203 2.930407 -0.136130 0.513013
    65 1.708008 0.000723 -0.000198 -0.000031 0.000079 0.864800
    66 -0.000580 0.100145 -0.000311 -0.010912 0.023129 -0.260841
    67 -0.146030 -0.232426 -0.014225 3.028455 -0.094299 0.113020
    68 1.290632 0.000362 -0.000032 0.000000 0.000000 -0.008665
    69 -0.658121 -0.003575 0.072645 -0.142711 0.027792 -0.077299
    70 1.867188 -0.000057 0.000523 0.000000 0.000000 1.450173
    71 1.200079 0.399944 -0.000093 0.009465 -0.016087 0.007127
    72 0.000591 0.100342 0.000319 0.120035 0.021926 -0.209617
    73 0.068077 0.002285 -0.080050 3.111376 -0.069366 -0.060847
    74 2.007813 -0.000882 -0.000381 0.000046 -0.000038 1.379085
    75 0.000229 0.099802 0.000395 0.018823 -0.010833 -0.239219
    76 -0.018673 -0.001009 0.047544 3.109244 0.002635 -0.106673
    77 1.178665 0.001595 0.000845 0.000000 0.000000 0.743986
    78 -0.000198 0.099628 0.000034 0.000000 0.000000 -0.314102
    79 0.036892 -0.634449 0.266284 -2.801062 0.174301 0.490914
    80 1.708008 0.000723 0.000200 0.000000 0.000000 1.160579
    81 -0.000576 0.100136 0.000311 0.010912 -0.023129 -0.260841
    82 -0.003952 -0.281811 0.115047 -3.059162 0.089004 0.167964
    83 1.290039 0.000364 -0.000046 -0.000058 0.000020 0.672663
    84 -0.171528 -0.018148 -0.099873 0.013484 -0.062184 -0.011780
    85 0.919922 -0.000298 -0.000419 0.004554 0.002980 0.506586
    86 -0.342617 0.053404 -0.025571 -2.909301 -0.017248 0.075276
    87 1.099609 -0.000424 0.000134 0.000000 0.000000 0.154454
    88 -0.384983 0.330998 0.006848 -3.087207 -0.018765 -0.184279
    89 0.679688 -0.001227 0.000443 0.000000 0.000000 0.196305
    90 -0.123848 0.072737 0.029507 2.898184 -0.060627 0.094834
    91 1.017166 -0.000154 -0.000252 0.000000 0.000000 0.752180
    92 -0.344986 0.123129 0.143151 2.994981 0.012396 0.059140
    93 -0.730988 0.177046 0.039141 -0.123731 0.076518 -0.084310
    94 0.918457 0.000401 0.000086 0.000000 0.000000 0.471848
    95 -0.124027 -0.052092 0.038496 3.077813 -0.008519 0.039229
    96 1.098633 0.000008 0.000469 0.000016 0.000059 0.545759
    97 -0.330082 0.160641 0.042780 3.128073 0.034033 -0.171236
    98 0.679199 -0.000815 0.000175 0.000000 0.000000 0.674787
    99 -0.019516 -0.016531 0.038578 -2.763781 0.050305 0.076828
    100 1.019531 -0.000026 -0.000397 0.000014 0.000055 0.497121
    101 -0.155312 0.130643 -0.021921 -3.022466 0.022433 -0.024903
    102 -0.252209 0.061937 -0.024914 -0.007671 -0.063171 -0.044392
    103 -0.085991 0.185203 -0.015180 -2.937063 -0.113970 -0.138991
    104 -0.286537 0.179852 0.024264 -3.109353 -0.049645 -0.029915
    105 -0.019489 0.147084 0.079203 2.893815 0.038585 -0.060594
    106 -0.046482 0.251898 0.129548 3.016165 0.077112 -0.042864
    107 0.039120 -0.040298 0.047739 3.084219 0.030470 -0.037414
    108 -0.233757 0.066630 0.001754 -3.133087 0.040141 -0.065413
    109 0.044266 0.020128 0.001684 -2.778763 -0.118872 -0.040488
    110 0.071495 0.074127 -0.048302 -3.035917 -0.059482 0.104366
    111 0.000000 0.000000 0.000000 0.000000 0.000000 -1.570796
    112 7.812500 -3.126953 -2.847656 -0.043644 0.000000 0.000000
    113 -7.445313 12.601563 1.011719 0.596685 -0.585970 -1.378268
    114 5.690000 -0.785000 -0.379000 2.131911 0.000000 0.000000
    115 3.096000 0.000000 -1.996000 0.000000 0.000000 0.000000
    116 2.026000 0.000000 2.576000 0.000000 0.000000 0.000000
    117 7.854000 0.000000 -0.042000 0.000000 0.000000 0.000000
    118 5.690000 -0.365000 0.068000 0.000000 -0.349029 -1.570796
    119 -1.524000 -1.859000 -4.367000 -1.730304 -0.014913 0.208095
    120 7.284000 0.000000 -2.195000 0.000000 0.000000 0.000000
    121 4.587000 -0.785000 0.022000 0.000000 0.000000 0.000000
    122 3.039063 0.000000 0.961914 0.000000 0.000000 0.000000
    123 3.039063 0.000000 0.961914 0.000000 0.000000 0.000000
    124 3.718750 0.000000 0.961914 0.000000 0.000000 0.000000
    125 3.435547 0.000000 0.961914 0.000000 0.000000 0.000000
    126 3.039063 0.000000 0.961914 0.000000 0.000000 0.000000
    127 3.039063 0.000000 0.961914 0.000000 0.000000 0.000000
    128 1.086000 -0.661000 -0.149000 0.000000 0.000000 0.000000
    129 1.067000 0.589000 0.076000 0.000000 0.000000 0.000000
    130 5.136000 0.000000 1.534000 0.000000 0.000000 0.000000
    131 4.657000 0.000000 1.545000 0.000000 0.000000 0.000000
    132 -0.403000 0.000000 -0.011000 0.000000 0.000000 0.000000
    133 -0.598000 0.000000 -0.011000 0.000000 0.000000 0.000000
    134 1.781000 0.000000 0.873000 0.000000 0.000000 0.000000
    135 0.384000 0.715000 0.801000 0.000000 0.000000 0.000000
    136 1.795000 0.533000 -1.550000 0.000000 0.000000 0.000000
    137 4.436000 0.595000 -0.954000 0.000000 0.000000 0.000000
    138 4.402000 -0.614000 -1.630000 0.000000 0.000000 0.000000
    139 4.203000 -0.003000 -0.048000 0.000000 0.000000 0.000000
    140 0.000000 0.000000 0.000000 0.000000 0.000000 0.000000
    141 0.000000 0.000000 0.000000 0.000000 0.000000 0.000000
    142 13.105999 0.000000 -0.006000 0.000000 0.000000 0.000000
    143 1.868000 1.809000 -1.975000 -2.218558 -0.017169 -0.465709
    144 6.072001 0.000000 -1.238000 0.000000 0.000000 0.000000
    145 -1.323000 0.000000 0.184000 0.000000 0.000000 0.000000
    146 -19.531250 5.875000 -60.687500 0.043644 0.000000 0.000000
    147 0.146000 0.184000 1.067000 0.000000 0.000000 0.000000
    148 0.148000 0.184000 1.414000 0.000000 0.000000 0.000000
    149 0.148000 -0.074000 1.640000 0.000000 0.000000 0.000000
    150 0.496000 0.184000 -3.523000 0.000000 0.000000 0.000000
    151 0.147000 0.184000 -0.328000 0.000000 0.000000 0.000000
    152 0.147000 0.184000 0.023000 0.000000 0.000000 0.000000
    153 0.147000 0.184000 0.368000 0.000000 0.000000 0.000000
    154 0.147000 0.184000 0.717000 0.000000 0.000000 0.000000
    155 0.435000 0.184000 -3.179000 0.000000 0.000000 0.000000
    156 0.378000 0.184000 -2.826000 0.000000 0.000000 0.000000
    157 0.329000 0.184000 -2.477000 0.000000 0.000000 0.000000
    158 0.286000 0.184000 -2.127000 0.000000 0.000000 0.000000
    159 0.252000 0.184000 -1.775000 0.000000 0.000000 0.000000
    160 0.215000 0.184000 -1.417000 0.000000 0.000000 0.000000
    161 0.190000 0.184000 -1.064000 0.000000 0.000000 0.000000
    162 0.166000 0.184000 -0.714000 0.000000 0.000000 0.000000
    163 0.000000 0.000000 0.000000 0.000000 0.000000 0.000000
    164 -0.106000 0.000000 64.320000 0.000000 0.000000 0.000000
    165 0.000000 0.000000 0.000000 0.000000 0.000000 0.000000
    166 0.000000 0.000000 0.000000 0.000000 0.000000 0.000000
    167 19.220901 -3.147400 8.567799 -0.043645 0.000000 0.000000
    168 0.106000 0.000000 -64.320000 0.000000 0.000000 0.000000
    169 0.000000 0.000000 0.000000 0.000000 0.000000 0.000000
    170 0.000000 0.000000 -4.867002 -3.141593 0.000000 -3.128592
    171 0.000000 0.000000 4.867000 -3.141593 0.000000 -3.128592
    172 4.000000 -6.500000 0.000000 0.000000 0.000000 0.000977
    173 -6.500000 0.000000 0.000000 0.000000 1.570796 0.000000
    174 1.000088 -0.000029 0.000000 0.000000 0.000000 0.000000
    175 17.162516 -0.000404 0.000000 0.000000 0.000000 0.119214
    176 9.999891 -0.000302 0.000000 0.000000 0.000000 0.000000
    177 1.000088 -0.000029 0.000000 0.000000 0.000000 0.000000
    178 17.162516 -0.000404 0.000000 0.000000 0.000000 0.119214
    179 9.499836 0.000212 0.000000 0.000000 0.000000 0.000000
    180 0.000000 0.000000 0.000000 0.000000 0.000000 0.000000
    181 17.749374 0.295515 0.000000 0.000000 0.000000 -1.158958
    182 0.017889 0.299792 0.000000 0.000000 0.000000 -0.059582
    183 12.283573 1.581456 -4.696000 1.462269 -0.086726 0.090185
    184 17.749376 0.295515 0.000000 0.000000 0.000000 -1.158958
    185 0.017889 0.299792 0.000000 0.000000 0.000000 -0.059582
    186 13.354000 0.000000 0.000000 0.000000 0.000000 -0.294101
    187 4.530998 0.000000 0.000000 0.000000 0.000000 0.000000
    188 0.000000 0.000000 0.000000 0.000000 0.000000 0.000000
    189 5.413524 0.000347 0.000000 0.000000 0.000000 -0.518055
    190 5.413524 0.000347 0.000000 0.000000 0.000000 -0.518055
    191 4.662001 -5.366331 4.825191 1.569715 1.561304 -3.121219
    192 3.116966 -0.000443 0.000000 0.000000 0.000000 0.294101
    193 4.531197 0.000000 0.000000 0.000000 0.000000 0.000000
    194 3.512001 -3.547000 -1.066000 0.000000 1.570796 0.000000
    195 3.456001 -3.517000 1.169000 0.000000 1.570796 0.000000
    196 6.233002 0.000000 0.000000 0.000000 0.000000 0.000000
    197 -0.171997 -0.106000 -0.902000 1.570713 1.029175 -3.134550
    198 6.241997 -6.380000 0.000000 0.000000 0.000000 0.000000
    199 3.999434 -0.000528 -0.000328 -0.602482 -0.000058 0.000018
    200 3.999901 0.000041 0.001011 0.156170 0.000000 0.000000
    201 1.598000 0.000000 0.000000 0.000000 0.000000 0.000000
    202 -1.145525 0.000130 0.000668 0.000000 0.000000 0.000000
    203 2.299679 -2.499979 -0.599480 0.891929 0.221512 -0.527290
    204 1.442675 -0.486605 -2.015224 2.276485 -0.376178 -0.281870
    205 -9.580666 -27.862103 -37.184673 0.812879 -0.123459 -0.568477
    206 0.649933 -0.548295 0.093651 -1.665913 -0.131399 -0.112062
    207 0.657073 0.008401 0.040371 -1.665945 -0.131407 -0.000013
    208 0.665776 0.747221 -0.029190 -1.665935 -0.131408 0.094976
    209 2.300138 -2.499414 0.600155 -0.892021 -0.221512 -0.527234
    210 12.104934 -3.647287 -1.238483 1.733667 0.203088 0.048277
    211 2.762354 0.116951 1.523975 1.629481 0.064153 1.743800
    212 7.228323 7.928201 -3.925648 2.328714 0.123459 -0.568477
    213 0.650394 -0.547731 -0.092979 1.665913 0.131399 -0.112062
    214 0.657068 0.008396 -0.040379 1.665945 0.131407 -0.000013
    215 0.665772 0.747218 0.029182 1.665935 0.131408 0.094976
    216 -4.481003 -0.202000 0.000000 0.000000 0.000000 0.000000
    217 -5.516998 -0.291000 -0.001000 0.000000 0.000000 0.000000
    218 -0.857693 0.104070 0.104687 0.023536 0.163924 0.013632
    219 1.899117 0.000423 -0.000439 0.027386 -0.033311 0.477848
    220 1.799659 -0.000237 0.000231 0.027386 -0.033311 0.477848
    221 1.799659 -0.000237 0.000231 0.027386 -0.033311 0.477848
    222 1.799659 -0.000237 0.000231 0.027386 -0.033311 0.477848
    223 1.900310 -0.000141 -0.000519 0.027386 -0.033311 0.477848
    224 1.899431 -0.000324 -0.000151 -0.027386 0.033311 0.477848
    225 1.799661 -0.000237 -0.000233 -0.027386 0.033311 0.477848
    226 1.799661 -0.000237 -0.000233 -0.027386 0.033311 0.477848
    227 1.799661 -0.000237 -0.000233 -0.027386 0.033311 0.477848
    228 1.900727 0.000549 -0.000072 -0.027386 0.033311 0.477848
    229 0.599888 0.400187 -0.000029 0.000000 0.000000 0.000000
    230 0.599886 0.400185 0.000034 0.000000 0.000000 3.141593
    231 0.599503 0.400696 0.000233 0.000000 0.000000 0.000000
    232 0.600403 0.399634 -0.000466 0.000000 0.000000 -3.141592
    233 0.280000 -0.135000 2.197000 1.570796 0.000000 -1.570735
end
