// Created by Crowbar 0.74
version 1
nodes
  0 "tag_origin" -1
  1 "tag_view" 0
  2 "tag_ads" 1
  3 "tag_torso" 2
  4 "j_mainroot" 3
  5 "j_spinelower" 4
  6 "j_spineupper" 5
  7 "j_clavicle_le" 6
  8 "j_clavicle_ri" 6
  9 "j_shoulder_le" 7
  10 "j_teres_le" 7
  11 "j_shoulder_ri" 8
  12 "j_teres_ri" 8
  13 "j_shouldertwist_le" 9
  14 "j_elbow_le" 9
  15 "ValveBiped.Bip01_L_UpperArm" 9
  16 "j_shouldertwist_ri" 11
  17 "j_elbow_ri" 11
  18 "ValveBiped.Bip01_R_UpperArm" 11
  19 "j_wristfronttwist1_le" 14
  20 "j_elbowdq_le" 14
  21 "j_wrist_le" 14
  22 "ValveBiped.Bip01_L_Forearm" 19
  23 "j_wristfronttwist1_ri" 17
  24 "j_elbowdq_ri" 17
  25 "j_wrist_ri" 17
  26 "ValveBiped.Bip01_R_Forearm" 23
  27 "j_metaindex_le_1" 21
  28 "j_metamid_le_1" 21
  29 "j_metapinky_le_1" 21
  30 "j_metaring_le_1" 21
  31 "j_thumb_le_1" 21
  32 "ValveBiped.Bip01_L_Hand" 21
  33 "j_metaindex_ri_1" 25
  34 "j_metamid_ri_1" 25
  35 "j_metapinky_ri_1" 25
  36 "j_metaring_ri_1" 25
  37 "j_thumb_ri_1" 25
  38 "ValveBiped.Bip01_R_Hand" 25
  39 "j_index_le_1" 27
  40 "j_mid_le_1" 28
  41 "j_pinky_le_1" 29
  42 "j_webbing_le_3" 29
  43 "j_ring_le_1" 30
  44 "j_thumb_le_2" 31
  45 "j_webbing_le_2" 31
  46 "ValveBiped.Bip01_L_Finger0" 31
  47 "j_index_ri_1" 33
  48 "j_mid_ri_1" 34
  49 "j_pinky_ri_1" 35
  50 "j_webbing_ri_3" 35
  51 "j_ring_ri_1" 36
  52 "j_thumb_ri_2" 37
  53 "j_webbing_ri_2" 37
  54 "ValveBiped.Bip01_R_Finger0" 37
  55 "j_index_le_2" 39
  56 "j_indexbulge_le_1" 39
  57 "j_proc_index_le_1" 39
  58 "ValveBiped.Bip01_L_Finger1" 39
  59 "j_mid_le_2" 40
  60 "j_proc_mid_le_1" 40
  61 "ValveBiped.Bip01_L_Finger2" 40
  62 "j_pinky_le_2" 41
  63 "j_proc_pinky_le_1" 41
  64 "ValveBiped.Bip01_L_Finger4" 41
  65 "j_ring_le_2" 43
  66 "j_proc_ring_le_1" 43
  67 "ValveBiped.Bip01_L_Finger3" 43
  68 "j_thumb_le_3" 44
  69 "ValveBiped.Bip01_L_Finger01" 44
  70 "j_index_ri_2" 47
  71 "j_indexbulge_ri_1" 47
  72 "j_proc_index_ri_1" 47
  73 "ValveBiped.Bip01_R_Finger1" 47
  74 "j_mid_ri_2" 48
  75 "j_proc_mid_ri_1" 48
  76 "ValveBiped.Bip01_R_Finger2" 48
  77 "j_pinky_ri_2" 49
  78 "j_proc_pinky_ri_1" 49
  79 "ValveBiped.Bip01_R_Finger4" 49
  80 "j_ring_ri_2" 51
  81 "j_proc_ring_ri_1" 51
  82 "ValveBiped.Bip01_R_Finger3" 51
  83 "j_thumb_ri_3" 52
  84 "ValveBiped.Bip01_R_Finger01" 52
  85 "j_index_le_3" 55
  86 "ValveBiped.Bip01_L_Finger11" 55
  87 "j_mid_le_3" 59
  88 "ValveBiped.Bip01_L_Finger21" 59
  89 "j_pinky_le_3" 62
  90 "ValveBiped.Bip01_L_Finger41" 62
  91 "j_ring_le_3" 65
  92 "ValveBiped.Bip01_L_Finger31" 65
  93 "ValveBiped.Bip01_L_Finger02" 68
  94 "j_index_ri_3" 70
  95 "ValveBiped.Bip01_R_Finger11" 70
  96 "j_mid_ri_3" 74
  97 "ValveBiped.Bip01_R_Finger21" 74
  98 "j_pinky_ri_3" 77
  99 "ValveBiped.Bip01_R_Finger41" 77
  100 "j_ring_ri_3" 80
  101 "ValveBiped.Bip01_R_Finger31" 80
  102 "ValveBiped.Bip01_R_Finger02" 83
  103 "ValveBiped.Bip01_L_Finger12" 85
  104 "ValveBiped.Bip01_L_Finger22" 87
  105 "ValveBiped.Bip01_L_Finger42" 89
  106 "ValveBiped.Bip01_L_Finger32" 91
  107 "ValveBiped.Bip01_R_Finger12" 94
  108 "ValveBiped.Bip01_R_Finger22" 96
  109 "ValveBiped.Bip01_R_Finger42" 98
  110 "ValveBiped.Bip01_R_Finger32" 100
  111 "ValveBiped.Anim_Attachment_RH" -1
  112 "tag_sling" -1
  113 "tag_attachments" 112
  114 "j_gun" -1
  115 "j_trigger" 112
  116 "tag_acog_2" 112
  117 "tag_barrel_attach" 112
  118 "tag_flash" 117
  119 "tag_folding_grip" 117
  120 "tag_grenade_launcher" 117
  121 "tag_grip_attach" 117
  122 "tag_ik_loc_le" 117
  123 "tag_laser_attach" 117
  124 "tag_silencer" 117
  125 "tag_grip_hide" 117
  126 "tag_brass" 112
  127 "tag_cosmetic" 112
  128 "tag_holo" 112
  129 "tag_hybrid" 112
  130 "j_hybrid_scope" 129
  131 "j_magnifier_lever" 129
  132 "tag_glass_ads2" 129
  133 "tag_glass_hip2" 129
  134 "tag_reticle_attach2" 129
  135 "tag_ik_loc_ri" 112
  136 "tag_mag_attach" 112
  137 "j_mag1" 136
  138 "j_mag_follower" 137
  139 "j_mag2" 136
  140 "tag_pistolgrip_attach" 112
  141 "tag_reflex" 112
  142 "tag_scope" 112
  143 "tag_sight_on" 112
  144 "tag_stock_attach" 112
  145 "j_charginghandle" 112
  146 "j_charginghandleassist" 112
  147 "j_firesel" 112
  148 "j_magrel" 112
  149 "j_magrel_right" 112
  150 "j_mike4_bolt" 112
  151 "tag_sight_off" 112
  152 "tag_tip" 117
  153 "j_stock" 144
  154 "tag_stock_hide" 112
  155 "j_b_01" 137
  156 "j_b_010" 137
  157 "j_b_011" 137
  158 "j_b_012" 137
  159 "j_b_013" 137
  160 "j_b_014" 137
  161 "j_b_015" 137
  162 "j_b_016" 137
  163 "j_b_02" 137
  164 "j_b_03" 137
  165 "j_b_04" 137
  166 "j_b_05" 137
  167 "j_b_06" 137
  168 "j_b_07" 137
  169 "j_b_08" 137
  170 "j_b_09" 137
  171 "tag_sight_on2" 117
  172 "tag_sight_off2" 117
  173 "tag_sync" 0
  174 "j_hip_le" 4
  175 "j_hiptwist_le" 174
  176 "j_knee_le" 174
  177 "j_ankle_le" 176
  178 "j_ball_le" 177
  179 "j_kneedq_le" 176
  180 "j_hip_proc_le" 174
  181 "j_hip_ri" 4
  182 "j_hiptwist_ri" 181
  183 "tag_stowed_thigh" 182
  184 "j_knee_ri" 181
  185 "j_ankle_ri" 184
  186 "j_ball_ri" 185
  187 "j_kneedq_ri" 184
  188 "j_hip_proc_ri" 181
  189 "j_proc_wristfronttwist1_le" 19
  190 "tag_wrist_attach_le" 189
  191 "j_shield_le" 14
  192 "j_index_le_4" 85
  193 "j_thumb_le_4" 68
  194 "j_webbing_le_1" 21
  195 "tag_weapon_left" 21
  196 "tag_accessory_left" 21
  197 "j_proc_metaindex_le_1" 21
  198 "j_proc_metaindex_le_2" 197
  199 "j_proc_metaknuckle_le_1" 21
  200 "j_proc_knuckle_le_1" 199
  201 "j_proc_idle_knuckle_le_1" 199
  202 "j_proc_orient_knuckle_le_1" 199
  203 "j_proc_metapinky_le_1" 21
  204 "j_proc_metapinky_le_2" 203
  205 "tag_carry_attach" 7
  206 "j_shield_ri" 17
  207 "j_index_ri_4" 94
  208 "j_thumb_ri_4" 83
  209 "j_webbing_ri_1" 25
  210 "tag_weapon_right" 25
  211 "tag_knife_attach2" 25
  212 "tag_accessory_right" 25
  213 "j_proc_metaindex_ri_1" 25
  214 "j_proc_metaindex_ri_2" 213
  215 "j_proc_metaknuckle_ri_1" 25
  216 "j_proc_knuckle_ri_1" 215
  217 "j_proc_idle_knuckle_ri_1" 215
  218 "j_proc_orient_knuckle_ri_1" 215
  219 "j_proc_metapinky_ri_1" 25
  220 "j_proc_metapinky_ri_2" 219
  221 "j_spine4" 6
  222 "j_chest" 221
  223 "j_proc_spineupper" 6
  224 "j_proc_spinelower" 5
  225 "j_groinprotector" 4
  226 "j_crotch" 4
  227 "tag_weapon" 3
  228 "j_bullet2" 137
  229 "tag_cambone" 1
  230 "tag_camera" 229
  231 "tag_player" 230
  232 "tag_playerhelmet" 230
  233 "tag_camera_scripted" 0
  234 "j_grenade" -1
  235 "j_gun.001" 227
  236 "j_barrel" 112
  237 "j_safety" 112
  238 "j_lever" 120
  239 "tag_flash_alt" 120
  240 "tag_ik_loc_le_launcher" 120
  241 "j_chamber" 120
  242 "j_grenade_empty" 120
  243 "j_basespring" 137
  244 "j_bullet" 137
  245 "tag_rail_attach" 112
  246 "Joints" -1
end
skeleton
  time 0
    0 0.000000 0.000000 0.000000 0.000000 0.000000 -1.570796
    1 -0.106750 -0.000001 -0.000351 0.000000 0.000000 0.000000
    2 0.000000 0.000000 0.000000 0.000000 0.000000 0.000000
    3 -0.904000 0.000000 -11.806000 0.000000 0.000000 0.000000
    4 0.000000 0.000000 -14.313999 1.570792 -1.570790 0.000000
    5 3.533001 0.000000 0.000000 0.000046 0.000000 0.000000
    6 6.250000 0.000000 0.000000 0.000000 0.000000 0.000000
    7 9.562500 1.947266 -1.984375 -0.161243 1.437159 -0.160076
    8 9.562500 1.947266 1.984375 0.098334 -1.350389 -0.096207
    9 5.781250 -0.000004 0.000010 0.592101 1.011003 0.204649
    10 5.999492 -0.000592 -4.000343 0.000000 0.000000 0.000000
    11 5.781250 0.000003 -0.000020 1.004073 -1.170687 -0.991566
    12 5.999492 -0.000592 4.000340 0.000000 0.000000 0.000000
    13 0.500225 0.000133 -0.000084 0.000000 0.000000 0.000000
    14 11.523438 -0.000001 0.000011 -0.000047 0.000039 -1.771555
    15 -0.829338 0.893824 0.079659 -0.148839 0.047645 0.087266
    16 0.500225 0.000132 0.000072 0.000000 0.000000 0.000000
    17 11.523438 0.000010 -0.000031 -0.000039 -0.000047 -1.776098
    18 -0.829586 0.894698 -0.079468 0.045377 -0.019621 0.087266
    19 10.599886 0.000105 -0.000553 0.000000 0.000000 0.000000
    20 0.119665 -0.275181 -0.000805 0.000000 0.000000 0.409862
    21 11.039063 0.000010 -0.000010 0.613916 -0.212641 -0.358975
    22 -11.814724 0.424524 -0.297680 0.247998 -0.066121 -0.042695
    23 10.599878 0.000105 0.000549 0.000000 0.000000 0.000000
    24 0.119663 -0.275181 0.000801 0.000000 0.000000 0.409860
    25 11.039063 -0.000004 0.000036 0.125875 0.117622 -0.543799
    26 -11.663242 0.094713 0.140656 -0.068591 0.018527 -0.015099
    27 0.610300 -0.939470 0.070347 -1.655306 -0.140109 -0.175629
    28 0.639938 -0.199121 0.060192 -1.666052 -0.131435 -0.066360
    29 0.600155 1.080260 -0.339535 -1.738088 0.020769 0.107419
    30 0.610207 0.400743 -0.010098 -1.762383 -0.061628 0.042971
    31 0.629883 -0.689941 -0.229980 0.562814 0.491669 -0.748656
    32 -0.792125 0.203736 0.461304 1.439074 -0.003453 -0.018305
    33 0.610300 -0.939469 -0.070354 1.655295 0.140103 -0.175544
    34 0.639938 -0.199121 -0.060200 1.665867 0.131388 -0.066417
    35 0.600157 1.080260 0.339531 1.741500 -0.204018 0.076003
    36 0.610205 0.400743 0.010086 1.761929 -0.015441 0.028091
    37 0.629883 -0.689941 0.229980 -1.014622 -0.861514 -0.665850
    38 -0.626031 -0.069982 -0.080517 -1.447153 0.086151 0.021559
    39 2.619141 0.000073 -0.000002 -0.115103 -0.159829 1.246685
    40 2.658203 0.000003 0.000000 -0.121161 -0.047914 1.400158
    41 2.199219 -0.000001 -0.000006 -0.093309 0.106595 1.536112
    42 0.599950 0.959236 -0.300102 -0.174544 0.000000 0.000000
    43 2.558594 0.000000 -0.000002 -0.090604 -0.013395 1.443579
    44 2.099609 0.000041 0.000000 -0.259656 0.312332 0.494576
    45 0.999378 -0.000238 -1.209370 0.000000 0.000000 0.000000
    46 -0.122641 -0.721855 0.661686 -0.486644 0.223964 0.243056
    47 2.619141 0.000072 0.000012 -0.053002 0.086823 -0.048142
    48 2.658203 0.000002 0.000002 0.200361 0.214735 1.264830
    49 2.199219 -0.000004 0.000002 0.236804 0.017719 1.474222
    50 0.599949 0.959244 0.300102 0.174544 0.000000 0.000000
    51 2.558594 0.000010 0.000001 0.236736 0.177129 1.399558
    52 2.099609 0.000039 0.000004 0.124814 -0.418734 0.877107
    53 0.999376 -0.000240 1.209366 0.000000 0.000000 0.000000
    54 0.310848 -0.606446 -0.498005 0.308107 -0.197598 0.313975
    55 1.867188 0.000006 0.000002 0.000165 -0.000041 2.058794
    56 1.200941 0.399582 -0.000237 -0.009465 0.016087 0.007127
    57 0.000586 0.100342 -0.000319 -0.120035 -0.021926 -0.209617
    58 -0.161663 0.051712 0.194808 -2.941982 0.122408 -0.060194
    59 2.007813 0.000001 -0.000002 0.000082 -0.000018 1.999818
    60 0.000237 0.099800 -0.000395 -0.018823 0.010833 -0.239219
    61 -0.203197 0.048607 0.069150 -3.093332 0.033217 -0.046722
    62 1.179688 0.000005 0.000006 0.000039 0.000045 1.422044
    63 -0.000196 0.099625 -0.000034 0.000000 0.000000 -0.314102
    64 -0.088737 -0.688435 -0.145203 2.930407 -0.136130 0.513013
    65 1.708984 0.000000 -0.000004 -0.000084 0.000001 1.594257
    66 -0.000576 0.100143 -0.000311 -0.010914 0.023131 -0.260843
    67 -0.146027 -0.232426 -0.014225 3.028455 -0.094299 0.113020
    68 1.290634 0.000361 -0.000036 -0.014903 0.077179 0.498017
    69 -0.658119 -0.003576 0.072643 -0.142711 0.027792 -0.077299
    70 1.867188 0.000002 0.000001 0.000000 0.000000 0.085660
    71 1.200075 0.399942 -0.000093 0.009465 -0.016087 0.007127
    72 0.000589 0.100342 0.000319 0.120035 0.021926 -0.209617
    73 0.068073 0.002283 -0.080050 3.111376 -0.069366 -0.060847
    74 2.007813 0.000004 0.000002 -0.000085 -0.000007 1.379095
    75 0.000233 0.099800 0.000395 0.018823 -0.010833 -0.239219
    76 -0.018673 -0.001009 0.047544 3.109244 0.002635 -0.106673
    77 1.178665 0.001595 0.000845 0.000000 0.000000 0.743920
    78 -0.000196 0.099628 0.000034 0.000000 0.000000 -0.314102
    79 0.036894 -0.634449 0.266284 -2.801062 0.174301 0.490915
    80 1.708984 0.000002 -0.000001 0.000000 0.000000 1.160723
    81 -0.000580 0.100140 0.000311 0.010910 -0.023132 -0.260845
    82 -0.003952 -0.281811 0.115047 -3.059162 0.089004 0.167964
    83 1.289063 0.000000 -0.000002 0.000000 0.000000 0.672732
    84 -0.171526 -0.018150 -0.099873 0.013484 -0.062184 -0.011781
    85 0.919922 0.000074 -0.000029 0.000017 -0.000085 1.177779
    86 -0.342617 0.053402 -0.025571 -2.909301 -0.017248 0.075276
    87 1.099609 0.000021 -0.000013 -0.000083 -0.000025 0.987469
    88 -0.384979 0.331001 0.006848 -3.087207 -0.018765 -0.184278
    89 0.679688 -0.000002 -0.000002 -0.000019 -0.000083 1.996345
    90 -0.123848 0.072738 0.029507 2.898184 -0.060627 0.094835
    91 1.017166 -0.000154 -0.000252 -0.000006 0.000085 1.458583
    92 -0.344990 0.123129 0.143151 2.994981 0.012396 0.059140
    93 -0.730989 0.177046 0.039141 -0.123731 0.076518 -0.084310
    94 0.919922 0.000067 0.000027 0.000000 0.000000 0.056831
    95 -0.124023 -0.052090 0.038495 3.077813 -0.008519 0.039229
    96 1.099609 0.000017 0.000012 0.000016 0.000059 0.545757
    97 -0.330082 0.160639 0.042780 3.128073 0.034033 -0.171236
    98 0.679688 0.000005 0.000002 0.000000 0.000000 0.674858
    99 -0.019512 -0.016531 0.038578 -2.763781 0.050305 0.076829
    100 1.019531 -0.000002 0.000000 0.000000 0.000000 0.497056
    101 -0.155308 0.130644 -0.021921 -3.022466 0.022433 -0.024902
    102 -0.252207 0.061937 -0.024914 -0.007671 -0.063171 -0.044392
    103 -0.085995 0.185205 -0.015180 -2.937063 -0.113970 -0.138991
    104 -0.286533 0.179852 0.024264 -3.109353 -0.049645 -0.029914
    105 -0.019482 0.147083 0.079203 2.893815 0.038585 -0.060594
    106 -0.046482 0.251896 0.129548 3.016165 0.077112 -0.042864
    107 0.039124 -0.040295 0.047739 3.084219 0.030470 -0.037414
    108 -0.233757 0.066630 0.001754 -3.133087 0.040141 -0.065412
    109 0.044266 0.020131 0.001684 -2.778763 -0.118872 -0.040488
    110 0.071495 0.074128 -0.048302 -3.035917 -0.059482 0.104366
    111 0.000000 0.000000 0.000000 0.000000 0.000000 -1.570796
    112 -8.421875 -7.285156 -6.542969 -0.022390 -1.052332 -1.481328
    113 0.000000 0.000000 0.000000 0.000000 0.000000 0.000000
    114 -14.007813 5.660156 -22.406250 -1.339802 -1.403019 0.574607
    115 3.096000 0.000000 -1.996000 0.000005 -0.159230 -0.000062
    116 3.040999 0.000000 1.202000 0.000000 0.000000 0.000000
    117 7.854000 0.000000 -0.042000 0.000000 0.000000 0.000000
    118 13.105999 0.000000 -0.006000 0.000000 0.000000 0.000000
    119 3.456000 0.000000 -1.084000 0.000000 0.000000 0.000000
    120 1.804000 0.000000 -1.025000 0.000000 0.000000 0.000000
    121 7.098000 0.000000 -1.084000 0.000000 0.000000 0.000000
    122 -16.531250 19.218750 -5.019531 -0.960696 0.677787 -0.634734
    123 3.740000 0.000000 1.273000 0.000000 0.000000 0.000000
    124 11.956999 0.000000 -0.006000 0.000000 0.000000 0.000000
    125 6.072001 0.000000 -1.238000 0.000000 0.000000 0.000000
    126 5.690000 -0.365000 0.068000 0.000000 -0.349029 -1.570796
    127 6.396999 0.614000 0.428000 0.000000 0.000000 0.000000
    128 3.040999 0.000000 1.202000 0.000000 0.000000 0.000000
    129 3.720000 0.000000 1.202000 0.000000 0.000000 0.000000
    130 1.086000 -0.661000 -0.149000 0.000000 0.000000 0.000000
    131 1.067000 0.589000 0.076000 0.000000 0.000000 0.000000
    132 0.000000 -0.019000 0.000000 0.000000 0.000000 0.000000
    133 0.000000 -0.019000 0.000000 0.000000 0.000000 0.000000
    134 3.300000 -0.019000 1.346000 0.000000 0.000000 0.000000
    135 -1.524000 -1.859000 -4.367000 -1.730305 -0.014914 0.208094
    136 7.283999 0.000000 -2.195000 0.000000 0.000000 0.000000
    137 -1.323000 0.000000 0.184000 0.000000 0.000000 0.000000
    138 0.082000 0.000000 1.002000 0.000000 0.000000 0.000000
    139 -19.531250 5.875000 -60.687500 0.043644 0.000000 0.000000
    140 0.478000 0.000000 -4.537000 0.000000 0.000000 0.000000
    141 3.436000 0.000000 1.202000 0.000000 0.000000 0.000000
    142 3.040999 0.000000 1.202000 0.000000 0.000000 0.000000
    143 4.657000 0.000000 1.545000 0.000000 0.000000 0.000000
    144 -0.403000 0.000000 -0.011000 0.000000 0.000000 0.000000
    145 1.781000 0.000000 0.873000 0.000000 0.000000 0.000000
    146 0.384000 0.715000 0.801000 0.000000 0.000000 0.000000
    147 1.795000 0.533000 -1.550000 0.000000 0.000000 0.000000
    148 4.435999 0.595000 -0.954000 0.000000 0.000000 0.000000
    149 4.401999 -0.614000 -1.630000 0.000000 0.000000 0.000000
    150 4.203000 -0.003000 -0.048000 0.000000 0.000000 0.000000
    151 5.136000 0.000000 1.534000 0.000000 0.000000 0.000000
    152 11.957001 0.000000 -0.006000 0.000000 0.000000 0.000000
    153 -2.103001 0.000000 0.000000 0.000000 0.000000 0.000000
    154 -0.598001 0.000000 -0.011000 0.000000 0.000000 0.000000
    155 0.496000 0.184000 -3.523000 0.000000 0.000000 0.000000
    156 0.147000 0.184000 -0.328000 0.000000 0.000000 0.000000
    157 0.147000 0.184000 0.023000 0.000000 0.000000 0.000000
    158 0.147000 0.184000 0.368000 0.000000 0.000000 0.000000
    159 0.147000 0.184000 0.717000 0.000000 0.000000 0.000000
    160 0.147000 0.184000 1.067000 0.000000 0.000000 0.000000
    161 0.148000 0.184000 1.414000 0.000000 0.000000 0.000000
    162 0.148000 -0.074000 1.640000 0.000000 0.000000 0.000000
    163 0.435000 0.184000 -3.179000 0.000000 0.000000 0.000000
    164 0.378000 0.184000 -2.826000 0.000000 0.000000 0.000000
    165 0.329000 0.184000 -2.477000 0.000000 0.000000 0.000000
    166 0.286000 0.184000 -2.127000 0.000000 0.000000 0.000000
    167 0.252000 0.184000 -1.775000 0.000000 0.000000 0.000000
    168 0.215000 0.184000 -1.417000 0.000000 0.000000 0.000000
    169 0.190000 0.184000 -1.064000 0.000000 0.000000 0.000000
    170 0.166000 0.184000 -0.714000 0.000000 0.000000 0.000000
    171 1.622000 0.000000 1.568000 0.000000 0.000000 0.000000
    172 2.240000 0.000000 1.568000 0.000000 0.000000 0.000000
    173 0.000000 0.000000 0.000000 0.000000 0.000000 0.000000
    174 0.000000 0.000000 -4.867001 3.141568 0.003213 -3.128594
    175 1.000088 -0.000029 0.000000 0.000000 0.000000 0.000000
    176 17.162518 -0.000404 0.000000 0.000000 0.000000 0.119215
    177 17.749374 0.295515 0.000000 0.000000 0.000000 -1.158976
    178 5.413528 0.000347 0.000000 0.000000 0.000000 -0.518057
    179 0.017887 0.299792 0.000000 0.000000 0.000000 -0.059583
    180 9.999889 -0.000303 0.000000 0.000000 0.000000 0.000000
    181 0.000000 0.000000 4.867000 3.141526 -0.003205 -3.128592
    182 1.000088 -0.000029 0.000000 0.000000 0.000000 0.000000
    183 12.283573 1.581455 -4.695999 1.462269 -0.086726 0.090185
    184 17.162518 -0.000404 0.000000 0.000000 0.000000 0.119215
    185 17.749374 0.295515 0.000000 0.000000 0.000000 -1.158976
    186 5.413528 0.000347 0.000000 0.000000 0.000000 -0.518057
    187 0.017887 0.299792 0.000000 0.000000 0.000000 -0.059579
    188 9.499836 0.000212 0.000000 0.000000 0.000000 0.000000
    189 -1.145525 0.000130 0.000671 0.000000 0.000000 0.000000
    190 -0.857691 0.104071 0.104687 0.023536 0.163924 0.013632
    191 3.999430 -0.000528 -0.000332 0.304286 0.000000 0.000000
    192 0.599499 0.400698 0.000236 0.000000 0.000000 0.000000
    193 0.599886 0.400186 -0.000027 0.000000 0.000000 0.000000
    194 2.299677 -2.499979 -0.599480 0.891951 0.221434 -0.527257
    195 17.906250 -19.125000 8.281250 0.785989 -0.887194 -0.117434
    196 -9.580679 -27.862108 -37.184677 0.812879 -0.123459 -0.568477
    197 0.649935 -0.548296 0.093658 -1.665913 -0.131399 -0.112062
    198 1.899127 0.000427 -0.000439 0.027386 -0.033311 0.477848
    199 0.657078 0.008400 0.040375 -1.665945 -0.131407 -0.000013
    200 1.799664 -0.000240 0.000231 0.027386 -0.033311 0.477848
    201 1.799664 -0.000240 0.000231 0.027386 -0.033311 0.477848
    202 1.799664 -0.000240 0.000231 0.027386 -0.033311 0.477848
    203 0.665774 0.747222 -0.029186 -1.665935 -0.131408 0.094976
    204 1.900306 -0.000137 -0.000517 0.027386 -0.033311 0.477848
    205 5.214844 -7.332031 4.218750 1.551228 1.438884 -3.139753
    206 3.999897 0.000040 0.001007 0.073505 -0.000002 0.000061
    207 0.600403 0.399632 -0.000469 0.000000 0.000000 -3.139640
    208 0.599890 0.400186 0.000031 0.000000 0.000000 3.138210
    209 2.300137 -2.499413 0.600155 -0.892000 -0.221562 -0.527204
    210 12.101563 -3.646484 -1.237305 1.733563 0.203051 0.048220
    211 2.762354 0.116951 1.523975 1.629482 0.064153 1.743800
    212 7.228317 7.928200 -3.925652 2.328713 0.123459 -0.568477
    213 0.650396 -0.547731 -0.092976 1.665913 0.131399 -0.112062
    214 1.899441 -0.000320 -0.000150 -0.027386 0.033311 0.477848
    215 0.657068 0.008398 -0.040379 1.665945 0.131407 -0.000013
    216 1.799659 -0.000233 -0.000233 -0.027386 0.033311 0.477848
    217 1.799659 -0.000233 -0.000233 -0.027386 0.033311 0.477848
    218 1.799659 -0.000233 -0.000233 -0.027386 0.033311 0.477848
    219 0.665778 0.747222 0.029179 1.665935 0.131408 0.094976
    220 1.900722 0.000549 -0.000072 -0.027386 0.033311 0.477848
    221 4.530998 0.000000 0.000000 0.000000 0.000000 0.000000
    222 4.527344 -0.000001 0.000000 0.000000 0.000000 0.000000
    223 0.000000 0.000000 0.000000 0.000000 0.000000 0.000000
    224 0.000000 0.000000 0.000000 0.000000 0.000000 0.000000
    225 4.000000 -6.500000 0.000000 0.000046 0.000000 0.000978
    226 -6.500000 0.000000 0.000000 0.000000 1.570795 0.000000
    227 13.757813 -7.945313 14.093750 -0.022390 -1.052332 0.089468
    228 0.280000 -0.135000 2.196999 1.570796 0.000000 -1.570735
    229 0.000000 0.000000 0.000000 0.000000 0.000000 0.000000
    230 0.000000 0.000000 0.000000 0.000000 0.001221 0.000000
    231 0.106000 0.000000 -64.320000 0.000000 0.000000 0.000000
    232 0.000000 0.000000 0.000000 0.000000 0.000000 0.000000
    233 -0.106000 0.000000 64.320000 0.000000 0.000000 0.000000
    234 -7.660156 -16.468750 4.429688 -0.022390 -1.052332 -1.481328
    235 -30.812500 -4.484375 4.058594 0.648433 -0.593657 0.163878
    236 1.688000 -0.001000 -1.454002 0.000000 0.000000 0.000000
    237 -1.070999 -0.005000 0.545002 0.000000 0.000000 0.000000
    238 5.895000 0.750997 -0.156000 0.000000 0.000000 0.000000
    239 11.599999 -0.000003 -1.500002 0.000000 0.000000 0.000000
    240 1.037001 1.337997 -4.334000 -2.791227 -0.162411 -0.765711
    241 7.216001 -0.000003 -1.579000 0.000000 0.000000 0.000000
    242 4.445999 -0.000003 -1.500000 0.000000 0.000000 0.000000
    243 0.673937 -0.015635 -4.768713 -3.141592 -1.281051 3.141593
    244 0.094999 -0.144000 0.332001 0.000000 0.000000 0.000000
    245 14.209020 0.000022 0.766988 0.000000 0.000000 0.000000
    246 0.000000 0.000000 0.000000 1.570800 0.000000 -1.570796
  time 1
    0 0.000000 0.000000 0.000000 0.000000 0.000000 -1.570796
    1 -0.106750 -0.000001 -0.000351 0.000000 0.000000 0.000000
    2 0.000000 0.000000 0.000000 0.000000 0.000000 0.000000
    3 -0.904000 0.000000 -11.806000 0.000000 0.000000 0.000000
    4 0.000000 0.000000 -14.313999 1.570792 -1.570790 0.000000
    5 3.533001 0.000000 0.000000 0.000046 0.000000 0.000000
    6 6.250000 0.000000 0.000000 0.000000 0.000000 0.000000
    7 9.562500 1.947266 -1.984375 -0.161243 1.437159 -0.160076
    8 9.562500 1.947266 1.984375 0.098334 -1.350389 -0.096207
    9 5.781250 -0.000004 0.000010 0.592101 1.011003 0.204649
    10 5.999492 -0.000592 -4.000343 0.000000 0.000000 0.000000
    11 5.781250 0.000003 -0.000020 1.004073 -1.170687 -0.991566
    12 5.999492 -0.000592 4.000340 0.000000 0.000000 0.000000
    13 0.500225 0.000133 -0.000084 0.000000 0.000000 0.000000
    14 11.523438 -0.000001 0.000011 -0.000047 0.000039 -1.771555
    15 -0.829338 0.893824 0.079659 -0.148839 0.047645 0.087266
    16 0.500225 0.000132 0.000072 0.000000 0.000000 0.000000
    17 11.523438 0.000010 -0.000031 -0.000039 -0.000047 -1.776098
    18 -0.829586 0.894698 -0.079468 0.045377 -0.019621 0.087266
    19 10.599886 0.000105 -0.000553 0.000000 0.000000 0.000000
    20 0.119665 -0.275181 -0.000805 0.000000 0.000000 0.409862
    21 11.039063 0.000010 -0.000010 0.613916 -0.212641 -0.358975
    22 -11.814724 0.424524 -0.297680 0.247998 -0.066121 -0.042695
    23 10.599878 0.000105 0.000549 0.000000 0.000000 0.000000
    24 0.119663 -0.275181 0.000801 0.000000 0.000000 0.409860
    25 11.039063 -0.000004 0.000036 0.125875 0.117622 -0.543799
    26 -11.663242 0.094713 0.140656 -0.068591 0.018527 -0.015099
    27 0.610300 -0.939470 0.070347 -1.655306 -0.140109 -0.175629
    28 0.639938 -0.199121 0.060192 -1.666052 -0.131435 -0.066360
    29 0.600155 1.080260 -0.339535 -1.738088 0.020769 0.107419
    30 0.610207 0.400743 -0.010098 -1.762383 -0.061628 0.042971
    31 0.629883 -0.689941 -0.229980 0.562814 0.491669 -0.748656
    32 -0.792125 0.203736 0.461304 1.439074 -0.003453 -0.018305
    33 0.610300 -0.939469 -0.070354 1.655295 0.140103 -0.175544
    34 0.639938 -0.199121 -0.060200 1.665867 0.131388 -0.066417
    35 0.600157 1.080260 0.339531 1.741500 -0.204018 0.076003
    36 0.610205 0.400743 0.010086 1.761929 -0.015441 0.028091
    37 0.629883 -0.689941 0.229980 -1.014622 -0.861514 -0.665850
    38 -0.626031 -0.069982 -0.080517 -1.447153 0.086151 0.021559
    39 2.619141 0.000073 -0.000002 -0.115103 -0.159829 1.246685
    40 2.658203 0.000003 0.000000 -0.121161 -0.047914 1.400158
    41 2.199219 -0.000001 -0.000006 -0.093309 0.106595 1.536112
    42 0.599950 0.959236 -0.300102 -0.174544 0.000000 0.000000
    43 2.558594 0.000000 -0.000002 -0.090604 -0.013395 1.443579
    44 2.099609 0.000041 0.000000 -0.259656 0.312332 0.494576
    45 0.999378 -0.000238 -1.209370 0.000000 0.000000 0.000000
    46 -0.122641 -0.721855 0.661686 -0.486644 0.223964 0.243056
    47 2.619141 0.000072 0.000012 -0.053002 0.086823 -0.048142
    48 2.658203 0.000002 0.000002 0.200361 0.214735 1.264830
    49 2.199219 -0.000004 0.000002 0.236804 0.017719 1.474222
    50 0.599949 0.959244 0.300102 0.174544 0.000000 0.000000
    51 2.558594 0.000010 0.000001 0.236736 0.177129 1.399558
    52 2.099609 0.000039 0.000004 0.124814 -0.418734 0.877107
    53 0.999376 -0.000240 1.209366 0.000000 0.000000 0.000000
    54 0.310848 -0.606446 -0.498005 0.308107 -0.197598 0.313975
    55 1.867188 0.000006 0.000002 0.000165 -0.000041 2.058794
    56 1.200941 0.399582 -0.000237 -0.009465 0.016087 0.007127
    57 0.000586 0.100342 -0.000319 -0.120035 -0.021926 -0.209617
    58 -0.161663 0.051712 0.194808 -2.941982 0.122408 -0.060194
    59 2.007813 0.000001 -0.000002 0.000082 -0.000018 1.999818
    60 0.000237 0.099800 -0.000395 -0.018823 0.010833 -0.239219
    61 -0.203197 0.048607 0.069150 -3.093332 0.033217 -0.046722
    62 1.179688 0.000005 0.000006 0.000039 0.000045 1.422044
    63 -0.000196 0.099625 -0.000034 0.000000 0.000000 -0.314102
    64 -0.088737 -0.688435 -0.145203 2.930407 -0.136130 0.513013
    65 1.708984 0.000000 -0.000004 -0.000084 0.000001 1.594257
    66 -0.000576 0.100143 -0.000311 -0.010914 0.023131 -0.260843
    67 -0.146027 -0.232426 -0.014225 3.028455 -0.094299 0.113020
    68 1.290634 0.000361 -0.000036 -0.014903 0.077179 0.498017
    69 -0.658119 -0.003576 0.072643 -0.142711 0.027792 -0.077299
    70 1.867188 0.000002 0.000001 0.000000 0.000000 0.085660
    71 1.200075 0.399942 -0.000093 0.009465 -0.016087 0.007127
    72 0.000589 0.100342 0.000319 0.120035 0.021926 -0.209617
    73 0.068073 0.002283 -0.080050 3.111376 -0.069366 -0.060847
    74 2.007813 0.000004 0.000002 -0.000085 -0.000007 1.379095
    75 0.000233 0.099800 0.000395 0.018823 -0.010833 -0.239219
    76 -0.018673 -0.001009 0.047544 3.109244 0.002635 -0.106673
    77 1.178665 0.001595 0.000845 0.000000 0.000000 0.743920
    78 -0.000196 0.099628 0.000034 0.000000 0.000000 -0.314102
    79 0.036894 -0.634449 0.266284 -2.801062 0.174301 0.490915
    80 1.708984 0.000002 -0.000001 0.000000 0.000000 1.160723
    81 -0.000580 0.100140 0.000311 0.010910 -0.023132 -0.260845
    82 -0.003952 -0.281811 0.115047 -3.059162 0.089004 0.167964
    83 1.289063 0.000000 -0.000002 0.000000 0.000000 0.672732
    84 -0.171526 -0.018150 -0.099873 0.013484 -0.062184 -0.011781
    85 0.919922 0.000074 -0.000029 0.000017 -0.000085 1.177779
    86 -0.342617 0.053402 -0.025571 -2.909301 -0.017248 0.075276
    87 1.099609 0.000021 -0.000013 -0.000083 -0.000025 0.987469
    88 -0.384979 0.331001 0.006848 -3.087207 -0.018765 -0.184278
    89 0.679688 -0.000002 -0.000002 -0.000019 -0.000083 1.996345
    90 -0.123848 0.072738 0.029507 2.898184 -0.060627 0.094835
    91 1.017166 -0.000154 -0.000252 -0.000006 0.000085 1.458583
    92 -0.344990 0.123129 0.143151 2.994981 0.012396 0.059140
    93 -0.730989 0.177046 0.039141 -0.123731 0.076518 -0.084310
    94 0.919922 0.000067 0.000027 0.000000 0.000000 0.056831
    95 -0.124023 -0.052090 0.038495 3.077813 -0.008519 0.039229
    96 1.099609 0.000017 0.000012 0.000016 0.000059 0.545757
    97 -0.330082 0.160639 0.042780 3.128073 0.034033 -0.171236
    98 0.679688 0.000005 0.000002 0.000000 0.000000 0.674858
    99 -0.019512 -0.016531 0.038578 -2.763781 0.050305 0.076829
    100 1.019531 -0.000002 0.000000 0.000000 0.000000 0.497056
    101 -0.155308 0.130644 -0.021921 -3.022466 0.022433 -0.024902
    102 -0.252207 0.061937 -0.024914 -0.007671 -0.063171 -0.044392
    103 -0.085995 0.185205 -0.015180 -2.937063 -0.113970 -0.138991
    104 -0.286533 0.179852 0.024264 -3.109353 -0.049645 -0.029914
    105 -0.019482 0.147083 0.079203 2.893815 0.038585 -0.060594
    106 -0.046482 0.251896 0.129548 3.016165 0.077112 -0.042864
    107 0.039124 -0.040295 0.047739 3.084219 0.030470 -0.037414
    108 -0.233757 0.066630 0.001754 -3.133087 0.040141 -0.065412
    109 0.044266 0.020131 0.001684 -2.778763 -0.118872 -0.040488
    110 0.071495 0.074128 -0.048302 -3.035917 -0.059482 0.104366
    111 0.000000 0.000000 0.000000 0.000000 0.000000 -1.570796
    112 -8.421875 -7.285156 -6.542969 -0.022390 -1.052332 -1.481328
    113 0.000000 0.000000 0.000000 0.000000 0.000000 0.000000
    114 -14.007813 5.660156 -22.406250 -1.339802 -1.403019 0.574607
    115 3.096000 0.000000 -1.996000 0.000005 -0.159230 -0.000062
    116 3.040999 0.000000 1.202000 0.000000 0.000000 0.000000
    117 7.854000 0.000000 -0.042000 0.000000 0.000000 0.000000
    118 13.105999 0.000000 -0.006000 0.000000 0.000000 0.000000
    119 3.456000 0.000000 -1.084000 0.000000 0.000000 0.000000
    120 1.804000 0.000000 -1.025000 0.000000 0.000000 0.000000
    121 7.098000 0.000000 -1.084000 0.000000 0.000000 0.000000
    122 -16.531250 19.218750 -5.019531 -0.960696 0.677787 -0.634734
    123 3.740000 0.000000 1.273000 0.000000 0.000000 0.000000
    124 11.956999 0.000000 -0.006000 0.000000 0.000000 0.000000
    125 6.072001 0.000000 -1.238000 0.000000 0.000000 0.000000
    126 5.690000 -0.365000 0.068000 0.000000 -0.349029 -1.570796
    127 6.396999 0.614000 0.428000 0.000000 0.000000 0.000000
    128 3.040999 0.000000 1.202000 0.000000 0.000000 0.000000
    129 3.720000 0.000000 1.202000 0.000000 0.000000 0.000000
    130 1.086000 -0.661000 -0.149000 0.000000 0.000000 0.000000
    131 1.067000 0.589000 0.076000 0.000000 0.000000 0.000000
    132 0.000000 -0.019000 0.000000 0.000000 0.000000 0.000000
    133 0.000000 -0.019000 0.000000 0.000000 0.000000 0.000000
    134 3.300000 -0.019000 1.346000 0.000000 0.000000 0.000000
    135 -1.524000 -1.859000 -4.367000 -1.730305 -0.014914 0.208094
    136 7.283999 0.000000 -2.195000 0.000000 0.000000 0.000000
    137 -1.323000 0.000000 0.184000 0.000000 0.000000 0.000000
    138 0.082000 0.000000 1.002000 0.000000 0.000000 0.000000
    139 -19.531250 5.875000 -60.687500 0.043644 0.000000 0.000000
    140 0.478000 0.000000 -4.537000 0.000000 0.000000 0.000000
    141 3.436000 0.000000 1.202000 0.000000 0.000000 0.000000
    142 3.040999 0.000000 1.202000 0.000000 0.000000 0.000000
    143 4.657000 0.000000 1.545000 0.000000 0.000000 0.000000
    144 -0.403000 0.000000 -0.011000 0.000000 0.000000 0.000000
    145 1.781000 0.000000 0.873000 0.000000 0.000000 0.000000
    146 0.384000 0.715000 0.801000 0.000000 0.000000 0.000000
    147 1.795000 0.533000 -1.550000 0.000000 0.000000 0.000000
    148 4.435999 0.595000 -0.954000 0.000000 0.000000 0.000000
    149 4.401999 -0.614000 -1.630000 0.000000 0.000000 0.000000
    150 4.203000 -0.003000 -0.048000 0.000000 0.000000 0.000000
    151 5.136000 0.000000 1.534000 0.000000 0.000000 0.000000
    152 11.957001 0.000000 -0.006000 0.000000 0.000000 0.000000
    153 -2.103001 0.000000 0.000000 0.000000 0.000000 0.000000
    154 -0.598001 0.000000 -0.011000 0.000000 0.000000 0.000000
    155 0.496000 0.184000 -3.523000 0.000000 0.000000 0.000000
    156 0.147000 0.184000 -0.328000 0.000000 0.000000 0.000000
    157 0.147000 0.184000 0.023000 0.000000 0.000000 0.000000
    158 0.147000 0.184000 0.368000 0.000000 0.000000 0.000000
    159 0.147000 0.184000 0.717000 0.000000 0.000000 0.000000
    160 0.147000 0.184000 1.067000 0.000000 0.000000 0.000000
    161 0.148000 0.184000 1.414000 0.000000 0.000000 0.000000
    162 0.148000 -0.074000 1.640000 0.000000 0.000000 0.000000
    163 0.435000 0.184000 -3.179000 0.000000 0.000000 0.000000
    164 0.378000 0.184000 -2.826000 0.000000 0.000000 0.000000
    165 0.329000 0.184000 -2.477000 0.000000 0.000000 0.000000
    166 0.286000 0.184000 -2.127000 0.000000 0.000000 0.000000
    167 0.252000 0.184000 -1.775000 0.000000 0.000000 0.000000
    168 0.215000 0.184000 -1.417000 0.000000 0.000000 0.000000
    169 0.190000 0.184000 -1.064000 0.000000 0.000000 0.000000
    170 0.166000 0.184000 -0.714000 0.000000 0.000000 0.000000
    171 1.622000 0.000000 1.568000 0.000000 0.000000 0.000000
    172 2.240000 0.000000 1.568000 0.000000 0.000000 0.000000
    173 0.000000 0.000000 0.000000 0.000000 0.000000 0.000000
    174 0.000000 0.000000 -4.867001 3.141568 0.003213 -3.128594
    175 1.000088 -0.000029 0.000000 0.000000 0.000000 0.000000
    176 17.162518 -0.000404 0.000000 0.000000 0.000000 0.119215
    177 17.749374 0.295515 0.000000 0.000000 0.000000 -1.158976
    178 5.413528 0.000347 0.000000 0.000000 0.000000 -0.518057
    179 0.017887 0.299792 0.000000 0.000000 0.000000 -0.059583
    180 9.999889 -0.000303 0.000000 0.000000 0.000000 0.000000
    181 0.000000 0.000000 4.867000 3.141526 -0.003205 -3.128592
    182 1.000088 -0.000029 0.000000 0.000000 0.000000 0.000000
    183 12.283573 1.581455 -4.695999 1.462269 -0.086726 0.090185
    184 17.162518 -0.000404 0.000000 0.000000 0.000000 0.119215
    185 17.749374 0.295515 0.000000 0.000000 0.000000 -1.158976
    186 5.413528 0.000347 0.000000 0.000000 0.000000 -0.518057
    187 0.017887 0.299792 0.000000 0.000000 0.000000 -0.059579
    188 9.499836 0.000212 0.000000 0.000000 0.000000 0.000000
    189 -1.145525 0.000130 0.000671 0.000000 0.000000 0.000000
    190 -0.857691 0.104071 0.104687 0.023536 0.163924 0.013632
    191 3.999430 -0.000528 -0.000332 0.304286 0.000000 0.000000
    192 0.599499 0.400698 0.000236 0.000000 0.000000 0.000000
    193 0.599886 0.400186 -0.000027 0.000000 0.000000 0.000000
    194 2.299677 -2.499979 -0.599480 0.891951 0.221434 -0.527257
    195 17.906250 -19.125000 8.281250 0.785989 -0.887194 -0.117434
    196 -9.580679 -27.862108 -37.184677 0.812879 -0.123459 -0.568477
    197 0.649935 -0.548296 0.093658 -1.665913 -0.131399 -0.112062
    198 1.899127 0.000427 -0.000439 0.027386 -0.033311 0.477848
    199 0.657078 0.008400 0.040375 -1.665945 -0.131407 -0.000013
    200 1.799664 -0.000240 0.000231 0.027386 -0.033311 0.477848
    201 1.799664 -0.000240 0.000231 0.027386 -0.033311 0.477848
    202 1.799664 -0.000240 0.000231 0.027386 -0.033311 0.477848
    203 0.665774 0.747222 -0.029186 -1.665935 -0.131408 0.094976
    204 1.900306 -0.000137 -0.000517 0.027386 -0.033311 0.477848
    205 5.214844 -7.332031 4.218750 1.551228 1.438884 -3.139753
    206 3.999897 0.000040 0.001007 0.073505 -0.000002 0.000061
    207 0.600403 0.399632 -0.000469 0.000000 0.000000 -3.139640
    208 0.599890 0.400186 0.000031 0.000000 0.000000 3.138210
    209 2.300137 -2.499413 0.600155 -0.892000 -0.221562 -0.527204
    210 12.101563 -3.646484 -1.237305 1.733563 0.203051 0.048220
    211 2.762354 0.116951 1.523975 1.629482 0.064153 1.743800
    212 7.228317 7.928200 -3.925652 2.328713 0.123459 -0.568477
    213 0.650396 -0.547731 -0.092976 1.665913 0.131399 -0.112062
    214 1.899441 -0.000320 -0.000150 -0.027386 0.033311 0.477848
    215 0.657068 0.008398 -0.040379 1.665945 0.131407 -0.000013
    216 1.799659 -0.000233 -0.000233 -0.027386 0.033311 0.477848
    217 1.799659 -0.000233 -0.000233 -0.027386 0.033311 0.477848
    218 1.799659 -0.000233 -0.000233 -0.027386 0.033311 0.477848
    219 0.665778 0.747222 0.029179 1.665935 0.131408 0.094976
    220 1.900722 0.000549 -0.000072 -0.027386 0.033311 0.477848
    221 4.530998 0.000000 0.000000 0.000000 0.000000 0.000000
    222 4.527344 -0.000001 0.000000 0.000000 0.000000 0.000000
    223 0.000000 0.000000 0.000000 0.000000 0.000000 0.000000
    224 0.000000 0.000000 0.000000 0.000000 0.000000 0.000000
    225 4.000000 -6.500000 0.000000 0.000046 0.000000 0.000978
    226 -6.500000 0.000000 0.000000 0.000000 1.570795 0.000000
    227 13.757813 -7.945313 14.093750 -0.022390 -1.052332 0.089468
    228 0.280000 -0.135000 2.196999 1.570796 0.000000 -1.570735
    229 0.000000 0.000000 0.000000 0.000000 0.000000 0.000000
    230 0.000000 0.000000 0.000000 0.000000 0.001221 0.000000
    231 0.106000 0.000000 -64.320000 0.000000 0.000000 0.000000
    232 0.000000 0.000000 0.000000 0.000000 0.000000 0.000000
    233 -0.106000 0.000000 64.320000 0.000000 0.000000 0.000000
    234 -7.660156 -16.468750 4.429688 -0.022390 -1.052332 -1.481328
    235 -30.812500 -4.484375 4.058594 0.648433 -0.593657 0.163878
    236 1.688000 -0.001000 -1.454002 0.000000 0.000000 0.000000
    237 -1.070999 -0.005000 0.545002 0.000000 0.000000 0.000000
    238 5.895000 0.750997 -0.156000 0.000000 0.000000 0.000000
    239 11.599999 -0.000003 -1.500002 0.000000 0.000000 0.000000
    240 1.037001 1.337997 -4.334000 -2.791227 -0.162411 -0.765711
    241 7.216001 -0.000003 -1.579000 0.000000 0.000000 0.000000
    242 4.445999 -0.000003 -1.500000 0.000000 0.000000 0.000000
    243 0.673937 -0.015635 -4.768713 -3.141592 -1.281051 3.141593
    244 0.094999 -0.144000 0.332001 0.000000 0.000000 0.000000
    245 14.209020 0.000022 0.766988 0.000000 0.000000 0.000000
    246 0.000000 0.000000 0.000000 1.570800 0.000000 -1.570796
end
