// Created by Crowbar 0.74
version 1
nodes
  0 "tag_origin" -1
  1 "tag_view" 0
  2 "tag_ads" 1
  3 "tag_torso" 2
  4 "j_mainroot" 3
  5 "j_spinelower" 4
  6 "j_spineupper" 5
  7 "j_clavicle_le" 6
  8 "j_clavicle_ri" 6
  9 "j_shoulder_le" 7
  10 "j_teres_le" 7
  11 "j_shoulder_ri" 8
  12 "j_teres_ri" 8
  13 "j_shouldertwist_le" 9
  14 "j_elbow_le" 9
  15 "ValveBiped.Bip01_L_UpperArm" 9
  16 "j_shouldertwist_ri" 11
  17 "j_elbow_ri" 11
  18 "ValveBiped.Bip01_R_UpperArm" 11
  19 "j_wristfronttwist1_le" 14
  20 "j_elbowdq_le" 14
  21 "j_wrist_le" 14
  22 "ValveBiped.Bip01_L_Forearm" 14
  23 "j_wristfronttwist1_ri" 17
  24 "j_elbowdq_ri" 17
  25 "j_wrist_ri" 17
  26 "ValveBiped.Bip01_R_Forearm" 17
  27 "j_metaindex_le_1" 21
  28 "j_metamid_le_1" 21
  29 "j_metapinky_le_1" 21
  30 "j_metaring_le_1" 21
  31 "j_thumb_le_1" 21
  32 "ValveBiped.Bip01_L_Hand" 21
  33 "j_metaindex_ri_1" 25
  34 "j_metamid_ri_1" 25
  35 "j_metapinky_ri_1" 25
  36 "j_metaring_ri_1" 25
  37 "j_thumb_ri_1" 25
  38 "ValveBiped.Bip01_R_Hand" 25
  39 "j_index_le_1" 27
  40 "j_mid_le_1" 28
  41 "j_pinky_le_1" 29
  42 "j_webbing_le_3" 29
  43 "j_ring_le_1" 30
  44 "j_thumb_le_2" 31
  45 "j_webbing_le_2" 31
  46 "ValveBiped.Bip01_L_Finger0" 31
  47 "j_index_ri_1" 33
  48 "j_mid_ri_1" 34
  49 "j_pinky_ri_1" 35
  50 "j_webbing_ri_3" 35
  51 "j_ring_ri_1" 36
  52 "j_thumb_ri_2" 37
  53 "j_webbing_ri_2" 37
  54 "ValveBiped.Bip01_R_Finger0" 37
  55 "j_index_le_2" 39
  56 "j_indexbulge_le_1" 39
  57 "j_proc_index_le_1" 39
  58 "ValveBiped.Bip01_L_Finger1" 39
  59 "j_mid_le_2" 40
  60 "j_proc_mid_le_1" 40
  61 "ValveBiped.Bip01_L_Finger2" 40
  62 "j_pinky_le_2" 41
  63 "j_proc_pinky_le_1" 41
  64 "ValveBiped.Bip01_L_Finger4" 41
  65 "j_ring_le_2" 43
  66 "j_proc_ring_le_1" 43
  67 "ValveBiped.Bip01_L_Finger3" 43
  68 "j_thumb_le_3" 44
  69 "ValveBiped.Bip01_L_Finger01" 44
  70 "j_index_ri_2" 47
  71 "j_indexbulge_ri_1" 47
  72 "j_proc_index_ri_1" 47
  73 "ValveBiped.Bip01_R_Finger1" 47
  74 "j_mid_ri_2" 48
  75 "j_proc_mid_ri_1" 48
  76 "ValveBiped.Bip01_R_Finger2" 48
  77 "j_pinky_ri_2" 49
  78 "j_proc_pinky_ri_1" 49
  79 "ValveBiped.Bip01_R_Finger4" 49
  80 "j_ring_ri_2" 51
  81 "j_proc_ring_ri_1" 51
  82 "ValveBiped.Bip01_R_Finger3" 51
  83 "j_thumb_ri_3" 52
  84 "ValveBiped.Bip01_R_Finger01" 52
  85 "j_index_le_3" 55
  86 "ValveBiped.Bip01_L_Finger11" 55
  87 "j_mid_le_3" 59
  88 "ValveBiped.Bip01_L_Finger21" 59
  89 "j_pinky_le_3" 62
  90 "ValveBiped.Bip01_L_Finger41" 62
  91 "j_ring_le_3" 65
  92 "ValveBiped.Bip01_L_Finger31" 65
  93 "ValveBiped.Bip01_L_Finger02" 68
  94 "j_index_ri_3" 70
  95 "ValveBiped.Bip01_R_Finger11" 70
  96 "j_mid_ri_3" 74
  97 "ValveBiped.Bip01_R_Finger21" 74
  98 "j_pinky_ri_3" 77
  99 "ValveBiped.Bip01_R_Finger41" 77
  100 "j_ring_ri_3" 80
  101 "ValveBiped.Bip01_R_Finger31" 80
  102 "ValveBiped.Bip01_R_Finger02" 83
  103 "ValveBiped.Bip01_L_Finger12" 85
  104 "ValveBiped.Bip01_L_Finger22" 87
  105 "ValveBiped.Bip01_L_Finger42" 89
  106 "ValveBiped.Bip01_L_Finger32" 91
  107 "ValveBiped.Bip01_R_Finger12" 94
  108 "ValveBiped.Bip01_R_Finger22" 96
  109 "ValveBiped.Bip01_R_Finger42" 98
  110 "ValveBiped.Bip01_R_Finger32" 100
  111 "ValveBiped.Anim_Attachment_RH" -1
  112 "tag_sling" 111
  113 "j_gun" -1
  114 "j_trigger" 112
  115 "tag_acog_2" 112
  116 "tag_barrel_attach" 112
  117 "tag_brass" 112
  118 "tag_cosmetic" 112
  119 "tag_holo" 112
  120 "tag_hybrid" 112
  121 "tag_ik_loc_ri" 112
  122 "tag_mag_attach" 112
  123 "tag_pistolgrip_attach" 112
  124 "tag_reflex" 112
  125 "tag_scope" 112
  126 "tag_sight_on" 112
  127 "tag_stock_attach" 112
  128 "tag_reticle_attach2" 120
  129 "tag_glass_hip2" 120
  130 "tag_glass_ads2" 120
  131 "j_magnifier_lever" 120
  132 "j_hybrid_scope" 120
  133 "tag_grip_hide" 116
  134 "j_magrel" 112
  135 "tag_folding_grip" 116
  136 "tag_grip_attach" 116
  137 "tag_ik_loc_le" 116
  138 "tag_laser_attach" 116
  139 "tag_silencer" 116
  140 "tag_tip" 116
  141 "tag_flash" 140
  142 "j_mag1" 122
  143 "tag_camera_scripted" 0
  144 "j_mag_follower" 142
  145 "j_mag2" 122
  146 "tag_cambone" -1
  147 "tag_camera" 146
  148 "tag_playerhelmet" 147
  149 "tag_attachments" 112
  150 "tag_weapon" -1
  151 "j_bullet2" 142
  152 "j_safety" 149
  153 "tag_sync" 0
  154 "j_hip_le" 4
  155 "j_hiptwist_le" 154
  156 "j_knee_le" 154
  157 "j_ankle_le" 156
  158 "j_ball_le" 157
  159 "j_kneedq_le" 156
  160 "j_hip_proc_le" 154
  161 "j_hip_ri" 4
  162 "j_hiptwist_ri" 161
  163 "tag_stowed_thigh" 162
  164 "j_knee_ri" 161
  165 "j_ankle_ri" 164
  166 "j_ball_ri" 165
  167 "j_kneedq_ri" 164
  168 "j_hip_proc_ri" 161
  169 "j_proc_wristfronttwist1_le" 19
  170 "tag_wrist_attach_le" 169
  171 "j_shield_le" 14
  172 "j_index_le_4" 85
  173 "j_thumb_le_4" 68
  174 "j_webbing_le_1" 21
  175 "tag_weapon_left" 21
  176 "tag_accessory_left" 21
  177 "j_proc_metaindex_le_1" 21
  178 "j_proc_metaindex_le_2" 177
  179 "j_proc_metaknuckle_le_1" 21
  180 "j_proc_knuckle_le_1" 179
  181 "j_proc_idle_knuckle_le_1" 179
  182 "j_proc_orient_knuckle_le_1" 179
  183 "j_proc_metapinky_le_1" 21
  184 "j_proc_metapinky_le_2" 183
  185 "tag_carry_attach" 7
  186 "j_shield_ri" 17
  187 "j_index_ri_4" 94
  188 "j_thumb_ri_4" 83
  189 "j_webbing_ri_1" 25
  190 "tag_weapon_right" 25
  191 "tag_knife_attach2" 25
  192 "tag_accessory_right" 25
  193 "j_proc_metaindex_ri_1" 25
  194 "j_proc_metaindex_ri_2" 193
  195 "j_proc_metaknuckle_ri_1" 25
  196 "j_proc_knuckle_ri_1" 195
  197 "j_proc_idle_knuckle_ri_1" 195
  198 "j_proc_orient_knuckle_ri_1" 195
  199 "j_proc_metapinky_ri_1" 25
  200 "j_proc_metapinky_ri_2" 199
  201 "j_neck" 6
  202 "j_head" 201
  203 "j_eyeball_le" 202
  204 "j_eyeball_ri" 202
  205 "j_head_end" 202
  206 "j_helmet" 205
  207 "j_visor" 206
  208 "j_visor_inner" 206
  209 "j_jaw" 202
  210 "j_nvg" 202
  211 "j_spine4" 6
  212 "j_chest" 211
  213 "j_proc_spineupper" 6
  214 "j_proc_spinelower" 5
  215 "j_groinprotector" 4
  216 "j_crotch" 4
  217 "tag_player" 147
  218 "j_barrel" 112
  219 "j_firesel" 112
  220 "j_ejectioncover" 112
  221 "j_charginghandleassistright" 112
  222 "j_charginghandle" 112
  223 "j_boltrel" 112
  224 "j_bolt" 112
  225 "j_ammo_02" 142
  226 "j_ammo_03" 142
  227 "j_ammo_04" 142
  228 "j_ammo_05" 142
  229 "j_ammo_06" 142
  230 "j_ammo_07" 142
  231 "j_ammo_08" 142
  232 "j_ammo_09" 142
  233 "j_ammo_10" 142
  234 "j_ammo_11" 142
  235 "j_ammo_12" 142
  236 "j_ammo_13" 142
  237 "j_ammo_14" 142
  238 "j_ammo_15" 142
  239 "j_ammo_16" 142
  240 "j_ammo_17" 142
  241 "j_ammo_18" 142
  242 "j_ammo_19" 142
  243 "j_ammo_20" 142
  244 "j_ammo_21" 142
  245 "j_ammo_22" 142
  246 "j_ammo_23" 142
  247 "j_ammo_24" 142
  248 "j_ammo_25" 142
  249 "j_ammo_26" 142
  250 "j_ammo_27" 142
  251 "j_ammo_28" 142
  252 "j_ammo_29" 142
  253 "j_ammo_30" 142
  254 "j_ammo_01" 122
end
skeleton
  time 0
    0 0.000000 0.000000 0.000000 0.000000 0.000000 -1.570796
    111 0.000000 0.000000 0.000000 0.000000 0.000000 -1.570796
    113 0.000000 0.000000 0.000000 0.000000 0.000000 -1.570796
    146 0.000000 0.000000 0.000000 0.000000 0.000000 -1.570796
    150 0.000000 0.000000 0.000000 0.000000 0.000000 -1.570796
end
