// Created by Crowbar 0.74
version 1
nodes
  0 "tag_origin" -1
  1 "tag_view" 0
  2 "tag_ads" 1
  3 "tag_torso" 2
  4 "j_mainroot" 3
  5 "j_spinelower" 4
  6 "j_spineupper" 5
  7 "j_clavicle_le" 6
  8 "j_clavicle_ri" 6
  9 "j_shoulder_le" 7
  10 "j_teres_le" 7
  11 "j_shoulder_ri" 8
  12 "j_teres_ri" 8
  13 "j_shouldertwist_le" 9
  14 "j_elbow_le" 9
  15 "ValveBiped.Bip01_L_UpperArm" 9
  16 "j_shouldertwist_ri" 11
  17 "j_elbow_ri" 11
  18 "ValveBiped.Bip01_R_UpperArm" 11
  19 "j_wristfronttwist1_le" 14
  20 "j_elbowdq_le" 14
  21 "j_wrist_le" 14
  22 "ValveBiped.Bip01_L_Forearm" 14
  23 "j_wristfronttwist1_ri" 17
  24 "j_elbowdq_ri" 17
  25 "j_wrist_ri" 17
  26 "ValveBiped.Bip01_R_Forearm" 17
  27 "j_metaindex_le_1" 21
  28 "j_metamid_le_1" 21
  29 "j_metapinky_le_1" 21
  30 "j_metaring_le_1" 21
  31 "j_thumb_le_1" 21
  32 "ValveBiped.Bip01_L_Hand" 21
  33 "j_metaindex_ri_1" 25
  34 "j_metamid_ri_1" 25
  35 "j_metapinky_ri_1" 25
  36 "j_metaring_ri_1" 25
  37 "j_thumb_ri_1" 25
  38 "ValveBiped.Bip01_R_Hand" 25
  39 "j_index_le_1" 27
  40 "j_mid_le_1" 28
  41 "j_pinky_le_1" 29
  42 "j_webbing_le_3" 29
  43 "j_ring_le_1" 30
  44 "j_thumb_le_2" 31
  45 "j_webbing_le_2" 31
  46 "ValveBiped.Bip01_L_Finger0" 31
  47 "j_index_ri_1" 33
  48 "j_mid_ri_1" 34
  49 "j_pinky_ri_1" 35
  50 "j_webbing_ri_3" 35
  51 "j_ring_ri_1" 36
  52 "j_thumb_ri_2" 37
  53 "j_webbing_ri_2" 37
  54 "ValveBiped.Bip01_R_Finger0" 37
  55 "j_index_le_2" 39
  56 "j_indexbulge_le_1" 39
  57 "j_proc_index_le_1" 39
  58 "ValveBiped.Bip01_L_Finger1" 39
  59 "j_mid_le_2" 40
  60 "j_proc_mid_le_1" 40
  61 "ValveBiped.Bip01_L_Finger2" 40
  62 "j_pinky_le_2" 41
  63 "j_proc_pinky_le_1" 41
  64 "ValveBiped.Bip01_L_Finger4" 41
  65 "j_ring_le_2" 43
  66 "j_proc_ring_le_1" 43
  67 "ValveBiped.Bip01_L_Finger3" 43
  68 "j_thumb_le_3" 44
  69 "ValveBiped.Bip01_L_Finger01" 44
  70 "j_index_ri_2" 47
  71 "j_indexbulge_ri_1" 47
  72 "j_proc_index_ri_1" 47
  73 "ValveBiped.Bip01_R_Finger1" 47
  74 "j_mid_ri_2" 48
  75 "j_proc_mid_ri_1" 48
  76 "ValveBiped.Bip01_R_Finger2" 48
  77 "j_pinky_ri_2" 49
  78 "j_proc_pinky_ri_1" 49
  79 "ValveBiped.Bip01_R_Finger4" 49
  80 "j_ring_ri_2" 51
  81 "j_proc_ring_ri_1" 51
  82 "ValveBiped.Bip01_R_Finger3" 51
  83 "j_thumb_ri_3" 52
  84 "ValveBiped.Bip01_R_Finger01" 52
  85 "j_index_le_3" 55
  86 "ValveBiped.Bip01_L_Finger11" 55
  87 "j_mid_le_3" 59
  88 "ValveBiped.Bip01_L_Finger21" 59
  89 "j_pinky_le_3" 62
  90 "ValveBiped.Bip01_L_Finger41" 62
  91 "j_ring_le_3" 65
  92 "ValveBiped.Bip01_L_Finger31" 65
  93 "ValveBiped.Bip01_L_Finger02" 68
  94 "j_index_ri_3" 70
  95 "ValveBiped.Bip01_R_Finger11" 70
  96 "j_mid_ri_3" 74
  97 "ValveBiped.Bip01_R_Finger21" 74
  98 "j_pinky_ri_3" 77
  99 "ValveBiped.Bip01_R_Finger41" 77
  100 "j_ring_ri_3" 80
  101 "ValveBiped.Bip01_R_Finger31" 80
  102 "ValveBiped.Bip01_R_Finger02" 83
  103 "ValveBiped.Bip01_L_Finger12" 85
  104 "ValveBiped.Bip01_L_Finger22" 87
  105 "ValveBiped.Bip01_L_Finger42" 89
  106 "ValveBiped.Bip01_L_Finger32" 91
  107 "ValveBiped.Bip01_R_Finger12" 94
  108 "ValveBiped.Bip01_R_Finger22" 96
  109 "ValveBiped.Bip01_R_Finger42" 98
  110 "ValveBiped.Bip01_R_Finger32" 100
  111 "ValveBiped.Anim_Attachment_RH" -1
  112 "tag_sling" 111
  113 "j_gun" -1
  114 "j_trigger" 112
  115 "tag_acog_2" 112
  116 "tag_barrel_attach" 112
  117 "tag_brass" 112
  118 "tag_cosmetic" 112
  119 "tag_holo" 112
  120 "tag_hybrid" 112
  121 "tag_ik_loc_ri" 112
  122 "tag_mag_attach" 112
  123 "tag_pistolgrip_attach" 112
  124 "tag_reflex" 112
  125 "tag_scope" 112
  126 "tag_sight_on" 112
  127 "tag_stock_attach" 112
  128 "tag_reticle_attach2" 120
  129 "tag_glass_hip2" 120
  130 "tag_glass_ads2" 120
  131 "j_magnifier_lever" 120
  132 "j_hybrid_scope" 120
  133 "tag_grip_hide" 116
  134 "j_magrel" 112
  135 "tag_folding_grip" 116
  136 "tag_grip_attach" 116
  137 "tag_ik_loc_le" 116
  138 "tag_laser_attach" 116
  139 "tag_silencer" 116
  140 "tag_tip" 116
  141 "tag_flash" 140
  142 "j_mag1" 122
  143 "tag_camera_scripted" 0
  144 "j_mag_follower" 142
  145 "j_mag2" 122
  146 "tag_cambone" -1
  147 "tag_camera" 146
  148 "tag_playerhelmet" 147
  149 "tag_attachments" 112
  150 "tag_weapon" -1
  151 "j_bullet2" 142
  152 "j_safety" 149
  153 "tag_sync" 0
  154 "j_hip_le" 4
  155 "j_hiptwist_le" 154
  156 "j_knee_le" 154
  157 "j_ankle_le" 156
  158 "j_ball_le" 157
  159 "j_kneedq_le" 156
  160 "j_hip_proc_le" 154
  161 "j_hip_ri" 4
  162 "j_hiptwist_ri" 161
  163 "tag_stowed_thigh" 162
  164 "j_knee_ri" 161
  165 "j_ankle_ri" 164
  166 "j_ball_ri" 165
  167 "j_kneedq_ri" 164
  168 "j_hip_proc_ri" 161
  169 "j_proc_wristfronttwist1_le" 19
  170 "tag_wrist_attach_le" 169
  171 "j_shield_le" 14
  172 "j_index_le_4" 85
  173 "j_thumb_le_4" 68
  174 "j_webbing_le_1" 21
  175 "tag_weapon_left" 21
  176 "tag_accessory_left" 21
  177 "j_proc_metaindex_le_1" 21
  178 "j_proc_metaindex_le_2" 177
  179 "j_proc_metaknuckle_le_1" 21
  180 "j_proc_knuckle_le_1" 179
  181 "j_proc_idle_knuckle_le_1" 179
  182 "j_proc_orient_knuckle_le_1" 179
  183 "j_proc_metapinky_le_1" 21
  184 "j_proc_metapinky_le_2" 183
  185 "tag_carry_attach" 7
  186 "j_shield_ri" 17
  187 "j_index_ri_4" 94
  188 "j_thumb_ri_4" 83
  189 "j_webbing_ri_1" 25
  190 "tag_weapon_right" 25
  191 "tag_knife_attach2" 25
  192 "tag_accessory_right" 25
  193 "j_proc_metaindex_ri_1" 25
  194 "j_proc_metaindex_ri_2" 193
  195 "j_proc_metaknuckle_ri_1" 25
  196 "j_proc_knuckle_ri_1" 195
  197 "j_proc_idle_knuckle_ri_1" 195
  198 "j_proc_orient_knuckle_ri_1" 195
  199 "j_proc_metapinky_ri_1" 25
  200 "j_proc_metapinky_ri_2" 199
  201 "j_neck" 6
  202 "j_head" 201
  203 "j_eyeball_le" 202
  204 "j_eyeball_ri" 202
  205 "j_head_end" 202
  206 "j_helmet" 205
  207 "j_visor" 206
  208 "j_visor_inner" 206
  209 "j_jaw" 202
  210 "j_nvg" 202
  211 "j_spine4" 6
  212 "j_chest" 211
  213 "j_proc_spineupper" 6
  214 "j_proc_spinelower" 5
  215 "j_groinprotector" 4
  216 "j_crotch" 4
  217 "tag_player" 147
  218 "j_barrel" 112
  219 "j_firesel" 112
  220 "j_ejectioncover" 112
  221 "j_charginghandleassistright" 112
  222 "j_charginghandle" 112
  223 "j_boltrel" 112
  224 "j_bolt" 112
  225 "j_ammo_02" 142
  226 "j_ammo_03" 142
  227 "j_ammo_04" 142
  228 "j_ammo_05" 142
  229 "j_ammo_06" 142
  230 "j_ammo_07" 142
  231 "j_ammo_08" 142
  232 "j_ammo_09" 142
  233 "j_ammo_10" 142
  234 "j_ammo_11" 142
  235 "j_ammo_12" 142
  236 "j_ammo_13" 142
  237 "j_ammo_14" 142
  238 "j_ammo_15" 142
  239 "j_ammo_16" 142
  240 "j_ammo_17" 142
  241 "j_ammo_18" 142
  242 "j_ammo_19" 142
  243 "j_ammo_20" 142
  244 "j_ammo_21" 142
  245 "j_ammo_22" 142
  246 "j_ammo_23" 142
  247 "j_ammo_24" 142
  248 "j_ammo_25" 142
  249 "j_ammo_26" 142
  250 "j_ammo_27" 142
  251 "j_ammo_28" 142
  252 "j_ammo_29" 142
  253 "j_ammo_30" 142
  254 "j_ammo_01" 122
end
skeleton
  time 0
    0 0.000000 0.000000 0.000000 0.000000 0.000000 -1.570796
    1 -0.106384 0.000000 0.000168 0.000000 0.000000 0.000000
    2 0.000000 0.000000 0.000000 0.000000 0.000000 0.000000
    3 -0.904000 0.000000 -11.806000 0.000000 0.000000 0.000000
    4 0.000000 0.000000 -14.313999 1.570168 -1.570772 0.000000
    5 3.533001 0.000000 0.000000 0.000000 0.000000 0.000000
    6 6.250000 0.000000 0.000000 0.000000 0.000000 0.000000
    7 9.562500 2.335938 -1.942383 -1.526245 1.357192 -1.527243
    8 11.117188 10.507813 2.464844 1.152548 -1.547372 -1.152636
    9 5.781250 -0.000030 0.000176 -0.920176 0.339756 -1.469296
    10 5.999492 -0.000592 -4.000343 0.000011 0.000000 -0.000015
    11 5.781250 -0.000015 -0.000272 0.845368 -0.725805 -1.359324
    12 5.999492 -0.000592 4.000332 -0.000011 0.000000 -0.000008
    13 0.500225 0.000133 -0.000092 0.000000 0.000000 0.000000
    14 11.523438 -0.001402 0.000134 0.000050 0.000035 -1.221175
    15 -0.829338 0.893824 0.079659 -0.148839 0.047645 0.087266
    16 0.500225 0.000132 0.000076 0.000000 0.000000 0.000000
    17 11.523438 -0.001520 -0.000931 0.000042 -0.000039 -1.633438
    18 -0.829586 0.894698 -0.079464 0.045377 -0.019621 0.087266
    19 10.599890 0.000105 -0.000549 -0.939981 0.000000 0.000000
    20 0.119667 -0.275181 -0.000805 0.000004 -0.000018 0.409876
    21 11.039063 -0.000004 -0.000638 -1.364484 0.043625 0.838419
    22 -1.214830 0.203470 -0.477489 -0.135025 -0.078677 -0.001289
    23 10.599880 0.000105 0.000549 0.000000 0.000000 0.000000
    24 0.119663 -0.275181 0.000805 -0.000026 0.000007 0.409849
    25 11.039063 -0.000050 0.000622 0.071854 0.317470 0.867940
    26 -1.063377 0.077663 0.150230 0.045121 0.020046 -0.012850
    27 0.610304 -0.939470 0.070339 -1.659838 -0.162228 -0.143480
    28 0.639942 -0.199121 0.060184 -1.670004 -0.168987 -0.036089
    29 0.600155 1.080260 -0.339535 -1.767168 0.116826 -0.008263
    30 0.610209 0.400743 -0.010105 -1.760058 -0.015757 0.060640
    31 0.596680 -0.602539 -0.033417 0.284791 0.454076 -0.882138
    32 -0.792123 0.203735 0.461300 1.439074 -0.003453 -0.018305
    33 0.610299 -0.939469 -0.070354 1.655393 0.140075 -0.175668
    34 0.639938 -0.199121 -0.060200 1.665960 0.131392 -0.066411
    35 0.600156 1.080259 0.339531 1.755368 -0.191826 0.006534
    36 0.610205 0.400743 0.010086 1.761938 -0.015441 0.028091
    37 0.629883 -0.688965 0.230469 -0.412985 -0.527552 -0.960811
    38 -0.626031 -0.069983 -0.080517 -1.447153 0.086151 0.021559
    39 2.619141 0.000198 0.000403 -0.239317 -0.608908 0.669021
    40 2.658203 0.000070 -0.000823 -0.547587 -0.359486 1.190178
    41 2.044922 0.197876 0.054504 -0.625195 0.156034 1.447544
    42 0.599950 0.959240 -0.300102 -0.174557 -0.000001 0.000010
    43 2.558594 -0.000128 0.000024 -0.529986 -0.156017 1.305778
    44 2.097656 0.000475 -0.000410 -0.219564 -0.132135 0.792324
    45 0.999378 -0.000234 -1.209370 -0.000001 0.000000 0.000000
    46 -0.122639 -0.721856 0.661690 -0.486645 0.223964 0.243056
    47 2.619141 0.000243 -0.000397 0.353105 0.390999 0.195780
    48 2.658203 0.000768 0.000165 0.415601 0.005335 1.379210
    49 2.199219 0.000578 -0.000117 0.397557 -0.127357 1.106813
    50 0.599951 0.959244 0.300102 0.174563 0.000002 0.000004
    51 2.558594 -0.000157 -0.000030 0.326544 -0.057013 1.327032
    52 2.097656 -0.000078 -0.000405 0.305301 -0.303301 0.910700
    53 0.999374 -0.000237 1.209366 0.000000 0.000000 0.000001
    54 0.310844 -0.606444 -0.498005 0.308107 -0.197598 0.313976
    55 1.844727 -0.009773 -0.010704 0.000000 0.000000 0.939119
    56 1.200941 0.399582 -0.000237 -0.009501 0.016092 0.007158
    57 0.000584 0.100342 -0.000319 -0.120040 -0.021918 -0.209552
    58 -0.161663 0.051712 0.194808 -2.941982 0.122408 -0.060194
    59 2.007813 -0.000221 -0.000225 0.000037 0.000046 1.362617
    60 0.000244 0.099804 -0.000395 -0.018792 0.010832 -0.239299
    61 -0.203197 0.048607 0.069150 -3.093332 0.033217 -0.046723
    62 1.178711 0.000278 -0.000711 -0.000056 0.000025 0.843941
    63 -0.000195 0.099621 -0.000034 -0.000039 0.000002 -0.314040
    64 -0.088739 -0.688438 -0.145203 2.930407 -0.136130 0.513012
    65 1.708008 0.000751 -0.000176 -0.000049 0.000033 1.164084
    66 -0.000584 0.100147 -0.000311 -0.010910 0.023136 -0.260791
    67 -0.146030 -0.232424 -0.014225 3.028455 -0.094299 0.113019
    68 1.290630 0.000362 -0.000031 -0.006463 -0.064282 -0.263027
    69 -0.658121 -0.003575 0.072643 -0.142711 0.027792 -0.077299
    70 1.867188 0.000000 0.000524 -0.000048 0.000038 1.344605
    71 1.200081 0.399944 -0.000093 0.009502 -0.016085 0.007158
    72 0.000595 0.100342 0.000319 0.120021 0.021918 -0.209554
    73 0.068083 0.002285 -0.080050 3.111376 -0.069366 -0.060847
    74 2.007813 -0.000990 -0.000386 0.000000 0.000000 1.230289
    75 0.000229 0.099804 0.000395 0.018773 -0.010834 -0.239312
    76 -0.018669 -0.001009 0.047544 3.109244 0.002635 -0.106673
    77 1.178663 0.001591 0.000845 -0.000033 0.000080 0.786295
    78 -0.000202 0.099625 0.000034 0.000061 0.000015 -0.314048
    79 0.036892 -0.634453 0.266284 -2.801062 0.174301 0.490914
    80 1.708008 0.000794 0.000204 0.000029 0.000051 1.029028
    81 -0.000572 0.100136 0.000311 0.010945 -0.023139 -0.260780
    82 -0.003948 -0.281811 0.115047 -3.059162 0.089004 0.167963
    83 1.290039 0.000320 -0.000048 -0.012098 -0.070815 0.621359
    84 -0.171528 -0.018148 -0.099876 0.013484 -0.062184 -0.011780
    85 0.919922 -0.000307 -0.000410 0.000000 0.000000 0.902003
    86 -0.342617 0.053406 -0.025571 -2.909301 -0.017248 0.075276
    87 1.099609 -0.000369 0.000138 0.000000 0.000000 0.246110
    88 -0.384983 0.330997 0.006848 -3.087207 -0.018765 -0.184279
    89 0.679688 -0.001252 0.000447 0.000000 0.000000 -0.053351
    90 -0.123848 0.072738 0.029507 2.898184 -0.060627 0.094834
    91 1.017162 -0.000154 -0.000252 0.000000 0.000000 0.156779
    92 -0.344990 0.123127 0.143151 2.994981 0.012396 0.059140
    93 -0.730986 0.177045 0.039143 -0.123731 0.076518 -0.084310
    94 0.918945 0.000396 0.000084 0.000057 -0.000015 0.500587
    95 -0.124031 -0.052092 0.038495 3.077813 -0.008519 0.039229
    96 1.099609 0.000031 0.000478 0.000000 0.000000 0.986025
    97 -0.330078 0.160644 0.042780 3.128073 0.034033 -0.171237
    98 0.679199 -0.000834 0.000177 0.000055 -0.000027 0.908302
    99 -0.019520 -0.016532 0.038578 -2.763781 0.050305 0.076828
    100 1.019531 0.000033 -0.000394 0.000055 -0.000026 0.862912
    101 -0.155312 0.130642 -0.021921 -3.022466 0.022433 -0.024903
    102 -0.252205 0.061937 -0.024914 -0.007671 -0.063171 -0.044392
    103 -0.085991 0.185201 -0.015180 -2.937063 -0.113970 -0.138992
    104 -0.286541 0.179852 0.024264 -3.109353 -0.049645 -0.029915
    105 -0.019489 0.147084 0.079203 2.893815 0.038585 -0.060594
    106 -0.046482 0.251900 0.129548 3.016165 0.077112 -0.042864
    107 0.039116 -0.040298 0.047738 3.084219 0.030470 -0.037413
    108 -0.233757 0.066630 0.001753 -3.133087 0.040141 -0.065413
    109 0.044262 0.020131 0.001683 -2.778763 -0.118872 -0.040489
    110 0.071491 0.074128 -0.048302 -3.035917 -0.059482 0.104366
    111 0.000000 0.000000 0.000000 0.000000 0.000000 -1.570796
    112 4.847656 -2.806641 -3.041016 -0.083841 0.000009 -0.000651
    113 -2.070313 -15.367188 -2.582031 -0.083841 0.000009 -1.571448
    114 3.192995 0.701117 -1.254612 0.000000 0.000000 0.000000
    115 1.645856 0.701122 1.852765 0.000000 0.000000 0.000000
    116 7.259127 0.701122 0.735763 0.000000 0.000000 0.000000
    117 5.883046 0.081211 0.926991 -0.000006 -0.258096 -1.570795
    118 6.513055 1.393491 0.708312 0.000000 0.000000 0.000000
    119 2.804780 0.701122 1.852765 0.000000 0.000000 0.000000
    120 2.255212 0.701122 1.852765 0.000000 0.000000 0.000000
    121 -1.532070 -0.568381 -3.243820 -1.948974 -0.069577 0.009888
    122 6.153604 0.701122 -2.047204 0.000000 0.000000 0.000000
    123 2.334001 0.707000 -1.271000 0.000000 0.000000 0.000000
    124 1.863304 0.701122 1.852765 0.000000 0.000000 0.000000
    125 4.231731 0.701122 1.852765 0.000000 0.000000 0.000000
    126 2.150997 0.701122 2.418449 0.000000 0.000000 0.000000
    127 -0.330746 0.701128 0.679118 0.000000 0.000000 0.000000
    128 3.298828 -0.019012 1.345703 0.000000 0.000000 0.000000
    129 0.000000 -0.018997 0.000000 0.000000 0.000000 0.000000
    130 0.000000 -0.018997 0.000000 0.000000 0.000000 0.000000
    131 1.066406 0.588867 0.075989 0.000000 0.000000 0.000000
    132 1.085938 -0.660645 -0.148926 0.000000 0.000000 0.000000
    133 0.000000 0.000000 0.000000 0.000000 0.000000 0.000000
    134 4.305266 0.631988 -1.075750 0.000000 0.000000 0.000000
    135 1.682477 0.000000 -0.897122 0.000000 0.000000 0.000000
    136 0.703515 0.000000 -0.896955 0.000000 0.000000 0.000000
    137 2.146837 1.593605 -1.614835 -2.241519 0.087785 -0.370014
    138 3.639693 -1.009019 0.034595 1.570796 0.000000 0.000000
    139 10.392424 -0.000101 -0.093979 0.000000 0.000000 0.000000
    140 10.392424 -0.000101 -0.093979 0.000000 0.000000 0.000000
    141 1.203457 0.000000 0.000513 0.000000 0.000000 0.000000
    142 -0.558669 0.000000 0.946582 0.000000 0.000000 0.000000
    143 -0.105957 0.000000 64.312500 0.000000 0.000000 0.000000
    144 -0.904151 0.000312 -4.267831 0.000000 0.000000 0.000000
    145 -1195.000000 -0.000143 0.946289 0.000000 0.000000 0.000000
    146 0.000000 0.106384 0.000168 0.000000 0.000000 -1.570796
    147 0.000000 0.000000 0.000000 0.000000 0.000000 0.000000
    148 0.000000 0.000000 0.000000 0.000000 0.000000 0.000000
    149 0.000000 0.000000 0.000000 0.000000 0.000000 0.000000
    150 -2.064453 -15.367188 -2.583984 -0.083889 0.000000 -1.570796
    151 0.000000 0.000000 0.000000 0.000000 0.000000 0.000000
    152 0.000000 0.000000 0.000000 0.000000 0.000000 0.000000
    153 0.000000 0.000000 0.000000 0.000000 0.000000 0.000000
    154 0.000000 0.000000 -4.863281 -3.141572 0.003206 -3.128592
    155 1.000000 -0.000004 -0.000004 0.000000 0.000000 0.000000
    156 17.156250 0.000021 -0.000074 0.000000 0.000000 0.119215
    157 17.734375 0.296143 0.000026 0.000000 0.000000 -1.158976
    158 5.410156 0.000320 0.000007 0.000000 0.000000 -0.518057
    159 0.017883 0.299561 0.000000 0.000000 0.000000 -0.059526
    160 9.992188 -0.000054 -0.000043 0.000000 0.000000 0.000000
    161 0.000000 0.000000 4.863281 -3.141572 0.003206 -3.128592
    162 1.000000 -0.000005 -0.000005 0.000000 0.000000 0.000000
    163 12.281250 1.581055 -4.695313 1.462277 -0.086715 0.090212
    164 17.156250 0.000022 -0.000075 0.000000 0.000000 0.119215
    165 17.734375 0.295898 0.000026 0.000000 0.000000 -1.158976
    166 5.410156 0.000332 0.000009 0.000000 0.000000 -0.518057
    167 0.017868 0.299561 0.000000 -0.000002 0.000000 -0.059545
    168 9.492188 0.000447 -0.000042 0.000000 0.000000 0.000000
    169 -1.145508 0.000428 0.000536 -0.523599 0.000000 0.000000
    170 0.259766 -0.045197 0.109253 0.023274 0.042361 0.010824
    171 3.998047 -0.000404 -0.000330 -0.731822 -0.000055 0.000021
    172 0.599121 0.400635 0.000246 0.000000 0.000000 0.000000
    173 0.599609 0.400146 -0.000034 0.000000 0.000000 0.000000
    174 2.298828 -2.498047 -0.599121 0.892087 0.221524 -0.527225
    175 1.489258 -0.530273 -1.802734 2.260880 -0.234634 -0.301485
    176 -9.578125 -27.859375 -37.156250 0.812951 -0.123457 -0.568429
    177 0.649902 -0.547852 0.093567 -1.665879 -0.131378 -0.112048
    178 1.898438 0.000393 -0.000433 0.027371 -0.033314 0.477852
    179 0.656738 0.008415 0.040344 -1.665942 -0.131349 -0.000001
    180 1.798828 -0.000335 0.000231 0.027403 -0.033320 0.477842
    181 1.798828 -0.000335 0.000231 0.027403 -0.033320 0.477842
    182 1.798828 -0.000335 0.000231 0.027403 -0.033320 0.477842
    183 0.665527 0.747070 -0.029160 -1.665854 -0.131440 0.094998
    184 1.899414 -0.000081 -0.000518 0.027384 -0.033290 0.477844
    185 4.660156 -5.363281 4.824219 1.576332 1.561361 -3.114619
    186 3.998047 0.000142 0.001000 0.051397 -0.000059 -0.000063
    187 0.600098 0.399414 -0.000465 0.000000 0.000000 -3.139640
    188 0.599609 0.400146 0.000013 0.000000 0.000000 3.138210
    189 2.298828 -2.498047 0.600098 -0.892092 -0.221580 -0.527195
    190 12.296875 -3.134766 -0.006844 1.948267 -0.016448 0.068364
    191 2.761719 0.117065 1.523438 1.629506 0.064224 1.743862
    192 7.226563 7.925781 -3.925781 2.328644 0.123429 -0.568435
    193 0.650391 -0.547363 -0.092896 1.665876 0.131387 -0.112033
    194 1.899414 -0.000328 -0.000153 -0.027333 0.033308 0.477849
    195 0.656738 0.008408 -0.040375 1.665944 0.131361 0.000013
    196 1.798828 -0.000309 -0.000228 -0.027418 0.033337 0.477838
    197 1.798828 -0.000309 -0.000228 -0.027418 0.033337 0.477838
    198 1.798828 -0.000309 -0.000228 -0.027418 0.033337 0.477838
    199 0.665527 0.747070 0.029144 1.665856 0.131446 0.095008
    200 1.900391 0.000626 -0.000073 -0.027395 0.033294 0.477830
    201 13.351563 0.000033 0.000001 0.000000 0.000000 -0.294090
    202 3.115234 -0.000321 0.000001 0.000000 0.000000 0.294092
    203 3.511719 -3.546875 -1.065430 0.000003 1.570773 0.000000
    204 3.455078 -3.515625 1.168945 0.000003 1.570773 0.000000
    205 6.230469 -0.000025 0.000000 0.000000 0.000000 0.000000
    206 1.597656 0.000000 0.000000 0.000000 0.000000 0.000000
    207 -4.480469 -0.201904 -0.000001 0.000000 0.000000 0.000000
    208 -5.515625 -0.290771 -0.001000 0.000000 0.000000 0.000000
    209 -0.171997 -0.105957 -0.901855 1.570697 1.029229 -3.134589
    210 6.238281 -6.378906 -0.000001 0.000000 0.000000 0.000000
    211 4.527344 0.000011 0.000000 0.000000 0.000000 0.000000
    212 0.000000 0.000000 0.000000 0.000000 0.000000 0.000000
    213 0.000000 0.000000 0.000000 0.000000 0.000000 0.000000
    214 0.000000 0.000000 0.000000 0.000000 0.000000 0.000000
    215 4.000000 -6.500000 -0.000001 0.000000 -0.000002 0.000910
    216 -6.500000 0.000000 0.000000 0.000000 1.570773 0.000000
    217 0.105957 0.000000 -64.312500 0.000000 0.000000 0.000000
    218 0.000000 0.000000 0.000000 0.000000 0.000000 0.000000
    219 2.003448 0.701118 -0.705975 0.000000 0.000000 0.000000
    220 5.406061 -0.069386 0.559538 0.000000 0.000000 0.000000
    221 0.710311 -0.115685 1.631563 0.000000 0.000000 0.000000
    222 0.537235 0.701121 1.449564 0.000000 0.000000 0.000000
    223 4.284685 1.256381 -0.335131 0.000000 0.000000 0.000000
    224 5.780050 0.701122 0.734652 0.000000 0.000000 0.000000
    225 0.215623 -0.000008 1.415013 0.000000 -0.071610 0.000000
    226 0.167190 0.092033 1.117434 0.000000 -0.071611 0.000000
    227 0.118559 -0.100415 0.855716 0.000000 -0.071611 0.000000
    228 0.077615 0.122713 0.637300 0.000000 -0.071611 0.000000
    229 0.092014 -0.131096 0.436484 0.000000 -0.071610 0.000000
    230 0.003281 0.142054 0.256779 0.000000 -0.071611 0.000000
    231 -0.029927 -0.132904 0.083272 0.000000 -0.071610 0.000000
    232 -0.052484 0.142054 -0.063862 0.000000 -0.071611 0.000000
    233 -0.093058 -0.132904 -0.238245 0.000000 -0.071611 0.000000
    234 -0.112278 0.142054 -0.385651 0.000000 -0.071610 0.000000
    235 -0.148590 -0.132904 -0.559857 0.000000 -0.071610 0.000000
    236 -0.189956 0.142054 -0.706532 0.000000 -0.071610 0.000000
    237 -0.211964 -0.132904 -0.881189 0.000000 -0.071611 0.000000
    238 -0.248653 0.142054 -1.028480 0.000000 -0.071611 0.000000
    239 -0.274851 -0.132904 -1.202113 0.000000 -0.071611 0.000000
    240 -0.316169 0.142054 -1.349454 0.000000 -0.071611 0.000000
    241 -0.352941 -0.132904 -1.523750 0.000000 -0.071611 0.000000
    242 -0.386291 0.142054 -1.670617 0.000000 -0.071611 0.000000
    243 -0.419608 -0.132904 -1.844807 0.000000 -0.071611 0.000000
    244 -0.445620 0.142054 -1.991569 0.000000 -0.071611 0.000000
    245 -0.475047 -0.132904 -2.165854 0.000000 -0.071611 0.000000
    246 -0.495213 0.142054 -2.698733 0.000000 -0.071610 0.000000
    247 -0.534745 -0.132904 -2.487533 0.000000 -0.071610 0.000000
    248 -0.568263 0.142054 -2.634692 0.000000 -0.071611 0.000000
    249 -0.590430 -0.132904 -2.808412 0.000000 -0.071611 0.000000
    250 -0.644097 0.142054 -2.956448 0.000000 -0.071610 0.000000
    251 -0.661686 -0.132904 -3.130074 0.000000 -0.071610 0.000000
    252 -0.693129 0.142054 -3.277458 0.000000 -0.071610 0.000000
    253 -0.728404 -0.132904 -3.451084 0.000000 -0.071610 0.000000
    254 -3.524744 -0.158648 2.253395 0.000000 0.000000 0.000000
  time 1
    0 0.000000 0.000000 0.000000 0.000000 0.000000 -1.570796
    1 -0.106384 0.000000 0.000168 0.000000 0.000000 0.000000
    2 0.000000 0.000000 0.000000 0.000000 0.000000 0.000000
    3 -0.904000 0.000000 -11.806000 0.000000 0.000000 0.000000
    4 0.000000 0.000000 -14.313999 1.570168 -1.570772 0.000000
    5 3.533001 0.000000 0.000000 0.000000 0.000000 0.000000
    6 6.250000 0.000000 0.000000 0.000000 0.000000 0.000000
    7 9.562500 2.335938 -1.942383 -1.526245 1.357192 -1.527243
    8 11.117188 10.507813 2.464844 1.152548 -1.547372 -1.152636
    9 5.781250 -0.000030 0.000176 -0.920176 0.339756 -1.469296
    10 5.999492 -0.000592 -4.000343 0.000011 0.000000 -0.000015
    11 5.781250 -0.000015 -0.000272 0.845368 -0.725805 -1.359324
    12 5.999492 -0.000592 4.000332 -0.000011 0.000000 -0.000008
    13 0.500225 0.000133 -0.000092 0.000000 0.000000 0.000000
    14 11.523438 -0.001402 0.000134 0.000050 0.000035 -1.221175
    15 -0.829338 0.893824 0.079659 -0.148839 0.047645 0.087266
    16 0.500225 0.000132 0.000076 0.000000 0.000000 0.000000
    17 11.523438 -0.001520 -0.000931 0.000042 -0.000039 -1.633438
    18 -0.829586 0.894698 -0.079464 0.045377 -0.019621 0.087266
    19 10.599890 0.000105 -0.000549 -0.939981 0.000000 0.000000
    20 0.119667 -0.275181 -0.000805 0.000004 -0.000018 0.409876
    21 11.039063 -0.000004 -0.000638 -1.364484 0.043625 0.838419
    22 -1.214830 0.203470 -0.477489 -0.135025 -0.078677 -0.001289
    23 10.599880 0.000105 0.000549 0.000000 0.000000 0.000000
    24 0.119663 -0.275181 0.000805 -0.000026 0.000007 0.409849
    25 11.039063 -0.000050 0.000622 0.071854 0.317470 0.867940
    26 -1.063377 0.077663 0.150230 0.045121 0.020046 -0.012850
    27 0.610304 -0.939470 0.070339 -1.659838 -0.162228 -0.143480
    28 0.639942 -0.199121 0.060184 -1.670004 -0.168987 -0.036089
    29 0.600155 1.080260 -0.339535 -1.767168 0.116826 -0.008263
    30 0.610209 0.400743 -0.010105 -1.760058 -0.015757 0.060640
    31 0.596680 -0.602539 -0.033417 0.284791 0.454076 -0.882138
    32 -0.792123 0.203735 0.461300 1.439074 -0.003453 -0.018305
    33 0.610299 -0.939469 -0.070354 1.655393 0.140075 -0.175668
    34 0.639938 -0.199121 -0.060200 1.665960 0.131392 -0.066411
    35 0.600156 1.080259 0.339531 1.755368 -0.191826 0.006534
    36 0.610205 0.400743 0.010086 1.761938 -0.015441 0.028091
    37 0.629883 -0.688965 0.230469 -0.412985 -0.527552 -0.960811
    38 -0.626031 -0.069983 -0.080517 -1.447153 0.086151 0.021559
    39 2.619141 0.000198 0.000403 -0.239317 -0.608908 0.669021
    40 2.658203 0.000070 -0.000823 -0.547587 -0.359486 1.190178
    41 2.044922 0.197876 0.054504 -0.625195 0.156034 1.447544
    42 0.599950 0.959240 -0.300102 -0.174557 -0.000001 0.000010
    43 2.558594 -0.000128 0.000024 -0.529986 -0.156017 1.305778
    44 2.097656 0.000475 -0.000410 -0.219564 -0.132135 0.792324
    45 0.999378 -0.000234 -1.209370 -0.000001 0.000000 0.000000
    46 -0.122639 -0.721856 0.661690 -0.486645 0.223964 0.243056
    47 2.619141 0.000243 -0.000397 0.353105 0.390999 0.195780
    48 2.658203 0.000768 0.000165 0.415601 0.005335 1.379210
    49 2.199219 0.000578 -0.000117 0.397557 -0.127357 1.106813
    50 0.599951 0.959244 0.300102 0.174563 0.000002 0.000004
    51 2.558594 -0.000157 -0.000030 0.326544 -0.057013 1.327032
    52 2.097656 -0.000078 -0.000405 0.305301 -0.303301 0.910700
    53 0.999374 -0.000237 1.209366 0.000000 0.000000 0.000001
    54 0.310844 -0.606444 -0.498005 0.308107 -0.197598 0.313976
    55 1.844727 -0.009773 -0.010704 0.000000 0.000000 0.939119
    56 1.200941 0.399582 -0.000237 -0.009501 0.016092 0.007158
    57 0.000584 0.100342 -0.000319 -0.120040 -0.021918 -0.209552
    58 -0.161663 0.051712 0.194808 -2.941982 0.122408 -0.060194
    59 2.007813 -0.000221 -0.000225 0.000037 0.000046 1.362617
    60 0.000244 0.099804 -0.000395 -0.018792 0.010832 -0.239299
    61 -0.203197 0.048607 0.069150 -3.093332 0.033217 -0.046723
    62 1.178711 0.000278 -0.000711 -0.000056 0.000025 0.843941
    63 -0.000195 0.099621 -0.000034 -0.000039 0.000002 -0.314040
    64 -0.088739 -0.688438 -0.145203 2.930407 -0.136130 0.513012
    65 1.708008 0.000751 -0.000176 -0.000049 0.000033 1.164084
    66 -0.000584 0.100147 -0.000311 -0.010910 0.023136 -0.260791
    67 -0.146030 -0.232424 -0.014225 3.028455 -0.094299 0.113019
    68 1.290630 0.000362 -0.000031 -0.006463 -0.064282 -0.263027
    69 -0.658121 -0.003575 0.072643 -0.142711 0.027792 -0.077299
    70 1.867188 0.000000 0.000524 -0.000048 0.000038 1.344605
    71 1.200081 0.399944 -0.000093 0.009502 -0.016085 0.007158
    72 0.000595 0.100342 0.000319 0.120021 0.021918 -0.209554
    73 0.068083 0.002285 -0.080050 3.111376 -0.069366 -0.060847
    74 2.007813 -0.000990 -0.000386 0.000000 0.000000 1.230289
    75 0.000229 0.099804 0.000395 0.018773 -0.010834 -0.239312
    76 -0.018669 -0.001009 0.047544 3.109244 0.002635 -0.106673
    77 1.178663 0.001591 0.000845 -0.000033 0.000080 0.786295
    78 -0.000202 0.099625 0.000034 0.000061 0.000015 -0.314048
    79 0.036892 -0.634453 0.266284 -2.801062 0.174301 0.490914
    80 1.708008 0.000794 0.000204 0.000029 0.000051 1.029028
    81 -0.000572 0.100136 0.000311 0.010945 -0.023139 -0.260780
    82 -0.003948 -0.281811 0.115047 -3.059162 0.089004 0.167963
    83 1.290039 0.000320 -0.000048 -0.012098 -0.070815 0.621359
    84 -0.171528 -0.018148 -0.099876 0.013484 -0.062184 -0.011780
    85 0.919922 -0.000307 -0.000410 0.000000 0.000000 0.902003
    86 -0.342617 0.053406 -0.025571 -2.909301 -0.017248 0.075276
    87 1.099609 -0.000369 0.000138 0.000000 0.000000 0.246110
    88 -0.384983 0.330997 0.006848 -3.087207 -0.018765 -0.184279
    89 0.679688 -0.001252 0.000447 0.000000 0.000000 -0.053351
    90 -0.123848 0.072738 0.029507 2.898184 -0.060627 0.094834
    91 1.017162 -0.000154 -0.000252 0.000000 0.000000 0.156779
    92 -0.344990 0.123127 0.143151 2.994981 0.012396 0.059140
    93 -0.730986 0.177045 0.039143 -0.123731 0.076518 -0.084310
    94 0.918945 0.000396 0.000084 0.000057 -0.000015 0.500587
    95 -0.124031 -0.052092 0.038495 3.077813 -0.008519 0.039229
    96 1.099609 0.000031 0.000478 0.000000 0.000000 0.986025
    97 -0.330078 0.160644 0.042780 3.128073 0.034033 -0.171237
    98 0.679199 -0.000834 0.000177 0.000055 -0.000027 0.908302
    99 -0.019520 -0.016532 0.038578 -2.763781 0.050305 0.076828
    100 1.019531 0.000033 -0.000394 0.000055 -0.000026 0.862912
    101 -0.155312 0.130642 -0.021921 -3.022466 0.022433 -0.024903
    102 -0.252205 0.061937 -0.024914 -0.007671 -0.063171 -0.044392
    103 -0.085991 0.185201 -0.015180 -2.937063 -0.113970 -0.138992
    104 -0.286541 0.179852 0.024264 -3.109353 -0.049645 -0.029915
    105 -0.019489 0.147084 0.079203 2.893815 0.038585 -0.060594
    106 -0.046482 0.251900 0.129548 3.016165 0.077112 -0.042864
    107 0.039116 -0.040298 0.047738 3.084219 0.030470 -0.037413
    108 -0.233757 0.066630 0.001753 -3.133087 0.040141 -0.065413
    109 0.044262 0.020131 0.001683 -2.778763 -0.118872 -0.040489
    110 0.071491 0.074128 -0.048302 -3.035917 -0.059482 0.104366
    111 0.000000 0.000000 0.000000 0.000000 0.000000 -1.570796
    112 4.847656 -2.806641 -3.041016 -0.083841 0.000009 -0.000651
    113 -2.070313 -15.367188 -2.582031 -0.083841 0.000009 -1.571448
    114 3.192995 0.701117 -1.254612 0.000000 0.000000 0.000000
    115 1.645856 0.701122 1.852765 0.000000 0.000000 0.000000
    116 7.259127 0.701122 0.735763 0.000000 0.000000 0.000000
    117 5.883046 0.081211 0.926991 -0.000006 -0.258096 -1.570795
    118 6.513055 1.393491 0.708312 0.000000 0.000000 0.000000
    119 2.804780 0.701122 1.852765 0.000000 0.000000 0.000000
    120 2.255212 0.701122 1.852765 0.000000 0.000000 0.000000
    121 -1.532070 -0.568381 -3.243820 -1.948974 -0.069577 0.009888
    122 6.153604 0.701122 -2.047204 0.000000 0.000000 0.000000
    123 2.334001 0.707000 -1.271000 0.000000 0.000000 0.000000
    124 1.863304 0.701122 1.852765 0.000000 0.000000 0.000000
    125 4.231731 0.701122 1.852765 0.000000 0.000000 0.000000
    126 2.150997 0.701122 2.418449 0.000000 0.000000 0.000000
    127 -0.330746 0.701128 0.679118 0.000000 0.000000 0.000000
    128 3.298828 -0.019012 1.345703 0.000000 0.000000 0.000000
    129 0.000000 -0.018997 0.000000 0.000000 0.000000 0.000000
    130 0.000000 -0.018997 0.000000 0.000000 0.000000 0.000000
    131 1.066406 0.588867 0.075989 0.000000 0.000000 0.000000
    132 1.085938 -0.660645 -0.148926 0.000000 0.000000 0.000000
    133 0.000000 0.000000 0.000000 0.000000 0.000000 0.000000
    134 4.305266 0.631988 -1.075750 0.000000 0.000000 0.000000
    135 1.682477 0.000000 -0.897122 0.000000 0.000000 0.000000
    136 0.703515 0.000000 -0.896955 0.000000 0.000000 0.000000
    137 2.146837 1.593605 -1.614835 -2.241519 0.087785 -0.370014
    138 3.639693 -1.009019 0.034595 1.570796 0.000000 0.000000
    139 10.392424 -0.000101 -0.093979 0.000000 0.000000 0.000000
    140 10.392424 -0.000101 -0.093979 0.000000 0.000000 0.000000
    141 1.203457 0.000000 0.000513 0.000000 0.000000 0.000000
    142 -0.558669 0.000000 0.946582 0.000000 0.000000 0.000000
    143 -0.105957 0.000000 64.312500 0.000000 0.000000 0.000000
    144 -0.904151 0.000312 -4.267831 0.000000 0.000000 0.000000
    145 -1195.000000 -0.000143 0.946289 0.000000 0.000000 0.000000
    146 0.000000 0.106384 0.000168 0.000000 0.000000 -1.570796
    147 0.000000 0.000000 0.000000 0.000000 0.000000 0.000000
    148 0.000000 0.000000 0.000000 0.000000 0.000000 0.000000
    149 0.000000 0.000000 0.000000 0.000000 0.000000 0.000000
    150 -2.064453 -15.367188 -2.583984 -0.083889 0.000000 -1.570796
    151 0.000000 0.000000 0.000000 0.000000 0.000000 0.000000
    152 0.000000 0.000000 0.000000 0.000000 0.000000 0.000000
    153 0.000000 0.000000 0.000000 0.000000 0.000000 0.000000
    154 0.000000 0.000000 -4.863281 -3.141572 0.003206 -3.128592
    155 1.000000 -0.000004 -0.000004 0.000000 0.000000 0.000000
    156 17.156250 0.000021 -0.000074 0.000000 0.000000 0.119215
    157 17.734375 0.296143 0.000026 0.000000 0.000000 -1.158976
    158 5.410156 0.000320 0.000007 0.000000 0.000000 -0.518057
    159 0.017883 0.299561 0.000000 0.000000 0.000000 -0.059526
    160 9.992188 -0.000054 -0.000043 0.000000 0.000000 0.000000
    161 0.000000 0.000000 4.863281 -3.141572 0.003206 -3.128592
    162 1.000000 -0.000005 -0.000005 0.000000 0.000000 0.000000
    163 12.281250 1.581055 -4.695313 1.462277 -0.086715 0.090212
    164 17.156250 0.000022 -0.000075 0.000000 0.000000 0.119215
    165 17.734375 0.295898 0.000026 0.000000 0.000000 -1.158976
    166 5.410156 0.000332 0.000009 0.000000 0.000000 -0.518057
    167 0.017868 0.299561 0.000000 -0.000002 0.000000 -0.059545
    168 9.492188 0.000447 -0.000042 0.000000 0.000000 0.000000
    169 -1.145508 0.000428 0.000536 -0.523599 0.000000 0.000000
    170 0.259766 -0.045197 0.109253 0.023274 0.042361 0.010824
    171 3.998047 -0.000404 -0.000330 -0.731822 -0.000055 0.000021
    172 0.599121 0.400635 0.000246 0.000000 0.000000 0.000000
    173 0.599609 0.400146 -0.000034 0.000000 0.000000 0.000000
    174 2.298828 -2.498047 -0.599121 0.892087 0.221524 -0.527225
    175 1.489258 -0.530273 -1.802734 2.260880 -0.234634 -0.301485
    176 -9.578125 -27.859375 -37.156250 0.812951 -0.123457 -0.568429
    177 0.649902 -0.547852 0.093567 -1.665879 -0.131378 -0.112048
    178 1.898438 0.000393 -0.000433 0.027371 -0.033314 0.477852
    179 0.656738 0.008415 0.040344 -1.665942 -0.131349 -0.000001
    180 1.798828 -0.000335 0.000231 0.027403 -0.033320 0.477842
    181 1.798828 -0.000335 0.000231 0.027403 -0.033320 0.477842
    182 1.798828 -0.000335 0.000231 0.027403 -0.033320 0.477842
    183 0.665527 0.747070 -0.029160 -1.665854 -0.131440 0.094998
    184 1.899414 -0.000081 -0.000518 0.027384 -0.033290 0.477844
    185 4.660156 -5.363281 4.824219 1.576332 1.561361 -3.114619
    186 3.998047 0.000142 0.001000 0.051397 -0.000059 -0.000063
    187 0.600098 0.399414 -0.000465 0.000000 0.000000 -3.139640
    188 0.599609 0.400146 0.000013 0.000000 0.000000 3.138210
    189 2.298828 -2.498047 0.600098 -0.892092 -0.221580 -0.527195
    190 12.296875 -3.134766 -0.006844 1.948267 -0.016448 0.068364
    191 2.761719 0.117065 1.523438 1.629506 0.064224 1.743862
    192 7.226563 7.925781 -3.925781 2.328644 0.123429 -0.568435
    193 0.650391 -0.547363 -0.092896 1.665876 0.131387 -0.112033
    194 1.899414 -0.000328 -0.000153 -0.027333 0.033308 0.477849
    195 0.656738 0.008408 -0.040375 1.665944 0.131361 0.000013
    196 1.798828 -0.000309 -0.000228 -0.027418 0.033337 0.477838
    197 1.798828 -0.000309 -0.000228 -0.027418 0.033337 0.477838
    198 1.798828 -0.000309 -0.000228 -0.027418 0.033337 0.477838
    199 0.665527 0.747070 0.029144 1.665856 0.131446 0.095008
    200 1.900391 0.000626 -0.000073 -0.027395 0.033294 0.477830
    201 13.351563 0.000033 0.000001 0.000000 0.000000 -0.294090
    202 3.115234 -0.000321 0.000001 0.000000 0.000000 0.294092
    203 3.511719 -3.546875 -1.065430 0.000003 1.570773 0.000000
    204 3.455078 -3.515625 1.168945 0.000003 1.570773 0.000000
    205 6.230469 -0.000025 0.000000 0.000000 0.000000 0.000000
    206 1.597656 0.000000 0.000000 0.000000 0.000000 0.000000
    207 -4.480469 -0.201904 -0.000001 0.000000 0.000000 0.000000
    208 -5.515625 -0.290771 -0.001000 0.000000 0.000000 0.000000
    209 -0.171997 -0.105957 -0.901855 1.570697 1.029229 -3.134589
    210 6.238281 -6.378906 -0.000001 0.000000 0.000000 0.000000
    211 4.527344 0.000011 0.000000 0.000000 0.000000 0.000000
    212 0.000000 0.000000 0.000000 0.000000 0.000000 0.000000
    213 0.000000 0.000000 0.000000 0.000000 0.000000 0.000000
    214 0.000000 0.000000 0.000000 0.000000 0.000000 0.000000
    215 4.000000 -6.500000 -0.000001 0.000000 -0.000002 0.000910
    216 -6.500000 0.000000 0.000000 0.000000 1.570773 0.000000
    217 0.105957 0.000000 -64.312500 0.000000 0.000000 0.000000
    218 0.000000 0.000000 0.000000 0.000000 0.000000 0.000000
    219 2.003448 0.701118 -0.705975 0.000000 0.000000 0.000000
    220 5.406061 -0.069386 0.559538 0.000000 0.000000 0.000000
    221 0.710311 -0.115685 1.631563 0.000000 0.000000 0.000000
    222 0.537235 0.701121 1.449564 0.000000 0.000000 0.000000
    223 4.284685 1.256381 -0.335131 0.000000 0.000000 0.000000
    224 5.780050 0.701122 0.734652 0.000000 0.000000 0.000000
    225 0.215623 -0.000008 1.415013 0.000000 -0.071610 0.000000
    226 0.167190 0.092033 1.117434 0.000000 -0.071611 0.000000
    227 0.118559 -0.100415 0.855716 0.000000 -0.071611 0.000000
    228 0.077615 0.122713 0.637300 0.000000 -0.071611 0.000000
    229 0.092014 -0.131096 0.436484 0.000000 -0.071610 0.000000
    230 0.003281 0.142054 0.256779 0.000000 -0.071611 0.000000
    231 -0.029927 -0.132904 0.083272 0.000000 -0.071610 0.000000
    232 -0.052484 0.142054 -0.063862 0.000000 -0.071611 0.000000
    233 -0.093058 -0.132904 -0.238245 0.000000 -0.071611 0.000000
    234 -0.112278 0.142054 -0.385651 0.000000 -0.071610 0.000000
    235 -0.148590 -0.132904 -0.559857 0.000000 -0.071610 0.000000
    236 -0.189956 0.142054 -0.706532 0.000000 -0.071610 0.000000
    237 -0.211964 -0.132904 -0.881189 0.000000 -0.071611 0.000000
    238 -0.248653 0.142054 -1.028480 0.000000 -0.071611 0.000000
    239 -0.274851 -0.132904 -1.202113 0.000000 -0.071611 0.000000
    240 -0.316169 0.142054 -1.349454 0.000000 -0.071611 0.000000
    241 -0.352941 -0.132904 -1.523750 0.000000 -0.071611 0.000000
    242 -0.386291 0.142054 -1.670617 0.000000 -0.071611 0.000000
    243 -0.419608 -0.132904 -1.844807 0.000000 -0.071611 0.000000
    244 -0.445620 0.142054 -1.991569 0.000000 -0.071611 0.000000
    245 -0.475047 -0.132904 -2.165854 0.000000 -0.071611 0.000000
    246 -0.495213 0.142054 -2.698733 0.000000 -0.071610 0.000000
    247 -0.534745 -0.132904 -2.487533 0.000000 -0.071610 0.000000
    248 -0.568263 0.142054 -2.634692 0.000000 -0.071611 0.000000
    249 -0.590430 -0.132904 -2.808412 0.000000 -0.071611 0.000000
    250 -0.644097 0.142054 -2.956448 0.000000 -0.071610 0.000000
    251 -0.661686 -0.132904 -3.130074 0.000000 -0.071610 0.000000
    252 -0.693129 0.142054 -3.277458 0.000000 -0.071610 0.000000
    253 -0.728404 -0.132904 -3.451084 0.000000 -0.071610 0.000000
    254 -3.524744 -0.158648 2.253395 0.000000 0.000000 0.000000
end
